<?xml version="1.0" encoding="UTF-8" standalone="no"?>
<!-- Created with Inkscape (http://www.inkscape.org/) -->

<svg
   xmlns:dc="http://purl.org/dc/elements/1.1/"
   xmlns:cc="http://creativecommons.org/ns#"
   xmlns:rdf="http://www.w3.org/1999/02/22-rdf-syntax-ns#"
   xmlns:svg="http://www.w3.org/2000/svg"
   xmlns="http://www.w3.org/2000/svg"
   xmlns:sodipodi="http://sodipodi.sourceforge.net/DTD/sodipodi-0.dtd"
   xmlns:inkscape="http://www.inkscape.org/namespaces/inkscape"
   width="600"
   height="88.461998"
   viewBox="0 0 600.00001 88.461999"
   id="svg4792"
   version="1.1"
   inkscape:version="0.91 r13725"
   sodipodi:docname="anwari-ilman.svg">
  <defs
     id="defs4794" />
  <sodipodi:namedview
     id="base"
     pagecolor="#ffffff"
     bordercolor="#666666"
     borderopacity="1.0"
     inkscape:pageopacity="0.0"
     inkscape:pageshadow="2"
     inkscape:zoom="0.78476562"
     inkscape:cx="370.54007"
     inkscape:cy="93.758012"
     inkscape:document-units="px"
     inkscape:current-layer="layer1"
     showgrid="false"
     inkscape:window-width="1366"
     inkscape:window-height="720"
     inkscape:window-x="0"
     inkscape:window-y="0"
     inkscape:window-maximized="1"
     units="px" />
  <metadata
     id="metadata4797">
    <rdf:RDF>
      <cc:Work
         rdf:about="">
        <dc:format>image/svg+xml</dc:format>
        <dc:type
           rdf:resource="http://purl.org/dc/dcmitype/StillImage" />
        <dc:title></dc:title>
      </cc:Work>
    </rdf:RDF>
  </metadata>
  <g
     inkscape:label="Layer 1"
     inkscape:groupmode="layer"
     id="layer1"
     transform="translate(0,-963.90016)">
    <g
       id="g9716"
       transform="matrix(2.4111873,0,0,2.4111873,-727.40102,453.40537)"
       style="display:inline;fill:#ffffff">
      <path
         inkscape:connector-curvature="0"
         id="path9718"
         d="m 327.74922,211.71984 c -0.0767,0.003 -0.13633,0.0148 -0.17598,0.0369 -0.29266,0.16531 -1.31943,2.00474 -2.28231,4.08763 -1.68086,3.63581 -5.94894,11.49364 -6.99066,12.86987 -0.93702,1.23782 -1.57078,0.9093 -1.49,-0.77273 0.0847,-1.76191 -0.63601,-2.41611 -1.55497,-1.41092 -0.74859,0.81904 -0.52872,2.34193 0.49744,3.44676 0.44484,0.47895 0.73059,1.15664 0.63496,1.50589 -0.24311,0.88811 -4.38475,4.81275 -6.7464,6.39301 -2.58545,1.73003 -3.40029,1.30663 -3.85823,-2.00392 -0.59359,-4.29119 1.83432,-8.30132 5.31777,-8.78318 0.80684,-0.11162 1.21252,-0.41017 1.15198,-0.84776 -0.12454,-0.9003 -4.37883,-0.33699 -6.36765,0.84319 -2.73539,1.62311 -4.77443,6.00054 -4.06584,8.72921 1.04899,4.03958 6.41665,6.95299 10.37163,5.62958 2.08226,-0.69674 6.31069,-4.42673 8.78447,-7.74965 1.92892,-2.59094 2.17138,-2.76359 4.28674,-3.0562 l 2.24195,-0.31012 0.30532,2.13772 c 0.50478,3.52947 2.8438,6.50157 5.44321,6.91727 1.36041,0.21759 3.7074,-2.01206 3.89078,-3.69611 0.0696,-0.63946 0.27113,-1.75959 0.44807,-2.48934 l 0.32203,-1.32635 0.91572,2.00579 c 1.11948,2.45137 3.88091,4.44427 5.79144,4.17999 1.37769,-0.19059 1.47756,-0.41687 1.57126,-3.55812 0.0803,-2.69407 1.9986,-7.03238 3.18166,-7.19603 0.44449,-0.0616 0.49999,0.44434 0.26017,2.37345 -1.15967,9.32814 -0.59042,12.56828 2.57504,14.65615 0.96106,0.6339 2.02195,1.11506 2.35739,1.06866 1.16661,-0.16137 2.20716,-1.92701 2.65053,-4.49711 0.24536,-1.42223 0.70226,-3.5299 1.01583,-4.68331 l 0.57047,-2.09664 1.82469,1.61743 c 1.88258,1.66919 4.43495,2.4839 5.66225,1.80725 0.38506,-0.21229 0.8024,-1.196 0.92742,-2.18635 0.29433,-2.33172 0.86756,-2.76289 1.68309,-1.26544 1.54711,2.84075 5.27053,4.46828 7.46926,3.26487 0.62049,-0.33957 1.12015,-0.67632 1.11024,-0.74787 -0.0101,-0.0716 0.23396,-1.29458 0.54184,-2.71833 0.30792,-1.42376 0.48642,-3.1191 0.39683,-3.76675 -0.20501,-1.4822 0.32031,-4.25598 0.90542,-4.78188 0.74636,-0.67084 0.98702,-0.54026 1.44896,0.78738 0.58354,1.67701 3.44749,4.12134 5.44962,4.65035 1.68421,0.44501 3.04127,0.0458 4.1319,-1.21425 0.61212,-0.70745 0.69363,-0.53506 1.06273,2.25256 0.3066,2.3159 0.64383,3.26703 1.44893,4.08511 1.2476,1.26782 3.02371,1.72047 4.45787,1.13574 1.8522,-0.75517 4.59705,-4.81335 5.68701,-8.40759 0.936,-3.08628 1.14644,-3.40431 2.36432,-3.57279 1.06733,-0.14764 1.30917,-0.019 1.19874,0.63732 -1.40827,8.36814 -0.74021,11.23325 3.23021,13.85202 1.3898,0.91668 2.18469,1.1339 3.23167,0.88318 1.27807,-0.30607 1.53371,-0.74218 3.21109,-5.49253 1.00221,-2.83826 1.97147,-5.34735 2.15448,-5.57583 0.18297,-0.22847 0.40311,1.1444 0.48922,3.0508 0.19929,4.41278 1.2351,6.04044 4.76157,7.48482 2.06451,0.84558 3.12031,0.20056 3.97053,-2.42624 1.28001,-3.95409 3.24559,-7.59637 5.04214,-9.34382 1.39119,-1.35327 1.92946,-1.60422 3.30006,-1.53841 1.24702,0.06 1.61596,-0.0727 1.54898,-0.55667 -0.14918,-1.07852 -1.24459,-1.57666 -2.94813,-1.34101 -2.10131,0.29068 -4.26385,2.67319 -6.27165,6.90907 -2.1514,4.53872 -2.58648,5.33082 -2.95485,5.38177 -0.55452,0.0768 -0.68079,-3.85991 -0.26642,-8.29576 0.27323,-2.92468 0.22949,-4.3234 -0.14415,-4.60621 -0.29509,-0.22338 -1.58173,-0.36237 -2.8583,-0.30917 -2.92182,0.1218 -3.10019,0.32687 -6.54464,7.52768 -1.46632,3.06535 -2.89564,5.60575 -3.17663,5.64462 -0.78226,0.10821 -1.14879,-6.50384 -0.52583,-9.49061 l 0.52604,-2.52163 -1.44388,-0.86069 c -0.83123,-0.49531 -2.03829,-0.7725 -2.8439,-0.65266 -0.76984,0.11452 -2.01013,0.0556 -2.75662,-0.13141 -1.11477,-0.27922 -1.33576,-0.5398 -1.23553,-1.46047 0.17135,-1.5736 -0.36322,-2.33395 -1.92827,-2.74237 -2.97362,-0.77592 -4.00162,2.01941 -1.54116,4.19036 l 1.25283,1.10583 -1.08843,3.18654 c -1.1459,3.35586 -2.77678,6.31538 -3.53813,6.42068 -0.65008,0.0899 -0.58967,-4.06061 0.12031,-8.25424 0.69655,-4.11438 0.45089,-4.52686 -2.68449,-4.50938 -2.03263,0.0115 -2.21398,-0.0926 -3.06221,-1.751 -1.02376,-2.00175 -3.54684,-3.49193 -5.46335,-3.22683 -2.59151,0.35849 -3.80466,1.40692 -4.78133,4.13304 -1.29461,3.61327 -2.23051,3.65582 -2.97967,0.13519 -0.74469,-3.49967 -1.89734,-4.51206 -4.05169,-3.55834 -1.76733,0.78238 -2.10578,1.4096 -1.83795,3.41214 0.157,1.17461 0.66606,1.868 2.25319,3.06941 2.34105,1.77207 2.591,2.62104 1.79334,6.09554 -1.28722,5.60681 -2.40035,5.96363 -3.10041,0.99268 -0.43637,-3.09846 -1.04691,-3.65758 -3.60853,-3.30323 -2.24857,0.31104 -2.75024,0.85949 -3.67321,4.01828 -0.48824,1.67073 -1.09836,3.06693 -1.3564,3.10262 -0.92466,0.12791 -1.19807,-7.05328 -0.43733,-11.4883 0.12123,-0.70687 -0.28957,-1.01189 -2.03972,-1.51328 -1.20543,-0.34533 -2.37613,-0.4747 -2.60165,-0.28818 -0.82151,0.67943 -1.3236,3.00977 -1.40022,6.49872 -0.0432,1.96221 -0.24602,3.59082 -0.45044,3.61911 -0.20435,0.0283 -0.89648,1.68599 -1.5385,3.68445 -0.64207,1.99845 -1.2832,3.5462 -1.42458,3.43921 -0.14128,-0.10699 -0.0268,-2.55551 0.25487,-5.44124 0.43493,-4.45822 0.40046,-5.49189 -0.23121,-6.87454 -0.87177,-1.90798 -1.9133,-2.39754 -4.37291,-2.05731 -1.56819,0.21694 -1.98708,0.54147 -3.3434,2.59226 -0.85275,1.28937 -1.52806,2.50927 -1.50017,2.71108 0.0279,0.2018 -0.35263,1.18321 -0.8456,2.1813 l -0.89624,1.81542 -0.47378,-3.42491 c -0.3107,-2.2462 -0.29277,-3.99396 0.0514,-5.07787 0.6395,-2.01362 0.25805,-2.80442 -1.6869,-3.49197 -1.45253,-0.51346 -1.51697,-0.48949 -2.62055,0.96844 -0.62215,0.82186 -1.18898,2.09661 -1.26015,2.83295 -0.0712,0.73633 -0.34998,1.67944 -0.61986,2.09629 -0.26989,0.41684 -1.16069,2.77025 -1.97921,5.22889 -0.81847,2.45865 -1.70298,4.37497 -1.96554,4.25895 -0.727,-0.32126 -0.85183,-5.91232 -0.26599,-11.88938 0.65737,-6.70519 0.92589,-9.94721 0.86276,-10.40336 -0.0838,-0.60603 -5.11007,-2.64691 -6.2602,-2.60477 z m -0.39407,11.74402 c 0.21563,-0.0298 0.19081,2.71422 -0.0388,4.25054 -0.12864,0.86107 -1.20967,1.21162 -2.25874,0.73285 -0.45846,-0.20924 -0.26883,-0.88889 0.7314,-2.61817 0.7431,-1.28468 1.44766,-2.34885 1.56597,-2.36522 z m 48.03845,-5.03879 c 0.35581,-0.0492 0.90092,0.52616 1.21136,1.27918 l 0,0 c 0.31087,0.75294 0.46316,1.83427 0.33789,2.40303 -0.2056,0.93346 -0.29661,0.97172 -0.92878,0.39379 -0.9905,-0.90554 -1.45472,-3.96059 -0.61943,-4.07614 z m 12.79097,-0.52609 c 0.29167,-0.0104 0.61615,0.34124 1.00179,1.02761 1.4639,2.60548 1.73606,4.35266 0.92103,5.9132 -0.42746,0.81847 -1.31922,1.99906 -1.98113,2.62343 -1.05097,0.99141 -1.25001,1.05014 -1.57351,0.46327 -0.53338,-0.96736 -0.43249,-3.1962 0.31081,-6.83747 0.43912,-2.15135 0.83496,-3.17298 1.32101,-3.19004 z m 35.14882,-3.52828 c -0.41543,0.0388 -0.78601,0.16237 -1.05981,0.39309 -0.99855,0.8414 -0.77212,2.29799 0.41974,2.69737 1.55655,0.5216 3.82842,0.18586 4.34196,-0.64182 0.73981,-1.19256 -1.90176,-2.61673 -3.70189,-2.44863 z"
         style="display:inline;fill:#ffffff" />
      <path
         style="display:inline;fill:#ffffff"
         d="m 459.95414,212.02847 c -1.55827,0.0555 -4.71444,0.86213 -8.8243,2.2738 -1.18815,0.4081 -2.42271,0.68079 -3.0498,0.67373 -0.85846,-0.009 -1.0523,0.0595 -1.04663,0.37257 0.0199,1.09145 2.97767,1.71823 4.9029,1.03896 0.50953,-0.17973 0.96087,-0.29261 1.00296,-0.25049 0.042,0.0421 0.12485,1.96452 0.18403,4.2721 0.0592,2.30758 0.15519,4.54488 0.21348,4.97187 0.0582,0.42699 0.16605,1.57482 0.23948,2.55073 0.26726,3.55255 0.75714,6.53624 1.22304,7.44944 0.4984,0.97709 0.49804,1.02291 -0.01,1.09524 -0.80673,0.11483 -1.50105,-0.0346 -1.90474,-0.41105 -0.79838,-0.74383 -1.63695,-1.19686 -1.9751,-1.06712 -0.90013,0.34544 0.21358,2.36713 1.63546,2.96873 0.44139,0.18673 1.85068,0.40262 3.13159,0.47997 3.50418,0.20593 4.29068,-0.77532 7.60612,-3.28649 0.68872,-0.4188 1.02005,-0.48432 1.82987,-0.36281 0.93639,0.14034 0.98876,0.12013 0.98876,-0.38236 0,-0.79036 -0.80937,-1.12051 -2.47588,-1.01022 -1.07469,0.0712 -1.62872,0.24159 -2.35285,0.72471 -0.52094,0.34752 -0.98971,0.58958 -1.04178,0.53752 -0.56845,-0.56848 -1.07383,-15.57733 -0.53232,-16.22977 0.23991,-0.28912 0.40825,-1.0465 0.12199,-4.01187 -0.0223,-0.23084 0.10013,-0.46893 0.27204,-0.52923 0.2177,-0.0763 0.26967,0.006 0.17087,0.25995 -0.20967,0.54642 0.7484,0.9239 1.67462,0.65987 1.05839,-0.30169 1.11593,-1.1766 0.12718,-1.93076 -0.404,-0.30814 -0.9872,-0.65618 -1.29582,-0.77351 -0.18151,-0.069 -0.45586,-0.0963 -0.81546,-0.0835 z m 16.14868,0.52953 c -0.23677,0.006 -0.42188,0.0402 -0.52124,0.11473 -0.918,0.64847 -1.80321,-0.0464 -2.72888,1.7536 -2.19569,3.01384 -3.41185,5.51625 -3.83235,9.73476 l -0.14625,1.77442 -0.99153,0.0707 c -1.27792,0.091 -2.84617,-0.35059 -3.13019,-0.8813 -0.12223,-0.22842 -0.16572,-0.90916 -0.0967,-1.51276 0.11514,-1.00715 0.0772,-1.12899 -0.45989,-1.48091 -0.52535,-0.34421 -0.64507,-0.34998 -1.16967,-0.0557 -0.80211,0.44982 -1.01139,1.91814 -0.44153,3.09763 0.71561,1.48115 2.20889,2.34115 4.60207,2.65089 1.53345,0.19842 1.78973,0.40693 1.79488,1.45937 0.005,0.8742 0.73154,2.99581 1.44276,4.20944 0.62678,1.06958 2.21747,2.54713 3.29065,3.05639 1.42289,0.67516 3.37969,-0.12723 4.17857,-1.71346 0.78963,-1.56777 0.85338,-1.58878 1.49301,-0.49037 1.90853,3.27744 4.93033,4.57078 6.52067,2.79091 0.47416,-0.53066 0.60189,-0.85044 0.5008,-1.25325 -0.0748,-0.29786 0.004,-0.80982 0.17294,-1.14053 0.37763,-0.73414 0.75246,-1.79147 1.16238,-3.27853 0.34045,-1.23493 1.80657,-3.86484 2.15461,-3.86484 0.13454,0 0.15968,0.40525 0.0652,1.05349 -0.41968,2.8779 -0.41305,3.25391 0.0752,4.29259 0.2622,0.55787 0.98023,1.497 1.59594,2.08702 0.9885,0.94732 1.2538,1.08359 2.2662,1.16519 1.03298,0.0832 1.20467,0.0303 1.73318,-0.53756 0.32265,-0.34658 0.85379,-1.14783 1.18041,-1.78068 0.70608,-1.35542 1.70417,-2.885 2.66962,-4.25718 0.48152,-0.73234 0.91285,-1.29414 0.95826,-1.2487 0.0454,0.0455 -0.11513,0.6133 -0.35663,1.26224 -0.70329,1.88958 -1.56609,6.10488 -1.71689,8.38832 -0.11997,2.00537 0.54736,5.72708 3.63341,5.98869 0.93829,0 1.15557,-0.0946 1.77062,-0.77049 0.38557,-0.42368 0.7011,-0.97232 0.7011,-1.21916 0,-0.73508 1.24469,-3.14643 2.53203,-4.90532 0.66189,-0.90435 1.34968,-1.8441 1.52836,-2.0881 0.31461,-0.42955 0.36045,-0.40774 1.44138,0.69002 1.37441,1.39581 2.56888,1.78943 4.20213,1.38416 1.39949,-0.34723 1.85606,-0.66905 2.37641,-1.67531 0.78304,-1.49165 1.87241,-2.87842 2.63496,-4.1044 0.21476,-0.82118 0.38078,-0.31315 0.42212,1.29206 0.0321,1.24505 0.15372,1.71029 0.6609,2.52442 1.30872,2.11224 2.0227,3.63059 5.06925,3.99245 1.12087,0 1.86993,-0.73774 2.04059,-2.01014 0.1594,-1.09108 0.99026,-2.03641 1.52247,-3.03628 l 0.49038,-0.94335 0.40273,0.61064 c 0.69293,1.05827 1.32436,2.23943 2.49042,3.17005 0.90741,0.87916 2.27788,1.2858 3.29655,0.97837 0.77409,-0.23359 1.54212,-1.2299 1.42404,-1.84756 -0.16092,-0.84186 0.62331,-2.31984 1.88223,-3.54742 0.2036,-0.19851 0.4422,-0.66063 0.53024,-1.02656 0.59369,-1.93465 2.8532,-4.51738 4.6194,-5.7416 l 0.64046,-0.40787 -0.1577,0.63492 c -0.34235,1.32523 -1.22032,3.33889 -1.79036,4.96008 -0.83139,2.59642 -2.44587,6.89715 -3.34298,9.20479 -0.0229,0.12197 -0.0638,0.32162 -0.0909,0.4436 -0.61266,3.27437 0.72346,5.59147 3.32497,7.40963 l 0,3.8e-4 c 1.00177,0.597 1.11286,0.58881 2.73685,-0.19824 0.94535,-0.46306 4.92222,-2.54946 3.0945,-4.33836 -0.50842,-0.33314 -0.5568,-0.32002 -1.01994,0.27169 -0.60141,0.76448 -1.21807,1.43798 -1.78275,2.25684 -0.95196,0.89436 -1.5133,0.15105 -0.98044,-1.29825 0.0673,-0.18295 0.24528,-0.93156 0.39543,-1.66347 0.47432,-2.21112 0.6768,-2.4174 2.10368,-5.34585 1.08248,-2.67589 2.38194,-4.24707 2.95239,-7.18603 0.0628,-0.18304 0.12414,-0.38264 0.13656,-0.44365 0.0124,-0.061 0.0849,-0.21073 0.16115,-0.33266 0.0763,-0.12203 0.11559,-0.87055 0.0874,-1.66361 -0.0372,-1.04218 -0.21822,-1.78177 -0.65329,-2.6685 -0.73418,-1.4964 -1.10257,-1.69458 -4.3872,-2.35876 -2.68343,-0.33232 -6.73714,5.57996 -8.33391,7.65604 -0.27447,0.29768 -0.49906,0.62641 -0.49906,0.73059 0,0.10418 -0.12838,0.18952 -0.28522,0.18952 -0.15685,0 -0.28522,-0.1996 -0.28522,-0.4436 0.009,-1.01284 0.91954,-2.22874 1.44899,-3.14718 1.28336,-1.3775 -0.35172,-3.42399 -3.47642,-4.35148 -0.94885,-0.28163 -1.98438,-0.16377 -2.39063,0.2724 -0.62505,0.67104 -1.78575,3.64044 -1.93938,4.96146 -0.0325,0.27931 -0.15874,0.52147 -0.28073,0.53851 -0.28131,0.0393 -0.46786,0.24125 -1.54186,1.66845 -0.9818,1.29166 -1.17307,1.48815 -1.58208,1.96574 -0.32085,0.40053 -0.33051,0.39396 -0.2024,-0.13381 0.60184,-2.40651 1.89731,-3.85287 2.03296,-6.39139 0.0731,-0.60492 -0.0397,-0.85541 -0.63388,-1.41058 -0.94174,-0.87963 -1.37925,-1.03001 -3.51454,-1.20808 -1.66249,-0.13864 -1.81619,-0.11478 -2.32789,0.36593 -0.423,0.39741 -0.54793,0.43627 -0.54793,0.16988 0,-0.49203 -1.25288,-1.65117 -2.36809,-2.19101 -0.78855,-0.38179 -1.2251,-0.44024 -2.56287,-0.34311 -3.50538,0.25446 -3.63286,0.29673 -4.66549,1.54883 -0.51802,0.62802 -1.13022,1.49123 -1.36063,1.91822 -0.23041,0.427 -0.58759,0.97597 -0.79364,1.21992 -0.80026,0.94761 -1.55247,3.97816 -1.48643,5.98868 0.046,1.6071 -2.15186,3.55728 -3.15549,5.23008 l -0.21452,0.53685 -0.0139,-0.60237 c -0.007,-0.33137 0.12173,-0.93023 0.28801,-1.33081 0.77483,-1.89569 1.12154,-4.00443 1.81046,-6.0327 0.58469,-2.1299 0.1788,-3.5897 -1.22546,-4.40804 -0.30498,-0.17764 -1.33334,-0.49345 -2.28527,-0.70181 -2.08222,-0.45563 -2.10287,-0.44635 -4.50781,2.02506 -0.86932,0.89327 -1.64512,1.624 -1.72417,1.624 -0.0791,0 -0.12084,-0.57397 -0.0925,-1.27535 0.0609,-1.50794 -0.32973,-2.51694 -1.12843,-2.91397 -0.31654,-0.15734 -1.22442,-0.37237 -2.01738,-0.47759 -0.79292,-0.10517 -1.74866,-0.24903 -2.12376,-0.31987 -0.60181,-0.11366 -0.81963,0.009 -1.85378,1.04284 -0.94709,0.9469 -3.34196,4.49943 -3.34196,4.95762 0,0.062 -0.34933,0.6317 -0.7763,1.26568 -0.70212,1.04262 -0.77631,1.09625 -0.77631,0.55977 0,-0.85432 0.60466,-3.33699 0.99498,-4.08537 0.18326,-0.35145 0.33445,-0.99982 0.33445,-1.44073 0.002,-0.67757 -0.12818,-0.89128 -0.83593,-1.38174 -1.25173,-0.85011 -4.24701,-1.88334 -5.2706,-0.58916 -0.80717,1.43206 -1.18528,2.68114 -1.29443,4.27527 -0.0978,1.42747 -0.25622,1.98009 -0.92083,3.2106 -0.69918,1.29452 -1.91111,2.71707 -2.31472,2.71707 -0.74413,0 -1.14765,-5.76622 -0.58986,-8.42851 0.28873,-1.37811 0.46496,-1.75512 1.02826,-2.19797 2.04354,-1.6063 4.65441,-6.2066 4.65441,-8.20112 0,-1.15782 -0.29134,-1.54458 -1.81602,-2.41215 -0.71495,-0.40678 -1.88966,-0.68817 -2.59994,-0.67719 z m 1.91755,4.00499 c 0.0461,-0.0114 0.0586,0.0649 0.0586,0.22384 0,0.20717 -0.20878,0.7037 -0.46405,1.1031 l -0.46405,0.72608 0.14486,-0.64742 c 0.0798,-0.35603 0.28855,-0.85218 0.46406,-1.10272 0.13461,-0.19222 0.2145,-0.29152 0.26062,-0.30288 z m 40.16545,7.38945 0.37707,0.88069 c 0.20734,0.48431 0.5329,1.2077 0.72329,1.60734 0.33794,0.70938 0.33038,0.7435 -0.31434,1.44171 -1.31475,1.42393 -3.53284,3.77942 -4.14598,4.40284 -0.75455,0.76708 -1.1222,0.82251 -0.91599,0.13826 0.94363,-2.7333 2.98488,-4.87986 3.85972,-7.59015 l 0.41623,-0.88069 z"
         id="path9720"
         inkscape:connector-curvature="0" />
    </g>
  </g>
</svg>
