<?xml version="1.0" encoding="UTF-8" standalone="no"?>
<svg
   xmlns:dc="http://purl.org/dc/elements/1.1/"
   xmlns:cc="http://creativecommons.org/ns#"
   xmlns:rdf="http://www.w3.org/1999/02/22-rdf-syntax-ns#"
   xmlns:svg="http://www.w3.org/2000/svg"
   xmlns="http://www.w3.org/2000/svg"
   xmlns:sodipodi="http://sodipodi.sourceforge.net/DTD/sodipodi-0.dtd"
   xmlns:inkscape="http://www.inkscape.org/namespaces/inkscape"
   version="1.1"
   id="svg4185"
   viewBox="0 0 600.00001 60.544999"
   height="60.544998"
   width="600"
   inkscape:version="0.91 r13725"
   sodipodi:docname="anwari-nabila-resmi-plain.svg">
  <sodipodi:namedview
     pagecolor="#ffffff"
     bordercolor="#666666"
     borderopacity="1"
     objecttolerance="10"
     gridtolerance="10"
     guidetolerance="10"
     inkscape:pageopacity="0"
     inkscape:pageshadow="2"
     inkscape:window-width="1362"
     inkscape:window-height="732"
     id="namedview7"
     showgrid="false"
     inkscape:zoom="1.1599219"
     inkscape:cx="300"
     inkscape:cy="30.272499"
     inkscape:window-x="0"
     inkscape:window-y="0"
     inkscape:window-maximized="0"
     inkscape:current-layer="svg4185" />
  <defs
     id="defs4187" />
  <metadata
     id="metadata4190">
    <rdf:RDF>
      <cc:Work
         rdf:about="">
        <dc:format>image/svg+xml</dc:format>
        <dc:type
           rdf:resource="http://purl.org/dc/dcmitype/StillImage" />
        <dc:title />
      </cc:Work>
    </rdf:RDF>
  </metadata>
  <g
     transform="translate(0,-991.81716)"
     id="layer1"
     style="fill:#555555;fill-opacity:1">
    <path
       id="path4771"
       style="font-style:normal;font-variant:normal;font-weight:normal;font-stretch:normal;font-size:26.16076279px;line-height:125%;font-family:Baskerville;-inkscape-font-specification:Baskerville;letter-spacing:2.00042939px;word-spacing:0px;fill:#555555;fill-opacity:1;stroke:none;stroke-width:1px;stroke-linecap:butt;stroke-linejoin:miter;stroke-opacity:1"
       d="m 582.83521,1007.7185 0,-1.2735 17.16479,0 0,1.2735 -0.80287,0 q -2.76851,0 -3.62675,0.4706 -0.85823,0.443 -1.16278,1.6888 -0.27684,1.2459 -0.27684,5.9247 l 0,18.4106 q 0,4.4296 0.19376,5.8139 0.22148,1.3565 1.10743,2.021 0.91359,0.6644 3.46063,0.6644 l 1.1074,0 0,1.2736 -17.16479,0 0,-1.2736 1.1074,0 q 2.40863,0 3.32222,-0.609 0.9413,-0.6091 1.19048,-1.8826 0.24916,-1.3012 0.24916,-6.0077 l 0,-18.4106 q 0,-4.485 -0.24916,-5.7862 -0.24918,-1.3012 -1.10742,-1.7996 -0.85825,-0.4983 -3.70981,-0.4983 l -0.80287,0 z m -5.99674,36.2676 -10.10508,0 q -2.68546,-1.8826 -8.22248,-9.856 -1.77184,-2.547 -3.68214,-4.8726 -1.91026,-2.3532 -2.63008,-2.8515 -0.71982,-0.526 -2.2425,-0.526 l -1.49499,0 0,8.3332 q 0,4.4296 0.19376,5.8139 0.22148,1.3565 1.10743,2.021 0.91359,0.6644 3.46063,0.6644 l 1.79954,0 0,1.2736 -17.96766,0 0,-1.2736 1.21813,0 q 2.40863,0 3.32222,-0.609 0.9413,-0.6091 1.19048,-1.8826 0.24916,-1.3012 0.24916,-6.0077 l 0,-18.4106 q 0,-4.485 -0.24916,-5.7862 -0.24918,-1.3012 -1.10742,-1.7996 -0.85825,-0.4983 -3.70981,-0.4983 l -0.63677,0 0,-1.2735 5.37092,-0.2769 q 5.37093,-0.2491 8.52704,-0.2491 5.37093,0 8.72083,0.9966 3.37757,0.9967 5.45397,3.2669 2.07637,2.2702 2.07637,5.4263 0,3.6821 -2.71313,6.2845 -2.71314,2.6024 -7.97333,3.2392 2.35325,1.1351 7.58574,8.1948 4.2635,5.7308 6.6998,7.5026 2.43629,1.7719 5.75851,1.8826 l 0,1.2736 z m -28.37727,-19.3797 q 2.07638,-0.055 4.2912,-0.166 2.2148,-0.1107 3.84824,-0.6091 1.63341,-0.4983 2.63008,-1.4396 1.02435,-0.969 1.60574,-2.5193 0.58139,-1.5504 0.58139,-3.8206 0,-3.959 -1.99335,-6.3399 -1.96564,-2.3809 -8.61007,-2.3809 -1.02435,0 -2.35323,0.1107 l 0,17.1648 z m -31.24556,5.5371 -14.25787,0 -0.96897,2.3809 q -2.15945,5.1771 -2.15945,6.7552 0,1.6888 1.1351,2.5747 1.16277,0.8582 2.96231,0.8582 l 0,1.2736 -11.15712,0 0,-1.2736 q 2.49165,-0.3876 3.70981,-1.7441 1.21815,-1.3843 2.93464,-5.7862 0.13849,-0.4153 1.32888,-3.2115 l 10.90794,-26.0517 1.07973,0 12.54136,29.8169 1.71649,3.9313 q 0.58138,1.3289 1.55036,2.104 0.99667,0.7475 2.96231,0.9413 l 0,1.2736 -14.75618,0 0,-1.2736 q 2.71314,0 3.65443,-0.3876 0.969,-0.4152 0.969,-1.6057 0,-0.6091 -1.27353,-3.6267 l -2.87924,-6.949 z m -0.47066,-1.2459 -6.64443,-16.002 -6.61675,16.002 13.26118,0 z m -43.03946,16.0021 -1.24582,0 -11.43396,-30.952 -9.99435,30.952 -1.32888,0 -9.05306,-29.2356 q -1.21813,-3.9866 -1.77184,-5.2878 -0.52601,-1.3289 -1.41193,-1.938 -0.85825,-0.6367 -2.87927,-0.7198 l 0,-1.2735 14.09175,0 0,1.2735 q -2.54704,0.166 -3.26685,0.7475 -0.71982,0.5537 -0.71982,1.5781 0,0.9136 1.16278,4.6787 l 6.6998,21.8713 9.80055,-30.1491 1.55036,0 11.0187,30.1491 5.73083,-19.9333 q 1.13509,-4.042 1.13509,-5.2879 0,-3.6544 -3.90361,-3.6544 l 0,-1.2735 10.24351,0 0,1.2735 q -2.27018,0.166 -3.3776,1.6888 -1.1074,1.495 -2.79619,7.2258 l -8.25019,28.2666 z m -51.06813,-0.055 -26.55005,-35.1879 0,26.0518 q 0,3.2391 0.30453,4.2635 0.33223,1.0243 1.82721,1.8826 1.49501,0.8582 4.48501,0.8582 l 0,1.2735 -14.0087,0 0,-1.2735 q 2.68546,-0.1938 4.09742,-0.969 1.41193,-0.8029 1.66109,-1.7165 0.27686,-0.9136 0.27686,-4.3188 l 0,-19.9057 q 0,-4.3188 -0.41529,-5.7862 -0.38758,-1.4673 -1.2735,-1.8826 -0.85825,-0.4152 -3.87592,-0.4152 l 0,-1.2736 11.07405,0 22.23118,29.374 0,-22.4527 q 0,-2.4916 -0.52601,-3.4883 -0.49834,-0.9967 -2.0764,-1.578 -1.57806,-0.5814 -3.79286,-0.5814 l 0,-1.2736 13.62109,0 0,1.2736 q -2.38091,0.1937 -3.76517,0.9136 -1.35658,0.7198 -1.74416,1.7441 -0.35991,0.9967 -0.35991,3.4053 l 0,31.0628 -1.19047,0 z m -53.31062,-14.7009 -14.25787,0 -0.96897,2.381 q -2.15945,5.1771 -2.15945,6.7551 0,1.6888 1.1351,2.5748 1.16278,0.8582 2.96232,0.8582 l 0,1.2735 -11.15713,0 0,-1.2735 q 2.49166,-0.3876 3.70981,-1.7442 1.21815,-1.3842 2.93464,-5.7862 0.13849,-0.4152 1.32888,-3.2115 l 10.90795,-26.0517 1.07972,0 12.54136,29.8169 1.71649,3.9313 q 0.58139,1.3289 1.55036,2.1041 0.99667,0.7475 2.96232,0.9413 l 0,1.2735 -14.75619,0 0,-1.2735 q 2.71314,0 3.65444,-0.3876 0.96899,-0.4153 0.96899,-1.6057 0,-0.6091 -1.27353,-3.6268 l -2.87924,-6.949 z m -0.47066,-1.2458 -6.64442,-16.002 -6.61675,16.002 13.26117,0 z m -153.4651,1.2458 -14.25785,0 -0.96897,2.381 q -2.15945,5.1771 -2.15945,6.7551 0,1.6888 1.1351,2.5748 1.16278,0.8582 2.96232,0.8582 l 0,1.2735 -11.15713,0 0,-1.2735 q 2.49166,-0.3876 3.70981,-1.7442 1.21815,-1.3842 2.93462,-5.7862 0.13849,-0.4152 1.3289,-3.2115 l 10.90795,-26.0517 1.07972,0 12.54136,29.8169 1.71649,3.9313 q 0.58139,1.3289 1.55036,2.1041 0.99667,0.7475 2.96232,0.9413 l 0,1.2735 -14.75619,0 0,-1.2735 q 2.71314,0 3.65444,-0.3876 0.96899,-0.4153 0.96899,-1.6057 0,-0.6091 -1.27352,-3.6268 l -2.87927,-6.949 z m -0.47064,-1.2458 -6.64444,-16.002 -6.61675,16.002 13.26119,0 z m -28.78158,4.042 -0.27686,11.0464 -31.89329,0 0,-1.2735 1.1074,0 q 2.4086,0 3.32222,-0.6091 0.9413,-0.609 1.19046,-1.8826 0.27685,-1.3012 0.27685,-6.0077 l 0,-18.4106 q 0,-4.485 -0.27685,-5.7862 -0.24916,-1.3012 -1.1074,-1.7995 -0.83055,-0.4983 -3.68214,-0.4983 l -0.83054,0 0,-1.2736 18.02303,0 0,1.2736 -1.66111,0 q -2.76851,0 -3.62676,0.4706 -0.85824,0.443 -1.16277,1.6888 -0.27686,1.2458 -0.27686,5.9246 l 0,19.6565 q 0,4.0697 0.2215,5.0941 0.22148,1.0243 1.19045,1.6057 0.99668,0.5537 4.23583,0.5537 l 2.85156,0 q 3.46065,0 5.12177,-0.6091 1.68878,-0.609 3.18379,-2.6578 1.52269,-2.0487 2.76852,-6.506 l 1.3012,0 z m -56.68824,-25.2211 0,-1.2736 17.16479,0 0,1.2736 -0.80287,0 q -2.76851,0 -3.62673,0.4706 -0.85825,0.443 -1.16278,1.6888 -0.27685,1.2458 -0.27685,5.9246 l 0,18.4106 q 0,4.4297 0.19375,5.8139 0.22149,1.3566 1.10743,2.021 0.9136,0.6645 3.46063,0.6645 l 1.1074,0 0,1.2735 -17.16479,0 0,-1.2735 1.10742,0 q 2.40861,0 3.3222,-0.6091 0.9413,-0.609 1.19048,-1.8826 0.24916,-1.3012 0.24916,-6.0077 l 0,-18.4106 q 0,-4.485 -0.24916,-5.7862 -0.24918,-1.3012 -1.10742,-1.7995 -0.85822,-0.4983 -3.70981,-0.4983 l -0.80287,0 z m -20.94668,16.0574 q 6.39527,0.4706 9.49599,3.1838 3.10074,2.7131 3.10074,6.7828 0,3.5437 -2.10407,6.1185 -2.10407,2.547 -5.3986,3.3499 -3.26685,0.7751 -8.77619,0.7751 l -14.728511,0 0,-1.2735 1.43963,0 q 2.40861,0 3.32223,-0.609 0.94129,-0.6091 1.19045,-1.8826 0.24916,-1.3012 0.24916,-6.0077 l 0,-18.2722 q 0,-4.5681 -0.27684,-5.8969 -0.24918,-1.329 -1.10742,-1.8273 -0.83055,-0.4983 -3.68211,-0.4983 l -0.71982,0 0,-1.2735 6.17379,-0.166 7.032041,-0.2215 q 15.39292,0 15.39292,8.8592 0,3.6545 -2.65776,5.8693 -2.63009,2.2148 -7.94563,2.99 z m -6.78288,-0.526 q 0.69214,0.028 1.16278,0.028 5.97998,0 8.16713,-1.8826 2.18713,-1.8826 2.18713,-6.0908 0,-2.9346 -0.85825,-4.5403 -0.85824,-1.6058 -2.57473,-2.464 -1.71647,-0.8859 -5.86923,-0.8859 -1.07973,0 -2.21483,0.083 l 0,15.7528 z m 0,1.3565 0,8.3609 q 0,5.3433 0.19376,6.7829 0.19376,1.4396 1.02435,2.1871 0.85824,0.7475 3.3499,0.7475 4.42963,0 6.64443,-2.2701 2.21482,-2.2702 2.21482,-6.8106 0,-4.6511 -2.51935,-6.8382 -2.49166,-2.2148 -8.80388,-2.2148 -0.99667,0 -2.10407,0.055 z m -31.356311,5.5371 -14.25785,0 -0.96898,2.3809 q -2.15944,5.1771 -2.15944,6.7552 0,1.6888 1.1351,2.5747 1.16277,0.8582 2.96231,0.8582 l 0,1.2735 -11.15712,0 0,-1.2735 q 2.49165,-0.3876 3.70981,-1.7441 1.21815,-1.3843 2.93461,-5.7862 0.1385,-0.4153 1.32891,-3.2115 l 10.90794,-26.0517 1.07973,0 12.54136,29.8169 1.71648,3.9312 q 0.58139,1.3289 1.55037,2.1041 0.99667,0.7475 2.96231,0.9413 l 0,1.2735 -14.75618,0 0,-1.2735 q 2.71314,0 3.65443,-0.3876 0.969,-0.4153 0.969,-1.6057 0,-0.6091 -1.27353,-3.6268 l -2.87926,-6.9489 z m -0.47064,-1.2459 -6.64443,-16.002 -6.61677,16.002 13.2612,0 z m -35.95205,15.9467 -26.5500505,-35.1879 0,26.0518 q 0,3.2392 0.30453,4.2635 0.33221,1.0243 1.82722,1.8826 1.4950105,0.8582 4.4850005,0.8582 l 0,1.2735 -14.0086875,0 0,-1.2735 q 2.68546,-0.1937 4.097387,-0.969 1.41196,-0.8028 1.66112,-1.7164 0.27685,-0.9136 0.27685,-4.3189 l 0,-19.9056 q 0,-4.3189 -0.41528,-5.7862 -0.38759,-1.4674 -1.27351,-1.8826 -0.858237,-0.4153 -3.875927,-0.4153 l 0,-1.2735 11.0740675,0 22.23118,29.3739 0,-22.4526 q 0,-2.4917 -0.52601,-3.4884 -0.49834,-0.9966 -2.0764,-1.578 -1.57806,-0.5814 -3.79286,-0.5814 l 0,-1.2735 13.62108,0 0,1.2735 q -2.380931,0.1938 -3.76518,0.9136 -1.35656,0.7198 -1.74417,1.7442 -0.3599,0.9966 -0.3599,3.4052 l 0,31.0628 -1.19046,0 z m 268.284371,-11.2319 q -3.29225,5.4202 -9.79642,5.4202 -3.81417,0 -6.34358,-1.8871 -2.52939,-1.887 -2.52939,-6.1829 0,-4.7778 3.41266,-7.9095 3.41271,-3.1316 10.23807,-5.661 1.88704,-0.6825 6.22314,-2.2082 4.37629,-1.5658 8.35105,-3.0514 3.97477,-1.5256 6.70494,-2.8505 4.05507,-1.9674 6.26328,-4.0953 2.20821,-2.168 2.20821,-5.0588 0,-1.96729 -1.08403,-3.57324 -1.04388,-1.64614 -2.93089,-2.56957 -1.84688,-0.92342 -4.09525,-0.92342 -2.16805,0 -2.64983,0.72268 0.84314,0.48177 1.28477,1.32491 0.44164,0.84314 0.44164,1.80671 0,1.24464 -0.76281,2.32868 -0.76286,1.08405 -2.00748,1.72645 -1.24463,0.6424 -2.64987,0.6424 -1.64611,0 -2.68999,-0.9235 -1.00374,-0.92344 -1.00374,-2.52939 0,-1.68627 1.1242,-3.01121 1.16434,-1.36508 2.97103,-2.16805 2.73015,-1.16432 6.02238,-1.16432 4.7376,0 7.50791,2.32865 2.77032,2.32866 2.77029,7.06632 3e-5,4.1755 -2.40895,7.3874 -2.36879,3.2119 -7.62833,5.8618 -3.69375,1.8067 -13.12882,5.2596 5.98224,5.0186 5.98224,12.3258 0,5.4603 -3.29223,10.1176 -3.25211,4.6573 -9.47522,7.4276 -6.18307,2.7702 -14.61434,2.7703 -7.22687,0 -12.56674,-2.0878 -5.33984,-2.0877 -8.23059,-5.9822 -2.89073,-3.8945 -2.89073,-9.2745 0,-4.8179 2.28852,-9.0336 2.28849,-4.2156 6.30343,-7.2268 4.01491,-3.0112 9.07371,-4.4164 -2.77029,-1.4855 -4.25582,-3.9347 -1.48552,-2.4892 -1.4855,-5.2595 0,-3.5733 2.40893,-6.22315 2.44912,-2.64987 6.22314,-4.05509 3.77405,-1.40523 7.62838,-1.40523 3.05133,0 5.33982,0.92345 2.28853,0.88328 3.53315,2.48928 1.24464,1.60595 1.24464,3.73384 0,2.0075 -1.04392,3.4127 -1.00372,1.3651 -2.60969,2.0877 -1.60594,0.6826 -3.33235,0.6826 l 0.1606,-1.4855 q 2.28851,0 3.69377,-1.2045 1.40521,-1.2045 1.40521,-3.2922 0,-2.73019 -2.24837,-4.3763 -2.24835,-1.64614 -5.70118,-1.64614 -3.33241,2e-5 -5.98226,1.60598 -2.64985,1.56581 -4.13534,4.37626 -1.48554,2.7703 -1.48554,6.2633 0,3.8142 1.80671,6.8254 2.93089,-0.4819 5.17924,-0.4818 2.97103,0 2.97103,1.7264 0,0.8833 -0.76281,1.3249 -0.76284,0.4015 -1.80672,0.4015 -2.04761,0 -5.66104,-1.8067 -3.73388,1.084 -6.58447,3.493 -2.85062,2.4089 -4.45657,5.7012 -1.56584,3.2922 -1.56584,6.9859 0,4.8179 2.64986,8.2306 2.64985,3.3726 7.30717,5.099 4.65733,1.7264 10.67969,1.7264 6.38373,0 11.52286,-1.887 5.17924,-1.887 8.15029,-5.38 2.97105,-3.493 2.97105,-8.0298 0,-3.0112 -1.40521,-5.902 -1.36508,-2.8908 -4.13539,-4.8982 -8.43135,3.0915 -10.43881,3.8945 -3.69372,1.4454 -6.183,3.3324 -2.44909,1.8468 -2.44909,4.8179 0,2.5294 2.00746,4.0149 2.04763,1.4855 4.97852,1.4855 3.25209,0 5.2997,-1.606 2.04757,-1.6059 3.09147,-3.252 l 1.08404,0.7628 z" />
  </g>
</svg>
