<?xml version="1.0" encoding="UTF-8" standalone="no"?>
<!-- Created with Inkscape (http://www.inkscape.org/) -->

<svg
   xmlns:dc="http://purl.org/dc/elements/1.1/"
   xmlns:cc="http://creativecommons.org/ns#"
   xmlns:rdf="http://www.w3.org/1999/02/22-rdf-syntax-ns#"
   xmlns:svg="http://www.w3.org/2000/svg"
   xmlns="http://www.w3.org/2000/svg"
   xmlns:sodipodi="http://sodipodi.sourceforge.net/DTD/sodipodi-0.dtd"
   xmlns:inkscape="http://www.inkscape.org/namespaces/inkscape"
   width="350"
   height="350"
   viewBox="0 0 350 350.00001"
   id="svg4930"
   version="1.1"
   inkscape:version="0.91 r13725"
   sodipodi:docname="anwari-nabila-logo.svg">
  <defs
     id="defs4932" />
  <sodipodi:namedview
     id="base"
     pagecolor="#ffffff"
     bordercolor="#666666"
     borderopacity="1.0"
     inkscape:pageopacity="0.0"
     inkscape:pageshadow="2"
     inkscape:zoom="0.81210937"
     inkscape:cx="398.06424"
     inkscape:cy="322.9822"
     inkscape:document-units="px"
     inkscape:current-layer="layer1"
     showgrid="false"
     units="px"
     inkscape:window-width="1366"
     inkscape:window-height="720"
     inkscape:window-x="0"
     inkscape:window-y="0"
     inkscape:window-maximized="1" />
  <metadata
     id="metadata4935">
    <rdf:RDF>
      <cc:Work
         rdf:about="">
        <dc:format>image/svg+xml</dc:format>
        <dc:type
           rdf:resource="http://purl.org/dc/dcmitype/StillImage" />
        <dc:title></dc:title>
      </cc:Work>
    </rdf:RDF>
  </metadata>
  <g
     inkscape:label="Layer 1"
     inkscape:groupmode="layer"
     id="layer1"
     transform="translate(0,-702.36216)">
    <g
       style="font-style:normal;font-variant:normal;font-weight:normal;font-stretch:normal;font-size:149.71195984px;line-height:125%;font-family:Baskerville;-inkscape-font-specification:Baskerville;letter-spacing:0px;word-spacing:0px;display:inline;fill:#ffffff;fill-opacity:1;stroke:none;stroke-width:1px;stroke-linecap:butt;stroke-linejoin:miter;stroke-opacity:1"
       id="text4634" />
    <path
       style="display:inline;opacity:1;fill:#ffffff;fill-opacity:1;stroke:none;stroke-width:2;stroke-linecap:round;stroke-miterlimit:4;stroke-dasharray:none;stroke-dashoffset:0;stroke-opacity:1"
       d="m 175,702.36214 a 175,175 0 0 0 -175,175 175,175 0 0 0 175,175.00006 175,175 0 0 0 175,-175.00006 175,175 0 0 0 -175,-175 z m 0,10.95321 c 90.57768,0 164.04875,73.4691 164.04875,164.04679 0,90.57768 -73.47107,164.04876 -164.04875,164.04876 -90.57768,0 -164.04875,-73.47108 -164.04875,-164.04876 0,-90.57769 73.47107,-164.04679 164.04875,-164.04679 z m 0,4.02299 c -88.40349,0 -160.02576,71.6203 -160.02576,160.0238 0,88.40349 71.62227,160.02576 160.02576,160.02576 88.40349,0 160.02576,-71.62227 160.02576,-160.02576 0,-88.4035 -71.62227,-160.0238 -160.02576,-160.0238 z m 66.452,113.02673 2.86794,0 33.30555,79.18294 4.55926,10.44052 c 1.02931,2.35268 2.40178,4.2142 4.11728,5.58661 1.76452,1.32339 4.38523,2.15751 7.86526,2.50061 l 0,3.38065 -39.18682,0 0,-3.38065 c 4.80341,0 8.03936,-0.34311 9.70585,-1.02931 1.71551,-0.73522 2.5733,-2.15699 2.5733,-4.26461 0,-1.07832 -1.12795,-4.28864 -3.38261,-9.6312 l -7.64722,-18.45507 -37.86284,0 -2.57329,6.32324 c -3.82313,9.16571 -5.73395,15.14658 -5.73394,17.94041 0,2.98987 1.00372,5.26748 3.01331,6.83594 2.0586,1.51944 4.68128,2.2806 7.86722,2.2806 l 0,3.38065 -29.62829,0 0,-3.38065 c 4.4113,-0.6862 7.69458,-2.23022 9.85121,-4.63194 2.15664,-2.45072 4.75369,-7.57381 7.79258,-15.3671 0.24507,-0.73522 1.42232,-3.57678 3.52993,-8.52725 L 241.452,830.36507 Z m -185.41107,1.39665 29.40829,0 59.03657,78.0063 0,-59.62588 c 0,-4.4113 -0.46538,-7.49936 -1.39666,-9.26387 -0.88226,-1.76452 -2.7201,-3.16066 -5.51393,-4.18996 -2.79382,-1.0293 -6.15006,-1.54398 -10.07122,-1.54398 l 0,-3.38261 36.17154,0 0,3.38261 c -4.21524,0.3431 -7.54781,1.1516 -9.99854,2.42597 -2.40171,1.27438 -3.94573,2.8184 -4.63193,4.63194 -0.6372,1.76451 -0.95664,4.77764 -0.95664,9.0419 l 0,82.49287 -3.16064,0 -70.50642,-93.44609 0,69.18244 c 0,5.73469 0.2682,9.50898 0.80736,11.32251 0.58817,1.81354 2.20516,3.47983 4.85194,4.99928 2.64679,1.51944 6.61826,2.2806 11.91182,2.2806 l 0,3.38065 -37.20283,0 0,-3.38065 c 4.75441,-0.3431 8.38277,-1.20088 10.88251,-2.57329 2.49973,-1.42141 3.96883,-2.94178 4.40996,-4.55926 0.49015,-1.61748 0.73663,-5.44106 0.73663,-11.46984 l 0,-52.86065 c 0,-7.64625 -0.36875,-12.76935 -1.10396,-15.36711 -0.6862,-2.59777 -1.81416,-4.26406 -3.38262,-4.99927 -1.51944,-0.73522 -4.94865,-1.102 -10.29123,-1.102 l 0,-3.38261 z m 181.29379,17.13109 -17.57112,42.49479 35.21687,0 -17.64575,-42.49479 z m -35.47813,12.05325 c 2.27339,0 4.07457,0.55816 5.40393,1.6756 1.32935,1.11741 1.99383,2.81426 1.99381,5.08766 2e-5,2.00365 -0.57855,3.77621 -1.73452,5.3175 -1.13668,1.54127 -2.9665,2.94786 -5.49036,4.21942 -1.77247,0.86697 -4.92297,2.12842 -9.45048,3.7853 2.87064,2.40824 4.30586,5.36459 4.30586,8.87101 0,2.62017 -0.7892,5.04895 -2.36901,7.2838 -1.56056,2.23487 -3.834,4.01565 -6.82022,5.345 -2.967,1.32928 -6.47327,1.99376 -10.5191,1.99382 -3.46789,0 -6.48345,-0.50089 -9.04583,-1.50273 -2.56239,-1.00182 -4.53734,-2.43707 -5.92448,-4.30585 -1.38715,-1.86881 -2.08024,-4.09321 -2.08024,-6.67487 0,-2.31192 0.54796,-4.47907 1.64612,-6.502 1.09816,-2.02293 2.61104,-3.75664 4.53765,-5.20159 1.92659,-1.44495 4.10395,-2.50598 6.53146,-3.18029 -1.32935,-0.71282 -2.35154,-1.65538 -3.06439,-2.83062 -0.71283,-1.19449 -1.06861,-2.45792 -1.0686,-3.78727 0,-1.71466 0.57856,-3.20716 1.73452,-4.47872 1.17522,-1.27156 2.6677,-2.24471 4.47872,-2.91903 1.811,-0.67431 3.64082,-1.01164 5.49035,-1.01164 1.46421,0 2.74608,0.22279 3.84423,0.66592 1.09818,0.42385 1.9466,1.02084 2.54384,1.79148 0.59725,0.77064 0.89575,1.66615 0.89575,2.68724 0,0.96331 -0.25142,1.78309 -0.75235,2.4574 -0.48165,0.65504 -1.10729,1.15596 -1.87792,1.50273 -0.77064,0.32755 -1.57005,0.4911 -2.39847,0.49109 l 0.11589,-1.07057 c 1.09817,0 1.98345,-0.28831 2.65777,-0.86628 0.67431,-0.57798 1.01164,-1.36717 1.01164,-2.36901 0,-1.31009 -0.53972,-2.36092 -1.61863,-3.15081 -1.07889,-0.78992 -2.44664,-1.18451 -4.10352,-1.18451 -1.59908,2e-5 -3.03431,0.3844 -4.30585,1.15504 -1.27156,0.75137 -2.26315,1.8022 -2.976,3.15081 -0.71284,1.32935 -1.0686,2.83204 -1.0686,4.50818 0,1.83028 0.43343,3.46791 1.3004,4.91285 1.4064,-0.2312 2.64748,-0.34771 3.72637,-0.34769 1.42569,0 2.13917,0.41499 2.13917,1.24344 0,0.42385 -0.18396,0.74078 -0.55001,0.9527 -0.36606,0.19265 -0.7995,0.29071 -1.3004,0.29072 -0.98257,0 -2.34011,-0.43343 -4.07406,-1.30039 -1.79174,0.52017 -3.3721,1.35645 -4.73998,2.5124 -1.36789,1.15596 -2.43716,2.52567 -3.20779,4.10549 -0.75137,1.5798 -1.12557,3.2543 -1.12557,5.02677 0,2.31192 0.63585,4.28687 1.90739,5.92448 1.27157,1.61835 3.02371,2.84294 5.25856,3.67137 2.23485,0.82844 4.7966,1.24147 7.6865,1.24147 3.0633,0 5.82939,-0.45186 8.29546,-1.35737 2.4853,-0.90548 4.43986,-2.19755 5.86554,-3.87369 1.42569,-1.67615 2.13918,-3.60207 2.13918,-5.77913 0,-1.44494 -0.33733,-2.85976 -1.01164,-4.24691 -0.65505,-1.38716 -1.64664,-2.56272 -2.97599,-3.52601 -4.04588,1.48348 -6.55035,2.41781 -7.51364,2.80312 -1.77247,0.69359 -3.25671,1.49298 -4.45122,2.39847 -1.17523,0.88624 -1.76202,2.0414 -1.76202,3.46708 0,1.21376 0.48051,2.1767 1.4438,2.88956 0.98258,0.71284 2.17656,1.07057 3.58298,1.07057 1.56053,0 2.83219,-0.38636 3.81476,-1.157 0.98256,-0.77064 1.72469,-1.54965 2.22561,-2.33954 l 0.77985,0.54805 c -1.57983,2.60091 -3.92897,3.90121 -7.05006,3.90121 -1.83027,0 -3.35334,-0.45188 -4.5671,-1.35737 -1.21376,-0.90553 -1.82096,-2.38978 -1.82096,-4.45123 0,-2.29265 0.81979,-4.18993 2.4574,-5.69268 1.63761,-1.50274 4.09306,-2.8603 7.36828,-4.07406 0.90552,-0.32752 2.39996,-0.85901 4.48068,-1.59112 2.09999,-0.75137 4.10358,-1.48332 6.01091,-2.19615 1.90734,-0.7321 3.51631,-1.41499 4.82641,-2.05078 1.94586,-0.94403 3.44854,-1.92739 4.50818,-2.94849 1.05963,-1.04037 1.58916,-2.25279 1.58916,-3.63994 0,-0.94402 -0.25966,-1.80266 -0.77985,-2.5733 -0.50092,-0.7899 -1.20421,-1.40534 -2.10971,-1.84845 -0.88624,-0.44311 -1.8696,-0.66591 -2.94849,-0.66592 -1.04037,0 -1.6762,0.17378 -1.90738,0.52056 0.40458,0.23119 0.71329,0.55008 0.92521,0.95467 0.21192,0.40458 0.31822,0.83801 0.31823,1.3004 0,0.59726 -0.18399,1.15543 -0.55003,1.6756 -0.36606,0.52017 -0.84655,0.93319 -1.4438,1.24146 -0.59725,0.30825 -1.23307,0.46359 -1.90738,0.46359 -0.7899,0 -1.43593,-0.22279 -1.93684,-0.66591 -0.48166,-0.44314 -0.72289,-1.04836 -0.72289,-1.81899 0,-0.80918 0.26985,-1.53287 0.80931,-2.16864 0.55871,-0.65505 1.27222,-1.17438 2.13918,-1.5597 1.31009,-0.55872 2.75551,-0.83878 4.33532,-0.83878 z"
       id="circle4628"
       inkscape:connector-curvature="0" />
  </g>
</svg>
