<?xml version="1.0" encoding="UTF-8" standalone="no"?>
<!-- Created with Inkscape (http://www.inkscape.org/) -->

<svg
   xmlns:dc="http://purl.org/dc/elements/1.1/"
   xmlns:cc="http://creativecommons.org/ns#"
   xmlns:rdf="http://www.w3.org/1999/02/22-rdf-syntax-ns#"
   xmlns:svg="http://www.w3.org/2000/svg"
   xmlns="http://www.w3.org/2000/svg"
   xmlns:sodipodi="http://sodipodi.sourceforge.net/DTD/sodipodi-0.dtd"
   xmlns:inkscape="http://www.inkscape.org/namespaces/inkscape"
   width="500"
   height="292.87701"
   viewBox="0 0 500.00001 292.87702"
   id="svg5435"
   version="1.1"
   inkscape:version="0.91 r13725"
   sodipodi:docname="nabila-anwari-full.svg">
  <defs
     id="defs5437" />
  <sodipodi:namedview
     id="base"
     pagecolor="#ffffff"
     bordercolor="#666666"
     borderopacity="1.0"
     inkscape:pageopacity="0.0"
     inkscape:pageshadow="2"
     inkscape:zoom="1.6407087"
     inkscape:cx="155.95324"
     inkscape:cy="134.27054"
     inkscape:document-units="px"
     inkscape:current-layer="layer1"
     showgrid="false"
     inkscape:window-width="1366"
     inkscape:window-height="720"
     inkscape:window-x="0"
     inkscape:window-y="0"
     inkscape:window-maximized="1"
     units="px" />
  <metadata
     id="metadata5440">
    <rdf:RDF>
      <cc:Work
         rdf:about="">
        <dc:format>image/svg+xml</dc:format>
        <dc:type
           rdf:resource="http://purl.org/dc/dcmitype/StillImage" />
        <dc:title />
      </cc:Work>
    </rdf:RDF>
  </metadata>
  <g
     inkscape:label="Layer 1"
     inkscape:groupmode="layer"
     id="layer1"
     transform="translate(0,-759.48516)">
    <path
       style="display:inline;fill:#ff0000"
       d="m 816.96447,645.0171 c -0.0691,0.003 -0.1228,0.0133 -0.15852,0.0333 -0.26364,0.14892 -1.18857,1.8059 -2.05595,3.68221 -1.51413,3.27518 -5.35889,10.35363 -6.29728,11.59336 -0.84409,1.11505 -1.41498,0.81911 -1.34222,-0.69609 0.0763,-1.58715 -0.57293,-2.17646 -1.40073,-1.27097 -0.67434,0.7378 -0.47628,2.10964 0.44809,3.10489 0.40072,0.43144 0.65813,1.04192 0.57199,1.35652 -0.219,0.80003 -3.94984,4.3354 -6.07726,5.75892 -2.32901,1.55843 -3.06303,1.17703 -3.47554,-1.80516 -0.53472,-3.86556 1.65237,-7.47795 4.79032,-7.91201 0.72681,-0.10056 1.09226,-0.36949 1.03772,-0.76368 -0.11219,-0.81101 -3.94451,-0.30357 -5.73607,0.75955 -2.46409,1.46213 -4.30088,5.40538 -3.66257,7.8634 0.94494,3.63892 5.78021,6.26337 9.34292,5.07121 1.87573,-0.62763 5.68475,-3.98766 7.91317,-6.98099 1.7376,-2.33396 1.95602,-2.48949 3.86156,-2.75307 l 2.01958,-0.27936 0.27504,1.92569 c 0.45471,3.1794 2.56174,5.85671 4.90333,6.23118 1.22547,0.196 3.33967,-1.8125 3.50486,-3.32952 0.0627,-0.57603 0.24424,-1.58506 0.40363,-2.24243 l 0.29009,-1.1948 0.82489,1.80685 c 1.00845,2.20823 3.49595,4.00347 5.21705,3.7654 1.241,-0.17169 1.331,-0.37553 1.4154,-3.20521 0.072,-2.42686 1.8003,-6.33487 2.8661,-6.48229 0.4004,-0.0555 0.4504,0.40027 0.2343,2.13804 -1.0446,8.40292 -0.5318,11.32169 2.3197,13.20247 0.8657,0.57103 1.8214,1.00447 2.1235,0.96267 1.0509,-0.14537 1.9883,-1.73588 2.3877,-4.05106 0.221,-1.28117 0.6326,-3.17979 0.915,-4.2188 l 0.5139,-1.88868 1.6437,1.457 c 1.6959,1.50364 3.9951,2.23754 5.1007,1.628 0.3468,-0.19123 0.7228,-1.07737 0.8354,-1.9695 0.2651,-2.10045 0.7815,-2.48885 1.5162,-1.13992 1.3936,2.55899 4.7477,4.02509 6.7284,2.94104 0.5589,-0.30589 1.009,-0.60924 1.0001,-0.6737 -0.01,-0.0645 0.2108,-1.16617 0.4881,-2.4487 0.2774,-1.28255 0.4382,-2.80974 0.3575,-3.39315 -0.1847,-1.33519 0.2885,-3.83385 0.8156,-4.30758 0.6723,-0.60431 0.8891,-0.48668 1.3052,0.70928 0.5257,1.51067 3.1056,3.71256 4.9091,4.1891 1.5172,0.40088 2.7396,0.0412 3.7221,-1.09381 0.5514,-0.63729 0.6248,-0.48199 0.9573,2.02914 0.2762,2.08619 0.58,2.94299 1.3052,3.67993 1.1239,1.14207 2.7238,1.54981 4.0158,1.02308 1.6684,-0.68026 4.141,-4.33593 5.1229,-7.57367 0.8432,-2.78017 1.0327,-3.06666 2.1298,-3.21843 0.9615,-0.133 1.1793,-0.0171 1.0798,0.57411 -1.2685,7.53814 -0.6667,10.11908 2.9099,12.4781 1.2519,0.82576 1.968,1.02143 2.9111,0.79558 1.1513,-0.27571 1.3816,-0.66856 2.8926,-4.94775 0.9028,-2.55675 1.7759,-4.81697 1.9408,-5.02278 0.1648,-0.20581 0.3631,1.03089 0.4407,2.7482 0.1795,3.9751 1.1126,5.44131 4.2893,6.74243 1.8597,0.76171 2.8108,0.18067 3.5767,-2.18559 1.153,-3.5619 2.9237,-6.84292 4.542,-8.41705 1.2532,-1.21905 1.7381,-1.44511 2.9728,-1.38582 1.1233,0.0541 1.4556,-0.0655 1.3953,-0.50146 -0.1344,-0.97154 -1.1211,-1.42027 -2.6557,-1.208 -1.8929,0.26185 -3.8409,2.40805 -5.6496,6.22379 -1.938,4.08854 -2.3299,4.80208 -2.6618,4.84798 -0.4995,0.0692 -0.6132,-3.47707 -0.24,-7.47295 0.2462,-2.63459 0.2068,-3.89457 -0.1298,-4.14934 -0.2658,-0.20122 -1.4249,-0.32642 -2.5748,-0.2785 -2.632,0.10972 -2.7927,0.29445 -5.8955,6.78104 -1.3209,2.76132 -2.6085,5.04975 -2.8616,5.08477 -0.7047,0.0975 -1.0348,-5.85876 -0.4737,-8.54929 l 0.4739,-2.27152 -1.3007,-0.77532 c -0.7487,-0.44619 -1.8361,-0.69588 -2.5618,-0.58793 -0.6935,0.10316 -1.8107,0.0501 -2.4832,-0.11837 -1.0042,-0.25153 -1.2033,-0.48626 -1.113,-1.31561 0.1544,-1.41752 -0.3272,-2.10246 -1.737,-2.47038 -2.6787,-0.69895 -3.6047,1.81913 -1.3883,3.77475 l 1.1286,0.99614 -0.9805,2.87048 c -1.0322,3.02302 -2.5014,5.68899 -3.1872,5.78384 -0.5856,0.081 -0.5312,-3.65785 0.1084,-7.43554 0.6274,-3.70629 0.4062,-4.07786 -2.4182,-4.06211 -1.8311,0.0104 -1.9944,-0.0834 -2.7585,-1.57732 -0.9222,-1.80321 -3.1951,-3.14559 -4.9215,-2.90678 -2.3345,0.32293 -3.4273,1.26737 -4.3071,3.7231 -1.1662,3.25489 -2.0093,3.29322 -2.6841,0.12179 -0.6708,-3.15256 -1.7092,-4.06453 -3.6498,-3.20541 -1.5921,0.70478 -1.8969,1.26979 -1.6557,3.0737 0.1414,1.05811 0.6,1.68272 2.0297,2.76497 2.1089,1.59631 2.334,2.36108 1.6155,5.49096 -1.1596,5.05069 -2.1623,5.37212 -2.7929,0.89422 -0.3931,-2.79114 -0.9431,-3.29481 -3.2506,-2.97561 -2.0256,0.2802 -2.4775,0.77425 -3.3089,3.61973 -0.4398,1.50502 -0.9894,2.76274 -1.2219,2.79489 -0.8329,0.11522 -1.0792,-6.3537 -0.3939,-10.34883 0.1092,-0.63676 -0.2609,-0.91153 -1.8374,-1.36319 -1.0859,-0.31107 -2.1405,-0.42761 -2.3436,-0.25959 -0.7401,0.61204 -1.1924,2.71125 -1.2614,5.85414 -0.039,1.76759 -0.2216,3.23466 -0.4057,3.26015 -0.1841,0.0255 -0.8076,1.51876 -1.3859,3.319 -0.5784,1.80024 -1.156,3.19448 -1.2833,3.09809 -0.1273,-0.0964 -0.024,-2.30203 0.2296,-4.90154 0.3918,-4.01603 0.3607,-4.94718 -0.2083,-6.19269 -0.7853,-1.71874 -1.7235,-2.15974 -3.9392,-1.85325 -1.4126,0.19542 -1.79,0.48776 -3.0118,2.33514 -0.7681,1.16149 -1.3765,2.26039 -1.3513,2.44218 0.025,0.18179 -0.3177,1.06585 -0.7618,1.96495 l -0.8073,1.63536 -0.4268,-3.08521 c -0.2799,-2.02341 -0.2637,-3.59782 0.046,-4.57422 0.5761,-1.8139 0.2324,-2.52627 -1.51959,-3.14562 -1.30847,-0.46253 -1.36651,-0.44094 -2.36063,0.87239 -0.56045,0.74034 -1.07106,1.88865 -1.13516,2.55195 -0.0641,0.6633 -0.31527,1.51287 -0.55838,1.88838 -0.24313,0.37549 -1.04557,2.49548 -1.78291,4.71025 -0.73729,2.2148 -1.53406,3.94104 -1.77058,3.83653 -0.65489,-0.2894 -0.76734,-5.3259 -0.23961,-10.71013 0.59217,-6.04013 0.83405,-8.96059 0.77719,-9.3715 -0.0755,-0.54592 -4.60323,-2.38437 -5.63928,-2.34641 z m -0.35499,10.5792 c 0.19425,-0.0268 0.17189,2.445 -0.0349,3.82894 -0.11588,0.77567 -1.08968,1.09145 -2.0347,0.66017 -0.41299,-0.18849 -0.24216,-0.80073 0.65885,-2.35849 0.6694,-1.15726 1.30408,-2.11588 1.41066,-2.13062 z m 43.27379,-4.53902 c 0.3205,-0.0443 0.8115,0.47397 1.0912,1.1523 l 0,0 c 0.28,0.67826 0.4172,1.65234 0.3043,2.16469 -0.1852,0.84087 -0.2671,0.87533 -0.8366,0.35473 -0.8923,-0.81572 -1.3105,-3.56776 -0.558,-3.67185 z m 11.5222,-0.47391 c 0.2628,-0.009 0.5551,0.30739 0.9025,0.92568 1.3187,2.34706 1.5638,3.92094 0.8296,5.3267 -0.385,0.73729 -1.1883,1.80078 -1.7846,2.36323 -0.9467,0.89307 -1.126,0.94597 -1.4174,0.41731 -0.4805,-0.87141 -0.3896,-2.87918 0.28,-6.15929 0.3955,-1.93796 0.7521,-2.85826 1.1899,-2.87363 z m 31.6626,-3.17833 c -0.3742,0.0349 -0.708,0.14626 -0.9547,0.35411 -0.8995,0.75794 -0.6955,2.07006 0.3781,2.42983 1.4022,0.46986 3.4487,0.16742 3.9113,-0.57816 0.6665,-1.07428 -1.7131,-2.3572 -3.3347,-2.20577 z"
       id="path9718"
       inkscape:connector-curvature="0" />
    <path
       style="display:inline;fill:#ff0000"
       d="m 687.86642,636.70906 c -0.21065,0.01 -0.44134,0.0239 -0.69551,0.0422 -1.33378,0.0966 -2.41807,0.3319 -2.40996,0.52325 0.008,0.19131 -0.24471,0.3594 -0.5614,0.37283 -1.01096,0.0429 -4.15516,4.31109 -5.97424,8.10995 -0.96875,2.02298 -1.94798,3.63035 -2.1759,3.57146 -0.92554,-0.23911 -1.74578,-2.54361 -1.85886,-5.21134 -0.0991,-2.33773 -0.22257,-2.7573 -0.81705,-2.7321 -0.47551,0.0202 -0.82484,0.57556 -1.08151,1.71981 -0.59331,2.64467 0.21326,4.86772 2.63512,7.26469 l 1.02529,1.01489 -0.6803,3.47926 c -0.37383,1.91379 -0.6688,3.80716 -0.65184,4.20737 0.0415,1.07645 -2.54057,6.96209 -3.06394,6.98427 -0.71263,0.0301 -0.32762,-5.0304 0.6998,-9.1961 1.05809,-4.28995 0.85608,-4.80602 -1.84079,-4.69172 -1.44315,0.0612 -1.8947,0.28044 -2.52577,1.22863 l -0.76767,1.15413 -0.34575,-1.4904 c -0.63171,-2.72497 -3.12967,-3.71012 -5.62352,-2.21857 -1.83798,1.09924 -2.99856,3.03202 -3.44051,5.73053 -0.48321,2.95039 0.42603,5.07057 2.62964,6.13294 2.31484,1.11598 3.06485,0.79682 4.63732,-1.97219 1.48352,-2.61253 1.74207,-2.55678 1.63213,0.35432 -0.057,1.50731 0.13228,3.21785 0.45232,4.06129 0.65449,1.73281 2.71267,3.44192 4.07581,3.38415 1.23803,-0.0524 2.79709,-1.86928 3.55883,-4.14726 0.61947,-1.85245 1.24682,-2.20893 2.14272,-1.21799 1.17619,1.30091 2.30658,0.63882 3.8325,-2.24391 1.51877,-2.8694 3.99576,-5.67082 5.05344,-5.71566 0.47592,-0.0202 0.63612,0.52166 0.71697,2.42894 0.0572,1.3502 -0.0543,2.46163 -0.24777,2.46981 -0.63689,0.0269 -4.02246,3.51965 -4.58455,4.7295 -1.87863,4.04398 1.85708,6.63736 5.92644,4.11426 1.31625,-0.81609 1.71359,-1.39065 2.25768,-3.26511 0.36322,-1.25129 0.71625,-3.35283 0.78439,-4.6701 0.10723,-2.07428 0.25852,-2.4533 1.12747,-2.82654 1.24174,-0.53334 1.49933,-0.33152 0.97292,0.76092 -0.99611,2.06714 0.0234,5.99478 1.97968,7.62792 1.99737,1.66749 3.39326,1.2707 4.66785,-1.32744 l 1.04562,-2.13219 0.53631,1.96267 c 0.67437,2.46951 1.28408,3.48845 2.69339,4.50347 2.10028,1.51262 3.96479,0.70079 5.37194,-2.33875 0.91386,-1.97393 2.61592,-4.11608 3.29318,-4.1448 0.23993,-0.0102 0.98129,0.51175 1.64707,1.15985 1.74358,1.69721 3.73416,1.56899 4.65217,-0.29965 l 0.66848,-1.36046 0.36358,3.51665 c 0.41673,4.03574 1.20441,5.24867 4.56132,7.01975 0.4804,0.25345 0.98733,0.46251 1.12609,0.46464 0.69443,0.0105 2.35854,-1.93595 3.07924,-3.60096 0.44665,-1.03191 1.51795,-2.53366 2.38033,-3.33756 0.93262,-0.86936 1.38499,-1.56454 1.11691,-1.71493 -1.19407,-0.66982 -3.66126,1.6364 -4.94216,4.61979 -0.97302,2.26624 -1.97162,2.53731 -2.56516,0.69554 -0.53051,-1.64627 -0.20118,-5.114 0.82055,-8.63282 0.68011,-2.34234 0.67984,-2.52392 -0.009,-3.22348 -0.4016,-0.40764 -1.16233,-0.72246 -1.69008,-0.7001 -0.74254,0.0314 -0.96846,-0.18372 -1.001,-0.95107 -0.0489,-1.15363 -1.85233,-3.2753 -3.06355,-3.60398 -0.45938,-0.12465 -1.74784,0.0333 -2.8624,0.35108 -2.31335,0.65974 -3.56643,2.27904 -4.45305,5.75185 -0.33244,1.30207 -0.96826,2.40047 -1.84469,3.18759 -0.73551,0.66052 -1.86739,2.23995 -2.51475,3.50978 -1.37108,2.68957 -2.20661,2.98887 -2.53927,0.90897 -0.39937,-2.49726 0.13294,-7.72444 0.83599,-8.20997 2.78124,-1.92052 7.8463,-7.80167 8.96237,-10.40612 0.34041,-0.79441 0.67249,-2.20774 0.73785,-3.14147 0.10334,-1.49114 -0.0284,-1.80453 -1.09126,-2.57236 -0.98462,-0.71133 -1.53356,-0.81633 -2.94592,-0.56283 -2.61637,0.46959 -3.87419,1.37949 -5.86378,4.23933 -2.40855,3.46209 -4.15656,7.4817 -4.79468,11.02763 -0.71488,3.97229 -2.67109,8.09403 -3.86577,8.14465 -0.97591,0.0413 -0.83592,-3.4813 0.24657,-6.19559 0.53401,-1.33909 0.85486,-2.70302 0.71291,-3.03074 -0.14195,-0.3277 -0.92741,-0.69188 -1.74593,-0.80981 -1.16902,-0.16839 -1.67334,-0.0319 -2.35148,0.63685 -1.26271,1.24514 -3.38103,1.65601 -3.72162,0.72213 -0.4969,-1.36265 -2.27519,-2.50247 -4.09812,-2.62667 -1.55851,-0.10636 -1.99922,0.0687 -3.64615,1.44505 -1.03028,0.86106 -2.05175,1.93611 -2.26997,2.38901 -0.21824,0.45291 -0.57796,0.83147 -0.79941,0.84085 -0.43837,0.0186 -0.29276,-1.16291 0.51527,-4.18155 0.44864,-1.67592 0.68938,-1.96725 1.85216,-2.23683 0.73529,-0.17045 2.25785,-1.05935 3.38352,-1.97589 5.03193,-4.09717 7.63829,-10.53286 5.22806,-12.9097 -0.64822,-0.63922 -1.1385,-0.80509 -2.61308,-0.73785 z m 0.39865,1.2648 c 0.73323,-0.0655 1.47391,0.70135 1.51853,1.75452 0.10153,2.39536 -3.93796,8.56087 -6.61008,10.08944 -1.60424,0.91772 -1.98842,0.83325 -1.59438,-0.3519 0.95944,-2.88607 5.19059,-10.61654 6.18864,-11.30688 0.15984,-0.11055 0.32808,-0.17005 0.49729,-0.18518 z m -27.56549,2.80228 c -1.14822,0.11001 -2.60682,1.17036 -3.59102,2.87813 -1.36112,2.36185 -3.11776,8.61977 -3.33582,11.88324 -0.35682,5.33976 -0.97884,11.95956 -1.18148,12.55141 -0.14651,0.43213 -0.34328,0.25151 -0.64048,-0.58767 -1.03644,-2.92632 -3.37826,-12.29133 -4.35319,-17.40867 -0.58452,-3.06786 -1.26255,-5.91622 -1.50678,-6.32942 -0.64792,-1.09642 -2.15895,-1.9515 -3.3441,-1.89251 -0.96752,0.0482 -1.1333,0.41679 -2.58247,5.74544 -4.38923,16.13865 -8.20186,22.98673 -12.90941,23.18627 -2.0435,0.0865 -3.87624,-2.0626 -4.10268,-4.81044 -0.11512,-1.39755 0.0641,-1.85487 1.13575,-2.89734 1.43874,-1.3995 2.75332,-1.63427 3.55243,-0.63329 0.45825,0.57398 0.6397,0.59075 1.17654,0.10525 1.41078,-1.27556 -0.0458,-2.90688 -2.49447,-2.7939 -2.00466,0.0925 -2.25833,0.25061 -3.7977,2.3657 -1.65404,2.2726 -1.5508,4.54886 0.32542,7.16566 0.75151,1.04827 1.86081,2.19759 2.4651,2.55339 0.84408,0.49702 1.6851,0.57406 3.63025,0.33363 2.96949,-0.36702 5.22715,-1.53586 7.27598,-3.76602 1.65222,-1.79851 4.95637,-8.65869 5.92396,-12.30116 0.34832,-1.31102 0.76235,-2.38915 0.92079,-2.39587 0.15842,-0.006 0.57048,1.22084 0.9154,2.72795 1.70327,7.44304 4.66974,13.95413 6.65888,14.61542 1.55243,0.51613 2.78183,-0.20147 3.23815,-1.89127 0.2043,-0.7564 0.56006,-3.87317 0.79123,-6.92638 0.9091,-12.00838 3.99299,-21.53857 6.28784,-19.43038 0.65662,0.60323 1.48697,-0.26586 1.10231,-1.15389 -0.29598,-0.68328 -0.87322,-0.95968 -1.56216,-0.89368 z m 52.37065,2.97116 c 0.13411,-0.0203 0.24354,0.0256 0.32462,0.14156 0.96486,1.38617 -0.40516,4.90953 -3.25784,8.37826 -2.01856,2.45447 -3.66955,3.93396 -3.69594,3.31165 -0.0104,-0.24698 0.5876,-1.79268 1.32909,-3.43469 2.20554,-4.88427 4.3613,-8.25445 5.30007,-8.39678 z m -14.52333,6.11142 c -0.18937,0.0161 -0.38988,0.06 -0.59792,0.13582 -0.94821,0.3458 -0.91865,1.6914 0.0484,2.2011 0.95248,0.502 1.0931,0.49135 1.65454,-0.11977 1,-1.08856 0.21934,-2.3303 -1.10508,-2.21715 z m -34.16897,1.82851 c 0.36494,0.01 0.76409,0.38012 0.99953,1.10564 0.82037,2.52854 0.58974,4.31048 -0.81899,6.32712 -0.75364,1.07885 -1.63797,1.97319 -1.96521,1.98705 -0.86759,0.0368 -0.83907,-2.01762 0.0666,-4.82943 0.42155,-1.30849 0.83767,-2.8987 0.92461,-3.53362 0.0983,-0.71638 0.42845,-1.06676 0.79339,-1.05676 z m 54.96114,3.15754 c 0.22765,-0.0531 0.45707,0.17969 0.77959,0.60101 1.25017,1.63313 0.95772,2.83262 -1.27986,5.23789 -1.13873,1.22411 -2.19045,2.23115 -2.33649,2.23734 -0.35984,0.0152 0.0938,-1.72454 1.29586,-4.97358 0.78833,-2.13078 1.16146,-3.01422 1.5409,-3.10266 z m -33.25688,6.78297 c 0.0777,0.006 0.12348,0.0616 0.12835,0.17707 0.0578,1.36177 -1.03084,4.64257 -1.85836,5.60186 -1.76211,2.04244 -2.92753,0.91116 -1.72917,-1.67835 0.793,-1.71361 2.91489,-4.13987 3.45918,-4.10058 z"
       id="path9724"
       inkscape:connector-curvature="0" />
    <g
       id="g6198"
       transform="matrix(2.0618516,0,0,2.0618516,-341.76121,-191.62738)"
       style="fill:#1f5c79;fill-opacity:1">
      <path
         inkscape:connector-curvature="0"
         id="path4324"
         d="m 289.79703,542.04118 q -1.28633,2.11774 -3.82762,2.11774 -1.49025,0 -2.47853,-0.73729 -0.98827,-0.73729 -0.98827,-2.41578 0,-1.86674 1.33338,-3.09033 1.3334,-1.22358 4.00017,-2.21185 0.73729,-0.26668 2.43147,-0.8628 1.70989,-0.61179 3.26289,-1.19219 1.553,-0.59611 2.61971,-1.11377 1.58438,-0.76866 2.44717,-1.60007 0.86278,-0.8471 0.86278,-1.97655 0,-0.76866 -0.42354,-1.39613 -0.40786,-0.64318 -1.14516,-1.00397 -0.72159,-0.3608 -1.60007,-0.3608 -0.84709,0 -1.03532,0.28236 0.32942,0.18824 0.50197,0.51767 0.17256,0.32942 0.17256,0.7059 0,0.48631 -0.29805,0.90985 -0.29806,0.42355 -0.78435,0.67454 -0.4863,0.251 -1.03534,0.251 -0.64316,0 -1.05103,-0.36081 -0.39216,-0.3608 -0.39216,-0.98827 0,-0.65886 0.43923,-1.17654 0.45493,-0.53335 1.16082,-0.84708 1.06671,-0.45492 2.35305,-0.45492 1.85105,0 2.93346,0.90984 1.0824,0.90984 1.08239,2.76091 10e-6,1.63143 -0.94121,2.88638 -0.92552,1.25496 -2.98051,2.2903 -1.44321,0.70592 -5.12964,2.05499 2.33736,1.96085 2.33736,4.81589 0,2.13342 -1.28632,3.9531 -1.27065,1.81967 -3.70211,2.90209 -2.41583,1.08234 -5.71006,1.08238 -2.82365,0 -4.91001,-0.81572 -2.08636,-0.81572 -3.21581,-2.33734 -1.12946,-1.52164 -1.12946,-3.62368 0,-1.88244 0.89416,-3.52957 0.89415,-1.64712 2.46286,-2.82363 1.56868,-1.17654 3.54523,-1.72558 -1.0824,-0.5804 -1.66282,-1.53731 -0.58042,-0.97259 -0.5804,-2.05499 0,-1.39613 0.94119,-2.43148 0.95691,-1.03534 2.43148,-1.58438 1.47458,-0.54904 2.98052,-0.54904 1.19221,0 2.08636,0.36081 0.89417,0.3451 1.38045,0.9726 0.48631,0.62747 0.48631,1.45887 0,0.78435 -0.40788,1.33338 -0.39217,0.53336 -1.01964,0.81572 -0.62747,0.2667 -1.30201,0.26668 l 0.0627,-0.58041 q 0.89415,0 1.44322,-0.4706 0.54902,-0.47061 0.54902,-1.28634 0,-1.06671 -0.87846,-1.70987 -0.87847,-0.64317 -2.22755,-0.64317 -1.30201,10e-6 -2.33735,0.62748 -1.03534,0.61178 -1.61575,1.70987 -0.58042,1.0824 -0.58042,2.44717 0,1.49026 0.70591,2.66677 1.14514,-0.18826 2.02362,-0.18824 1.16082,0 1.16082,0.67454 0,0.34512 -0.29805,0.51766 -0.29804,0.15687 -0.7059,0.15689 -0.80003,0 -2.21187,-0.70591 -1.45888,0.42353 -2.57264,1.36474 -1.11378,0.94122 -1.74125,2.22755 -0.6118,1.28633 -0.6118,2.72953 0,1.88243 1.03533,3.21582 1.03535,1.3177 2.85503,1.99224 1.8197,0.67454 4.17272,0.67454 2.49422,0 4.50215,-0.73729 2.02362,-0.73729 3.18445,-2.10205 1.16084,-1.36475 1.16084,-3.13738 0,-1.17651 -0.54904,-2.30598 -0.53336,-1.12947 -1.61576,-1.91382 -3.29427,1.2079 -4.07861,1.52165 -1.44319,0.56473 -2.41579,1.302 -0.95689,0.72161 -0.95689,1.88244 0,0.98828 0.78434,1.56869 0.80004,0.58042 1.94518,0.58042 1.27065,0 2.07068,-0.62749 0.80002,-0.62747 1.20788,-1.27063 l 0.42356,0.29805 z"
         style="font-style:italic;font-variant:normal;font-weight:normal;font-stretch:normal;font-size:87.88827515px;line-height:125%;font-family:'Playfair Display';-inkscape-font-specification:'Playfair Display Italic';letter-spacing:1.75776589px;word-spacing:0px;fill:#1f5c79;fill-opacity:1;stroke:none;stroke-width:1px;stroke-linecap:butt;stroke-linejoin:miter;stroke-opacity:1" />
      <g
         style="display:inline;fill:#1f5c79;fill-opacity:1"
         transform="matrix(0.97452343,0,0,0.97452343,-128.2373,348.94635)"
         id="g9716">
        <path
           style="display:inline;fill:#1f5c79;fill-opacity:1"
           d="m 327.74922,211.71984 c -0.0767,0.003 -0.13633,0.0148 -0.17598,0.0369 -0.29266,0.16531 -1.31943,2.00474 -2.28231,4.08763 -1.68086,3.63581 -5.94894,11.49364 -6.99066,12.86987 -0.93702,1.23782 -1.57078,0.9093 -1.49,-0.77273 0.0847,-1.76191 -0.63601,-2.41611 -1.55497,-1.41092 -0.74859,0.81904 -0.52872,2.34193 0.49744,3.44676 0.44484,0.47895 0.73059,1.15664 0.63496,1.50589 -0.24311,0.88811 -4.38475,4.81275 -6.7464,6.39301 -2.58545,1.73003 -3.40029,1.30663 -3.85823,-2.00392 -0.59359,-4.29119 1.83432,-8.30132 5.31777,-8.78318 0.80684,-0.11162 1.21252,-0.41017 1.15198,-0.84776 -0.12454,-0.9003 -4.37883,-0.33699 -6.36765,0.84319 -2.73539,1.62311 -4.77443,6.00054 -4.06584,8.72921 1.04899,4.03958 6.41665,6.95299 10.37163,5.62958 2.08226,-0.69674 6.31069,-4.42673 8.78447,-7.74965 1.92892,-2.59094 2.17138,-2.76359 4.28674,-3.0562 l 2.24195,-0.31012 0.30532,2.13772 c 0.50478,3.52947 2.8438,6.50157 5.44321,6.91727 1.36041,0.21759 3.7074,-2.01206 3.89078,-3.69611 0.0696,-0.63946 0.27113,-1.75959 0.44807,-2.48934 l 0.32203,-1.32635 0.91572,2.00579 c 1.11948,2.45137 3.88091,4.44427 5.79144,4.17999 1.37769,-0.19059 1.47756,-0.41687 1.57126,-3.55812 0.0803,-2.69407 1.9986,-7.03238 3.18166,-7.19603 0.44449,-0.0616 0.49999,0.44434 0.26017,2.37345 -1.15967,9.32814 -0.59042,12.56828 2.57504,14.65615 0.96106,0.6339 2.02195,1.11506 2.35739,1.06866 1.16661,-0.16137 2.20716,-1.92701 2.65053,-4.49711 0.24536,-1.42223 0.70226,-3.5299 1.01583,-4.68331 l 0.57047,-2.09664 1.82469,1.61743 c 1.88258,1.66919 4.43495,2.4839 5.66225,1.80725 0.38506,-0.21229 0.8024,-1.196 0.92742,-2.18635 0.29433,-2.33172 0.86756,-2.76289 1.68309,-1.26544 1.54711,2.84075 5.27053,4.46828 7.46926,3.26487 0.62049,-0.33957 1.12015,-0.67632 1.11024,-0.74787 -0.0101,-0.0716 0.23396,-1.29458 0.54184,-2.71833 0.30792,-1.42376 0.48642,-3.1191 0.39683,-3.76675 -0.20501,-1.4822 0.32031,-4.25598 0.90542,-4.78188 0.74636,-0.67084 0.98702,-0.54026 1.44896,0.78738 0.58354,1.67701 3.44749,4.12134 5.44962,4.65035 1.68421,0.44501 3.04127,0.0458 4.1319,-1.21425 0.61212,-0.70745 0.69363,-0.53506 1.06273,2.25256 0.3066,2.3159 0.64383,3.26703 1.44893,4.08511 1.2476,1.26782 3.02371,1.72047 4.45787,1.13574 1.8522,-0.75517 4.59705,-4.81335 5.68701,-8.40759 0.936,-3.08628 1.14644,-3.40431 2.36432,-3.57279 1.06733,-0.14764 1.30917,-0.019 1.19874,0.63732 -1.40827,8.36814 -0.74021,11.23325 3.23021,13.85202 1.3898,0.91668 2.18469,1.1339 3.23167,0.88318 1.27807,-0.30607 1.53371,-0.74218 3.21109,-5.49253 1.00221,-2.83826 1.97147,-5.34735 2.15448,-5.57583 0.18297,-0.22847 0.40311,1.1444 0.48922,3.0508 0.19929,4.41278 1.2351,6.04044 4.76157,7.48482 2.06451,0.84558 3.12031,0.20056 3.97053,-2.42624 1.28001,-3.95409 3.24559,-7.59637 5.04214,-9.34382 1.39119,-1.35327 1.92946,-1.60422 3.30006,-1.53841 1.24702,0.06 1.61596,-0.0727 1.54898,-0.55667 -0.14918,-1.07852 -1.24459,-1.57666 -2.94813,-1.34101 -2.10131,0.29068 -4.26385,2.67319 -6.27165,6.90907 -2.1514,4.53872 -2.58648,5.33082 -2.95485,5.38177 -0.55452,0.0768 -0.68079,-3.85991 -0.26642,-8.29576 0.27323,-2.92468 0.22949,-4.3234 -0.14415,-4.60621 -0.29509,-0.22338 -1.58173,-0.36237 -2.8583,-0.30917 -2.92182,0.1218 -3.10019,0.32687 -6.54464,7.52768 -1.46632,3.06535 -2.89564,5.60575 -3.17663,5.64462 -0.78226,0.10821 -1.14879,-6.50384 -0.52583,-9.49061 l 0.52604,-2.52163 -1.44388,-0.86069 c -0.83123,-0.49531 -2.03829,-0.7725 -2.8439,-0.65266 -0.76984,0.11452 -2.01013,0.0556 -2.75662,-0.13141 -1.11477,-0.27922 -1.33576,-0.5398 -1.23553,-1.46047 0.17135,-1.5736 -0.36322,-2.33395 -1.92827,-2.74237 -2.97362,-0.77592 -4.00162,2.01941 -1.54116,4.19036 l 1.25283,1.10583 -1.08843,3.18654 c -1.1459,3.35586 -2.77678,6.31538 -3.53813,6.42068 -0.65008,0.0899 -0.58967,-4.06061 0.12031,-8.25424 0.69655,-4.11438 0.45089,-4.52686 -2.68449,-4.50938 -2.03263,0.0115 -2.21398,-0.0926 -3.06221,-1.751 -1.02376,-2.00175 -3.54684,-3.49193 -5.46335,-3.22683 -2.59151,0.35849 -3.80466,1.40692 -4.78133,4.13304 -1.29461,3.61327 -2.23051,3.65582 -2.97967,0.13519 -0.74469,-3.49967 -1.89734,-4.51206 -4.05169,-3.55834 -1.76733,0.78238 -2.10578,1.4096 -1.83795,3.41214 0.157,1.17461 0.66606,1.868 2.25319,3.06941 2.34105,1.77207 2.591,2.62104 1.79334,6.09554 -1.28722,5.60681 -2.40035,5.96363 -3.10041,0.99268 -0.43637,-3.09846 -1.04691,-3.65758 -3.60853,-3.30323 -2.24857,0.31104 -2.75024,0.85949 -3.67321,4.01828 -0.48824,1.67073 -1.09836,3.06693 -1.3564,3.10262 -0.92466,0.12791 -1.19807,-7.05328 -0.43733,-11.4883 0.12123,-0.70687 -0.28957,-1.01189 -2.03972,-1.51328 -1.20543,-0.34533 -2.37613,-0.4747 -2.60165,-0.28818 -0.82151,0.67943 -1.3236,3.00977 -1.40022,6.49872 -0.0432,1.96221 -0.24602,3.59082 -0.45044,3.61911 -0.20435,0.0283 -0.89648,1.68599 -1.5385,3.68445 -0.64207,1.99845 -1.2832,3.5462 -1.42458,3.43921 -0.14128,-0.10699 -0.0268,-2.55551 0.25487,-5.44124 0.43493,-4.45822 0.40046,-5.49189 -0.23121,-6.87454 -0.87177,-1.90798 -1.9133,-2.39754 -4.37291,-2.05731 -1.56819,0.21694 -1.98708,0.54147 -3.3434,2.59226 -0.85275,1.28937 -1.52806,2.50927 -1.50017,2.71108 0.0279,0.2018 -0.35263,1.18321 -0.8456,2.1813 l -0.89624,1.81542 -0.47378,-3.42491 c -0.3107,-2.2462 -0.29277,-3.99396 0.0514,-5.07787 0.6395,-2.01362 0.25805,-2.80442 -1.6869,-3.49197 -1.45253,-0.51346 -1.51697,-0.48949 -2.62055,0.96844 -0.62215,0.82186 -1.18898,2.09661 -1.26015,2.83295 -0.0712,0.73633 -0.34998,1.67944 -0.61986,2.09629 -0.26989,0.41684 -1.16069,2.77025 -1.97921,5.22889 -0.81847,2.45865 -1.70298,4.37497 -1.96554,4.25895 -0.727,-0.32126 -0.85183,-5.91232 -0.26599,-11.88938 0.65737,-6.70519 0.92589,-9.94721 0.86276,-10.40336 -0.0838,-0.60603 -5.11007,-2.64691 -6.2602,-2.60477 z m -0.39407,11.74402 c 0.21563,-0.0298 0.19081,2.71422 -0.0388,4.25054 -0.12864,0.86107 -1.20967,1.21162 -2.25874,0.73285 -0.45846,-0.20924 -0.26883,-0.88889 0.7314,-2.61817 0.7431,-1.28468 1.44766,-2.34885 1.56597,-2.36522 z m 48.03845,-5.03879 c 0.35581,-0.0492 0.90092,0.52616 1.21136,1.27918 l 0,0 c 0.31087,0.75294 0.46316,1.83427 0.33789,2.40303 -0.2056,0.93346 -0.29661,0.97172 -0.92878,0.39379 -0.9905,-0.90554 -1.45472,-3.96059 -0.61943,-4.07614 z m 12.79097,-0.52609 c 0.29167,-0.0104 0.61615,0.34124 1.00179,1.02761 1.4639,2.60548 1.73606,4.35266 0.92103,5.9132 -0.42746,0.81847 -1.31922,1.99906 -1.98113,2.62343 -1.05097,0.99141 -1.25001,1.05014 -1.57351,0.46327 -0.53338,-0.96736 -0.43249,-3.1962 0.31081,-6.83747 0.43912,-2.15135 0.83496,-3.17298 1.32101,-3.19004 z m 35.14882,-3.52828 c -0.41543,0.0388 -0.78601,0.16237 -1.05981,0.39309 -0.99855,0.8414 -0.77212,2.29799 0.41974,2.69737 1.55655,0.5216 3.82842,0.18586 4.34196,-0.64182 0.73981,-1.19256 -1.90176,-2.61673 -3.70189,-2.44863 z"
           id="path9718-6"
           inkscape:connector-curvature="0" />
        <path
           inkscape:connector-curvature="0"
           id="path9720"
           d="m 459.95414,212.02847 c -1.55827,0.0555 -4.71444,0.86213 -8.8243,2.2738 -1.18815,0.4081 -2.42271,0.68079 -3.0498,0.67373 -0.85846,-0.009 -1.0523,0.0595 -1.04663,0.37257 0.0199,1.09145 2.97767,1.71823 4.9029,1.03896 0.50953,-0.17973 0.96087,-0.29261 1.00296,-0.25049 0.042,0.0421 0.12485,1.96452 0.18403,4.2721 0.0592,2.30758 0.15519,4.54488 0.21348,4.97187 0.0582,0.42699 0.16605,1.57482 0.23948,2.55073 0.26726,3.55255 0.75714,6.53624 1.22304,7.44944 0.4984,0.97709 0.49804,1.02291 -0.01,1.09524 -0.80673,0.11483 -1.50105,-0.0346 -1.90474,-0.41105 -0.79838,-0.74383 -1.63695,-1.19686 -1.9751,-1.06712 -0.90013,0.34544 0.21358,2.36713 1.63546,2.96873 0.44139,0.18673 1.85068,0.40262 3.13159,0.47997 3.50418,0.20593 4.29068,-0.77532 7.60612,-3.28649 0.68872,-0.4188 1.02005,-0.48432 1.82987,-0.36281 0.93639,0.14034 0.98876,0.12013 0.98876,-0.38236 0,-0.79036 -0.80937,-1.12051 -2.47588,-1.01022 -1.07469,0.0712 -1.62872,0.24159 -2.35285,0.72471 -0.52094,0.34752 -0.98971,0.58958 -1.04178,0.53752 -0.56845,-0.56848 -1.07383,-15.57733 -0.53232,-16.22977 0.23991,-0.28912 0.40825,-1.0465 0.12199,-4.01187 -0.0223,-0.23084 0.10013,-0.46893 0.27204,-0.52923 0.2177,-0.0763 0.26967,0.006 0.17087,0.25995 -0.20967,0.54642 0.7484,0.9239 1.67462,0.65987 1.05839,-0.30169 1.11593,-1.1766 0.12718,-1.93076 -0.404,-0.30814 -0.9872,-0.65618 -1.29582,-0.77351 -0.18151,-0.069 -0.45586,-0.0963 -0.81546,-0.0835 z m 16.14868,0.52953 c -0.23677,0.006 -0.42188,0.0402 -0.52124,0.11473 -0.918,0.64847 -1.80321,-0.0464 -2.72888,1.7536 -2.19569,3.01384 -3.41185,5.51625 -3.83235,9.73476 l -0.14625,1.77442 -0.99153,0.0707 c -1.27792,0.091 -2.84617,-0.35059 -3.13019,-0.8813 -0.12223,-0.22842 -0.16572,-0.90916 -0.0967,-1.51276 0.11514,-1.00715 0.0772,-1.12899 -0.45989,-1.48091 -0.52535,-0.34421 -0.64507,-0.34998 -1.16967,-0.0557 -0.80211,0.44982 -1.01139,1.91814 -0.44153,3.09763 0.71561,1.48115 2.20889,2.34115 4.60207,2.65089 1.53345,0.19842 1.78973,0.40693 1.79488,1.45937 0.005,0.8742 0.73154,2.99581 1.44276,4.20944 0.62678,1.06958 2.21747,2.54713 3.29065,3.05639 1.42289,0.67516 3.37969,-0.12723 4.17857,-1.71346 0.78963,-1.56777 0.85338,-1.58878 1.49301,-0.49037 1.90853,3.27744 4.93033,4.57078 6.52067,2.79091 0.47416,-0.53066 0.60189,-0.85044 0.5008,-1.25325 -0.0748,-0.29786 0.004,-0.80982 0.17294,-1.14053 0.37763,-0.73414 0.75246,-1.79147 1.16238,-3.27853 0.34045,-1.23493 1.80657,-3.86484 2.15461,-3.86484 0.13454,0 0.15968,0.40525 0.0652,1.05349 -0.41968,2.8779 -0.41305,3.25391 0.0752,4.29259 0.2622,0.55787 0.98023,1.497 1.59594,2.08702 0.9885,0.94732 1.2538,1.08359 2.2662,1.16519 1.03298,0.0832 1.20467,0.0303 1.73318,-0.53756 0.32265,-0.34658 0.85379,-1.14783 1.18041,-1.78068 0.70608,-1.35542 1.70417,-2.885 2.66962,-4.25718 0.48152,-0.73234 0.91285,-1.29414 0.95826,-1.2487 0.0454,0.0455 -0.11513,0.6133 -0.35663,1.26224 -0.70329,1.88958 -1.56609,6.10488 -1.71689,8.38832 -0.11997,2.00537 0.54736,5.72708 3.63341,5.98869 0.93829,0 1.15557,-0.0946 1.77062,-0.77049 0.38557,-0.42368 0.7011,-0.97232 0.7011,-1.21916 0,-0.73508 1.24469,-3.14643 2.53203,-4.90532 0.66189,-0.90435 1.34968,-1.8441 1.52836,-2.0881 0.31461,-0.42955 0.36045,-0.40774 1.44138,0.69002 1.37441,1.39581 2.56888,1.78943 4.20213,1.38416 1.39949,-0.34723 1.85606,-0.66905 2.37641,-1.67531 0.78304,-1.49165 1.87241,-2.87842 2.63496,-4.1044 0.21476,-0.82118 0.38078,-0.31315 0.42212,1.29206 0.0321,1.24505 0.15372,1.71029 0.6609,2.52442 1.30872,2.11224 2.0227,3.63059 5.06925,3.99245 1.12087,0 1.86993,-0.73774 2.04059,-2.01014 0.1594,-1.09108 0.99026,-2.03641 1.52247,-3.03628 l 0.49038,-0.94335 0.40273,0.61064 c 0.69293,1.05827 1.32436,2.23943 2.49042,3.17005 0.90741,0.87916 2.27788,1.2858 3.29655,0.97837 0.77409,-0.23359 1.54212,-1.2299 1.42404,-1.84756 -0.16092,-0.84186 0.62331,-2.31984 1.88223,-3.54742 0.2036,-0.19851 0.4422,-0.66063 0.53024,-1.02656 0.59369,-1.93465 2.8532,-4.51738 4.6194,-5.7416 l 0.64046,-0.40787 -0.1577,0.63492 c -0.34235,1.32523 -1.22032,3.33889 -1.79036,4.96008 -0.83139,2.59642 -2.44587,6.89715 -3.34298,9.20479 -0.0229,0.12197 -0.0638,0.32162 -0.0909,0.4436 -0.61266,3.27437 0.72346,5.59147 3.32497,7.40963 l 0,3.8e-4 c 1.00177,0.597 1.11286,0.58881 2.73685,-0.19824 0.94535,-0.46306 4.92222,-2.54946 3.0945,-4.33836 -0.50842,-0.33314 -0.5568,-0.32002 -1.01994,0.27169 -0.60141,0.76448 -1.21807,1.43798 -1.78275,2.25684 -0.95196,0.89436 -1.5133,0.15105 -0.98044,-1.29825 0.0673,-0.18295 0.24528,-0.93156 0.39543,-1.66347 0.47432,-2.21112 0.6768,-2.4174 2.10368,-5.34585 1.08248,-2.67589 2.38194,-4.24707 2.95239,-7.18603 0.0628,-0.18304 0.12414,-0.38264 0.13656,-0.44365 0.0124,-0.061 0.0849,-0.21073 0.16115,-0.33266 0.0763,-0.12203 0.11559,-0.87055 0.0874,-1.66361 -0.0372,-1.04218 -0.21822,-1.78177 -0.65329,-2.6685 -0.73418,-1.4964 -1.10257,-1.69458 -4.3872,-2.35876 -2.68343,-0.33232 -6.73714,5.57996 -8.33391,7.65604 -0.27447,0.29768 -0.49906,0.62641 -0.49906,0.73059 0,0.10418 -0.12838,0.18952 -0.28522,0.18952 -0.15685,0 -0.28522,-0.1996 -0.28522,-0.4436 0.009,-1.01284 0.91954,-2.22874 1.44899,-3.14718 1.28336,-1.3775 -0.35172,-3.42399 -3.47642,-4.35148 -0.94885,-0.28163 -1.98438,-0.16377 -2.39063,0.2724 -0.62505,0.67104 -1.78575,3.64044 -1.93938,4.96146 -0.0325,0.27931 -0.15874,0.52147 -0.28073,0.53851 -0.28131,0.0393 -0.46786,0.24125 -1.54186,1.66845 -0.9818,1.29166 -1.17307,1.48815 -1.58208,1.96574 -0.32085,0.40053 -0.33051,0.39396 -0.2024,-0.13381 0.60184,-2.40651 1.89731,-3.85287 2.03296,-6.39139 0.0731,-0.60492 -0.0397,-0.85541 -0.63388,-1.41058 -0.94174,-0.87963 -1.37925,-1.03001 -3.51454,-1.20808 -1.66249,-0.13864 -1.81619,-0.11478 -2.32789,0.36593 -0.423,0.39741 -0.54793,0.43627 -0.54793,0.16988 0,-0.49203 -1.25288,-1.65117 -2.36809,-2.19101 -0.78855,-0.38179 -1.2251,-0.44024 -2.56287,-0.34311 -3.50538,0.25446 -3.63286,0.29673 -4.66549,1.54883 -0.51802,0.62802 -1.13022,1.49123 -1.36063,1.91822 -0.23041,0.427 -0.58759,0.97597 -0.79364,1.21992 -0.80026,0.94761 -1.55247,3.97816 -1.48643,5.98868 0.046,1.6071 -2.15186,3.55728 -3.15549,5.23008 l -0.21452,0.53685 -0.0139,-0.60237 c -0.007,-0.33137 0.12173,-0.93023 0.28801,-1.33081 0.77483,-1.89569 1.12154,-4.00443 1.81046,-6.0327 0.58469,-2.1299 0.1788,-3.5897 -1.22546,-4.40804 -0.30498,-0.17764 -1.33334,-0.49345 -2.28527,-0.70181 -2.08222,-0.45563 -2.10287,-0.44635 -4.50781,2.02506 -0.86932,0.89327 -1.64512,1.624 -1.72417,1.624 -0.0791,0 -0.12084,-0.57397 -0.0925,-1.27535 0.0609,-1.50794 -0.32973,-2.51694 -1.12843,-2.91397 -0.31654,-0.15734 -1.22442,-0.37237 -2.01738,-0.47759 -0.79292,-0.10517 -1.74866,-0.24903 -2.12376,-0.31987 -0.60181,-0.11366 -0.81963,0.009 -1.85378,1.04284 -0.94709,0.9469 -3.34196,4.49943 -3.34196,4.95762 0,0.062 -0.34933,0.6317 -0.7763,1.26568 -0.70212,1.04262 -0.77631,1.09625 -0.77631,0.55977 0,-0.85432 0.60466,-3.33699 0.99498,-4.08537 0.18326,-0.35145 0.33445,-0.99982 0.33445,-1.44073 0.002,-0.67757 -0.12818,-0.89128 -0.83593,-1.38174 -1.25173,-0.85011 -4.24701,-1.88334 -5.2706,-0.58916 -0.80717,1.43206 -1.18528,2.68114 -1.29443,4.27527 -0.0978,1.42747 -0.25622,1.98009 -0.92083,3.2106 -0.69918,1.29452 -1.91111,2.71707 -2.31472,2.71707 -0.74413,0 -1.14765,-5.76622 -0.58986,-8.42851 0.28873,-1.37811 0.46496,-1.75512 1.02826,-2.19797 2.04354,-1.6063 4.65441,-6.2066 4.65441,-8.20112 0,-1.15782 -0.29134,-1.54458 -1.81602,-2.41215 -0.71495,-0.40678 -1.88966,-0.68817 -2.59994,-0.67719 z m 1.91755,4.00499 c 0.0461,-0.0114 0.0586,0.0649 0.0586,0.22384 0,0.20717 -0.20878,0.7037 -0.46405,1.1031 l -0.46405,0.72608 0.14486,-0.64742 c 0.0798,-0.35603 0.28855,-0.85218 0.46406,-1.10272 0.13461,-0.19222 0.2145,-0.29152 0.26062,-0.30288 z m 40.16545,7.38945 0.37707,0.88069 c 0.20734,0.48431 0.5329,1.2077 0.72329,1.60734 0.33794,0.70938 0.33038,0.7435 -0.31434,1.44171 -1.31475,1.42393 -3.53284,3.77942 -4.14598,4.40284 -0.75455,0.76708 -1.1222,0.82251 -0.91599,0.13826 0.94363,-2.7333 2.98488,-4.87986 3.85972,-7.59015 l 0.41623,-0.88069 z"
           style="display:inline;fill:#1f5c79;fill-opacity:1" />
      </g>
      <g
         style="display:inline;fill:#1f5c79;fill-opacity:1"
         transform="matrix(0.97452343,0,0,0.97452343,-119.798,325.63862)"
         id="g9722">
        <path
           style="display:inline;fill:#1f5c79;fill-opacity:1"
           d="m 377.2559,139.2137 c -0.23385,0.0108 -0.48995,0.0265 -0.7721,0.0469 -1.48064,0.1073 -2.68431,0.36844 -2.67531,0.58086 0.009,0.21238 -0.27165,0.39898 -0.62321,0.41389 -1.12228,0.0476 -4.61267,4.78576 -6.63205,9.0029 -1.07541,2.24572 -2.16246,4.03007 -2.41548,3.9647 -1.02744,-0.26544 -1.93799,-2.82368 -2.06353,-5.78514 -0.10996,-2.59514 -0.24708,-3.0609 -0.90701,-3.03292 -0.52787,0.0224 -0.91567,0.63893 -1.2006,1.90917 -0.65863,2.93587 0.23675,5.40369 2.92527,8.06458 l 1.13819,1.12663 -0.75521,3.86235 c -0.415,2.12452 -0.74244,4.22635 -0.72362,4.67063 0.0461,1.19498 -2.8203,7.72866 -3.40129,7.75328 -0.7911,0.0335 -0.3637,-5.58428 0.77685,-10.20864 1.17459,-4.76231 0.95034,-5.33521 -2.04347,-5.20831 -1.60206,0.0679 -2.10333,0.31131 -2.80387,1.36391 l -0.8522,1.28121 -0.38382,-1.65451 c -0.70127,-3.02501 -3.47427,-4.11862 -6.24271,-2.46285 -2.04035,1.22028 -3.32872,3.36586 -3.81933,6.3615 -0.53641,3.27524 0.47294,5.62887 2.91918,6.80822 2.56972,1.23885 3.40231,0.88454 5.14792,-2.18935 1.64687,-2.90018 1.93388,-2.8383 1.81183,0.39333 -0.0632,1.67328 0.14685,3.57216 0.50213,4.50847 0.72655,1.9236 3.01135,3.8209 4.52459,3.75676 1.37434,-0.0582 3.10506,-2.07509 3.95068,-4.60389 0.68767,-2.05642 1.3841,-2.45215 2.37864,-1.35211 1.3057,1.44416 2.56055,0.70916 4.25448,-2.49097 1.686,-3.18534 4.43572,-6.29522 5.60985,-6.34499 0.52832,-0.0224 0.70617,0.5791 0.79592,2.69638 0.0635,1.49887 -0.0602,2.73267 -0.27506,2.74175 -0.70701,0.0299 -4.46535,3.90719 -5.08932,5.25025 -2.08549,4.48925 2.06155,7.36817 6.57898,4.56727 1.46117,-0.90595 1.90226,-1.54377 2.50626,-3.62463 0.40321,-1.38906 0.79511,-3.72199 0.87075,-5.1843 0.11904,-2.30267 0.28698,-2.72342 1.25162,-3.13776 1.37846,-0.59206 1.66441,-0.36802 1.08003,0.84471 -1.10578,2.29474 0.026,6.65484 2.19766,8.4678 2.2173,1.85109 3.76688,1.4106 5.18182,-1.47361 l 1.16074,-2.36695 0.59537,2.17877 c 0.74862,2.74142 1.42546,3.87255 2.98994,4.99934 2.33154,1.67917 4.40134,0.77794 5.96343,-2.59627 1.01448,-2.19127 2.90395,-4.56929 3.65577,-4.60117 0.26636,-0.0113 1.08935,0.5681 1.82843,1.28756 1.93556,1.88408 4.14531,1.74175 5.16441,-0.33264 l 0.74207,-1.51026 0.40362,3.90386 c 0.46261,4.4801 1.33702,5.82658 5.06355,7.79266 0.53329,0.28136 1.09604,0.51344 1.25007,0.5158 0.77091,0.0117 2.61824,-2.14911 3.41829,-3.99744 0.49583,-1.14554 1.68509,-2.81264 2.64242,-3.70505 1.03531,-0.96508 1.53749,-1.73681 1.23989,-1.90375 -1.32554,-0.74358 -4.06439,1.81658 -5.48632,5.12845 -1.08015,2.51577 -2.1887,2.81669 -2.8476,0.77212 -0.58892,-1.82753 -0.22333,-5.67708 0.9109,-9.58334 0.75499,-2.60025 0.75469,-2.80182 -0.0103,-3.5784 -0.44581,-0.45253 -1.2903,-0.80202 -1.87616,-0.77719 -0.82429,0.0349 -1.07509,-0.20395 -1.11121,-1.05579 -0.0543,-1.28066 -2.05629,-3.63593 -3.40088,-4.0008 -0.50995,-0.13837 -1.94028,0.0369 -3.17756,0.38973 -2.56807,0.73238 -3.95911,2.52998 -4.94336,6.38516 -0.36904,1.44545 -1.07487,2.66478 -2.0478,3.53857 -0.8165,0.73324 -2.073,2.48658 -2.79164,3.89622 -1.52205,2.98572 -2.44958,3.31798 -2.81886,1.00906 -0.44334,-2.77222 0.14757,-8.57495 0.92804,-9.11394 3.08746,-2.13198 8.71022,-8.66067 9.94918,-11.55189 0.37789,-0.88189 0.74654,-2.45083 0.81909,-3.48737 0.11472,-1.65533 -0.0315,-2.00322 -1.21142,-2.8556 -1.09302,-0.78965 -1.70241,-0.90621 -3.27027,-0.6248 -2.90446,0.52129 -4.30077,1.53139 -6.50943,4.70611 -2.67374,3.84329 -4.61423,8.30548 -5.3226,12.24184 -0.79359,4.40967 -2.9652,8.98523 -4.29141,9.04143 -1.08337,0.0459 -0.92796,-3.86461 0.27371,-6.87776 0.59281,-1.48653 0.94899,-3.00064 0.79141,-3.36444 -0.15758,-0.36379 -1.02953,-0.76807 -1.93818,-0.89899 -1.29773,-0.18692 -1.85757,-0.0354 -2.61038,0.70697 -1.40174,1.38225 -3.75331,1.83836 -4.13139,0.80165 -0.55162,-1.51269 -2.52571,-2.77801 -4.54936,-2.91588 -1.73011,-0.11808 -2.21935,0.0762 -4.04761,1.60416 -1.14372,0.95586 -2.27766,2.14929 -2.51991,2.65206 -0.24227,0.50277 -0.6416,0.92301 -0.88743,0.93343 -0.48664,0.0206 -0.32499,-1.29096 0.572,-4.64198 0.49804,-1.86044 0.76529,-2.18385 2.0561,-2.48311 0.81625,-0.18922 2.50646,-1.17599 3.75606,-2.19345 5.58599,-4.54829 8.47932,-11.6926 5.80371,-14.33114 -0.71959,-0.70961 -1.26386,-0.89374 -2.9008,-0.81909 z m 0.44253,1.40406 c 0.81397,-0.0728 1.63621,0.77857 1.68574,1.9477 0.11271,2.6591 -4.37155,9.50349 -7.3379,11.20036 -1.78088,1.01876 -2.20735,0.92499 -1.76993,-0.39065 1.06509,-3.20385 5.76211,-11.78549 6.87005,-12.55183 0.17744,-0.12273 0.36421,-0.18878 0.55204,-0.20558 z m -30.60062,3.11083 c -1.27464,0.12212 -2.89384,1.29922 -3.98642,3.19503 -1.51098,2.62191 -3.46103,9.56886 -3.70311,13.19166 -0.3961,5.9277 -1.08661,13.27639 -1.31157,13.9334 -0.16264,0.4797 -0.38107,0.27921 -0.711,-0.65238 -1.15056,-3.24853 -3.75022,-13.64468 -4.83251,-19.32547 -0.64887,-3.40565 -1.40155,-6.56763 -1.67268,-7.02633 -0.71925,-1.21714 -2.39666,-2.16637 -3.71231,-2.10088 -1.07404,0.0535 -1.25808,0.46267 -2.86681,6.37804 -4.87251,17.91562 -9.10494,25.51772 -14.33081,25.73922 -2.26851,0.0961 -4.30305,-2.2897 -4.55442,-5.34009 -0.12779,-1.55143 0.0711,-2.0591 1.26081,-3.21635 1.59715,-1.55361 3.05648,-1.81422 3.94357,-0.70303 0.50871,0.63718 0.71014,0.65579 1.30608,0.11684 1.56612,-1.416 -0.0508,-3.22695 -2.76913,-3.10153 -2.22538,0.10263 -2.50698,0.27821 -4.21584,2.62618 -1.83616,2.52283 -1.72155,5.04972 0.36125,7.95465 0.83426,1.16368 2.0657,2.43956 2.73652,2.83453 0.93702,0.55175 1.87065,0.63727 4.02997,0.37037 3.29644,-0.40743 5.80268,-1.70497 8.0771,-4.18069 1.83414,-1.99654 5.5021,-9.61206 6.57623,-13.65559 0.38668,-1.45538 0.84629,-2.65221 1.02218,-2.65967 0.17586,-0.007 0.63329,1.35526 1.01619,3.02831 1.89081,8.26256 5.1839,15.49057 7.39206,16.22467 1.72336,0.57296 3.08812,-0.22365 3.59469,-2.09951 0.2268,-0.83968 0.62173,-4.29963 0.87835,-7.68902 1.0092,-13.33057 4.43265,-23.9101 6.98017,-21.56978 0.72892,0.66965 1.65069,-0.29514 1.22368,-1.28094 -0.32857,-0.75852 -0.96936,-1.06535 -1.73416,-0.99208 z m 58.13699,3.2983 c 0.14888,-0.0226 0.27035,0.0284 0.36036,0.15714 1.0711,1.53881 -0.44977,5.45011 -3.61654,9.30077 -2.24082,2.72472 -4.07359,4.36712 -4.10289,3.67629 -0.0116,-0.27418 0.6523,-1.99008 1.47543,-3.81288 2.44838,-5.42206 4.8415,-9.16331 5.88364,-9.32132 z m -16.12244,6.78433 c -0.21022,0.0179 -0.43281,0.0666 -0.66375,0.15077 -1.05262,0.38388 -1.0198,1.87764 0.0538,2.44345 1.05736,0.55728 1.21345,0.54546 1.83671,-0.13295 1.11011,-1.20842 0.2435,-2.58688 -1.22675,-2.46127 z m -37.93119,2.02984 c 0.40512,0.0111 0.84822,0.42198 1.10958,1.22738 0.9107,2.80695 0.65468,4.78509 -0.90916,7.02378 -0.83662,1.19763 -1.81832,2.19044 -2.18159,2.20583 -0.96312,0.0408 -0.93146,-2.23977 0.074,-5.36118 0.46797,-1.45257 0.9299,-3.21787 1.02642,-3.9227 0.10907,-0.79525 0.47563,-1.18421 0.88075,-1.17311 z m 61.01271,3.50521 c 0.25271,-0.0589 0.50739,0.19947 0.86542,0.66718 1.38783,1.81295 1.06318,3.14451 -1.42077,5.81461 -1.26412,1.3589 -2.43163,2.47682 -2.59375,2.48369 -0.39947,0.0168 0.10413,-1.91443 1.43854,-5.52121 0.87512,-2.36539 1.28935,-3.3461 1.71056,-3.44427 z m -36.91868,7.52981 c 0.0863,0.006 0.13709,0.0683 0.14249,0.19657 0.0641,1.51171 -1.14434,5.15375 -2.06298,6.21866 -1.95613,2.26732 -3.24987,1.01149 -1.91956,-1.86315 0.88031,-1.90228 3.23584,-4.59569 3.84005,-4.55208 z"
           id="path9724-3"
           inkscape:connector-curvature="0" />
        <path
           inkscape:connector-curvature="0"
           id="path9726"
           d="m 456.88918,143.82842 c -1.07436,0.0548 -1.95468,0.45354 -1.93092,0.92049 0.0107,0.21154 -0.0562,0.55442 -0.14897,0.76235 -0.0927,0.20781 -0.24908,0.62117 -0.34708,0.91863 -1.26076,3.83714 -2.33433,7.744 -3.84858,11.68161 -0.93505,2.71727 -1.98465,5.01806 -2.25409,4.94032 -0.13022,-0.0381 -0.2648,-0.4408 -0.29885,-0.89581 -0.11975,-1.59893 -0.18142,-1.7715 -0.75117,-2.10465 -0.54918,-0.32117 -0.58731,-0.31722 -0.86272,0.0924 -0.45812,0.68078 -0.13439,2.57023 0.62315,3.63761 0.41333,0.5824 0.58847,1.03385 0.51294,1.32192 -0.13974,0.53286 -2.55341,3.8691 -3.25186,4.49493 -0.27683,0.24802 -1.0147,0.6508 -1.63977,0.89467 -0.92734,0.36186 -1.24897,0.40313 -1.74794,0.22558 -0.76088,-0.27081 -1.53854,-1.41341 -1.58518,-2.32951 -0.038,-1.48483 0.90547,-3.9936 1.30309,-5.59077 0.48329,-0.93012 0.44602,-1.86294 -0.0736,-1.83654 -0.60466,0.0309 -1.90487,2.20373 -2.57621,4.30575 -0.3881,1.22337 -0.69884,2.31492 0.0161,3.65991 0.34287,0.63859 0.84005,1.43878 1.10481,1.77829 4.71978,5.90335 9.64392,3.44829 13.76761,-2.46803 1.00165,-1.50567 0.87972,-1.46279 3.59058,-1.26089 1.6242,0.12094 2.02255,0.0784 3.40889,-0.36425 0.86338,-0.27564 1.59701,-0.47858 1.63013,-0.45085 0.0333,0.0284 0.23178,0.79735 0.44166,1.71032 1.24881,5.4322 3.4108,9.09808 5.91129,10.02307 1.91822,0.70954 2.72044,0.37124 4.94222,-2.08412 1.45324,-1.60601 3.07874,-4.00436 3.05326,-4.50499 -0.005,-0.10321 0.28821,-0.78294 0.65196,-1.51048 0.36374,-0.72753 0.6816,-1.53492 0.7063,-1.79433 0.0598,-0.62729 0.55924,-0.81155 0.58946,-0.21746 0.0128,0.25076 0.14431,0.65663 0.2922,0.90205 0.35666,0.59199 1.44035,3.8855 1.46995,4.46731 0.0164,0.32269 -0.26576,0.64852 -0.9514,1.09863 -1.21672,0.79878 -2.83516,2.45845 -3.24797,3.33077 -0.17195,0.36343 -0.44212,1.15013 -0.60031,1.74818 -0.59648,2.27463 1.87428,4.26608 4.25084,5.28026 1.25694,0.38323 2.29506,0.27922 3.50726,-0.35169 1.34178,-0.69829 1.71604,-0.51393 2.31505,-2.17502 0.81408,-2.25712 0.81715,-3.50793 0.58288,-5.04901 -0.4304,-2.83131 -0.5751,-3.54979 -0.78715,-3.90876 -0.15651,-0.26495 -0.12787,-0.40349 0.10547,-0.50691 0.46073,-0.2042 0.36769,-0.73721 -0.12431,-0.71219 -0.34092,0.017 -0.55197,-0.35334 -1.17996,-2.07296 -0.92055,-2.52055 -1.00459,-3.92944 -0.42068,-7.03846 l 0.39641,-2.11067 -0.60004,-0.7085 c -1.06246,-1.22983 -3.06564,-1.08847 -4.52529,-0.31605 -0.74996,0.58118 -1.21906,1.86778 -1.37005,3.75899 -0.1073,1.34416 -0.31192,2.1226 -0.8643,3.28696 -2.42425,5.10999 -4.92099,8.91607 -6.02646,9.18625 -0.63961,0.15633 -0.79204,-0.0318 -1.03301,-1.27517 -0.10114,-0.52181 -0.32015,-1.51619 -0.48665,-2.2096 -0.83986,-3.5114 -1.77042,-7.64286 -1.8542,-12.45485 -0.0823,-0.81468 -0.36363,-3.38462 -0.62499,-5.71104 -0.50131,-4.46225 -0.54293,-5.12686 -0.45331,-7.26183 0.0485,-1.15281 -0.0111,-1.41359 -0.4409,-1.93707 -0.38648,-0.47066 -0.71406,-0.62035 -1.47634,-0.67428 -0.53883,-0.0381 -1.94814,-0.16562 -3.13179,-0.28367 -1.18366,-0.1179 -2.61793,-0.23453 -3.18738,-0.25888 -0.15931,-0.006 -0.31666,-0.006 -0.47014,0 z m 2.44469,8.80928 c 0.0463,0.042 0.24777,1.44484 0.44747,3.1175 0.19968,1.67268 0.54584,4.03108 0.76952,5.24071 0.22368,1.20973 0.36814,2.31824 0.32079,2.46338 -0.0474,0.14505 -0.54016,0.4869 -1.09527,0.75996 -0.77734,0.38229 -1.45145,0.51878 -2.93259,0.59418 -1.05766,0.0538 -1.92687,0.0206 -1.93171,-0.0745 -0.005,-0.0948 0.19375,-0.65525 0.44111,-1.24548 0.80343,-1.91662 1.18599,-2.96324 2.55185,-6.9787 0.73951,-2.17418 1.3825,-3.91884 1.42883,-3.87702 z m 29.40002,0.36121 c -0.19694,0.005 -0.37583,0.0337 -0.51623,0.0958 -0.31669,0.14033 -0.31481,0.17868 0.0248,0.5175 0.20163,0.20123 0.37325,0.49683 0.38139,0.65693 0.007,0.16 0.2074,0.83638 0.44272,1.50289 0.23534,0.66646 0.45924,1.20993 0.49751,1.20798 0.0383,0 0.32397,-0.15174 0.63477,-0.33312 1.16262,-0.67814 1.27827,-2.06836 0.25477,-3.05882 -0.37427,-0.36222 -1.12872,-0.59865 -1.7196,-0.58921 z m 38.2178,1.4403 c -1.71761,0.0874 -2.27389,0.4468 -2.4242,1.56544 -0.0589,0.43828 -0.38966,1.72039 -0.73502,2.84934 -0.34537,1.12891 -0.66661,2.26984 -0.71381,2.53551 -0.10723,0.60353 -0.36824,0.62989 -0.70491,0.0712 -0.74541,-1.23727 -4.14742,-1.32822 -7.70853,-0.2063 -1.1027,0.34748 -2.07257,1.56083 -2.79078,3.49169 -0.56314,1.51399 -0.60749,1.84744 -0.5095,3.82627 l 0.10738,2.16773 -0.83251,0.95331 c -1.19899,1.4225 -2.01169,3.3561 -3.01899,4.78682 -0.11669,0.006 -0.22641,-0.26934 -0.24384,-0.61174 -0.0339,-0.66568 0.35156,-3.40559 0.60478,-4.29866 0.0841,-0.29676 0.25619,-0.92772 0.38197,-1.402 0.12576,-0.47443 0.41733,-1.35061 0.648,-1.94729 1.64936,-4.26652 1.72018,-4.62382 1.06762,-5.3718 -0.65318,-0.74871 -1.50485,-1.02113 -3.44629,-1.10177 -1.94088,-0.0806 -2.27351,0.0789 -2.97245,1.42378 -0.2824,0.54351 -0.5345,0.98899 -0.56045,0.99032 -0.0259,0 -0.0721,-0.4096 -0.10228,-0.91341 -0.0748,-1.2447 -0.4975,-2.05066 -1.34298,-2.55977 -1.94565,-1.07569 -6.87195,-0.88533 -8.22478,1.156 -0.4548,0.68607 -1.01479,1.69385 -1.24463,2.23952 -0.48212,1.1447 -0.75401,4.17703 -0.46405,5.17659 0.62936,2.16939 2.3747,4.40877 3.95594,5.07586 3.35122,1.27757 4.23525,-0.61031 5.94601,-2.85858 0.0581,-0.007 0.14813,0.82068 0.20007,1.84167 0.0801,1.57467 0.18908,2.02891 0.71738,2.99442 0.65748,1.20163 2.26432,2.74726 3.54336,3.4079 0.42052,0.21726 0.95335,0.34308 1.18409,0.27975 2.32569,-0.6287 2.97997,-4.77435 4.45717,-6.69753 l 0.84108,-1.18308 0.47658,0.59428 c 1.36066,1.69643 2.71461,2.27741 4.63268,1.98827 0.71963,-0.10846 1.33831,-0.24337 1.37457,-0.29996 0.0363,-0.0565 0.17441,-0.35006 0.30713,-0.65241 0.13271,-0.3022 0.67569,-0.8563 1.20654,-1.23116 0.65351,-0.45932 1.22526,-0.8602 1.55127,0.38959 0.0383,0.75565 1.19985,2.37413 2.56909,3.5805 1.45782,1.2844 2.31981,1.67966 3.30516,1.51547 1.79598,-0.4563 4.36208,-3.87074 2.70375,-5.39128 -0.69547,-0.4067 -1.25686,-0.10797 -1.22831,0.65341 0.0674,1.78983 -1.53338,3.36969 -1.7335,1.71105 -0.33619,-2.78592 -0.24008,-4.80369 0.36484,-7.62247 0.59585,-2.76305 1.50787,-5.77871 1.70166,-8.87344 0.39779,-2.24329 0.40131,-2.44001 0.0571,-3.07639 -0.45859,-0.84778 -1.09196,-1.05878 -2.90334,-0.96661 z m -26.93857,7.45812 c 0.13381,-0.0118 0.30518,-0.006 0.4811,0.0107 0.55965,0.0532 0.70441,0.21422 1.15856,1.28704 0.2855,0.67424 0.57817,1.22441 0.65014,1.22241 0.0719,-0.005 0.268,0.0741 0.43563,0.1686 0.2499,0.14103 0.22188,0.30451 -0.15483,0.90856 -0.74538,1.19511 -4.18675,5.48995 -4.5971,5.73719 -0.73926,0.44547 -0.87145,0.30508 -0.81647,-0.86675 0.0798,-1.59272 0.67138,-3.37816 1.84536,-5.00491 0.6541,-0.92733 0.74581,-1.21395 0.69664,-2.18011 -0.0311,-0.61178 -0.012,-1.1622 0.0428,-1.22284 0.0274,-0.0303 0.12418,-0.0513 0.25815,-0.0601 z m 19.97676,0.34059 c 0.55768,-0.0283 1.32475,0.40284 1.68462,0.9469 0.32652,0.49359 0.33973,0.69404 0.12654,1.8916 -0.24948,1.40113 -0.68762,2.45302 -1.55639,3.73488 -0.5212,0.76909 -0.68848,0.9623 -1.76292,2.04064 -2.09721,2.10486 -2.24051,-0.12015 -0.30231,-4.69328 0.5321,-1.2554 1.0929,-2.64793 1.24633,-3.09437 0.15343,-0.44647 0.40729,-0.8184 0.56414,-0.82637 z m -40.24197,12.62211 c 0.315,-0.021 0.36849,0.59002 0.32331,1.90582 -0.0857,2.49746 -0.48075,3.6272 -1.55588,4.4498 -1.41029,1.07907 -2.06285,0.12557 -1.40458,-2.05247 0.39543,-1.32774 0.26678,-1.64432 1.35022,-3.14927 0.63847,-0.74161 1.0419,-1.13833 1.28693,-1.15388 z"
           style="display:inline;fill:#1f5c79;fill-opacity:1" />
      </g>
      <g
         id="text9776"
         style="font-style:normal;font-variant:normal;font-weight:500;font-stretch:normal;font-size:10px;line-height:150%;font-family:'Futura Book';-inkscape-font-specification:'Futura Book, Medium';letter-spacing:1px;word-spacing:0px;display:inline;fill:#1f5c79;fill-opacity:1;stroke:none;stroke-width:1px;stroke-linecap:butt;stroke-linejoin:miter;stroke-opacity:1">
        <path
           d="m 315.07407,602.99609 0.84,0 0,-5.81 5.88,6.15 0,-7.88 -0.84,0 0,5.84 -5.88,-6.16 0,7.86 z m -3.69219,-2.14 0.89,2.14 0.93,0 -3.39,-7.9 -3.48,7.9 0.92,0 0.91,-2.14 3.22,0 z m -0.33,-0.78 -2.55,0 1.29,-3.02 1.26,3.02 z m -14.53484,2.92 0.86,0 0.97,-5.1 0.02,0 2.42,5.41 2.43,-5.41 0.02,0 0.97,5.1 0.86,0 -1.53,-7.97 -2.75,6.33 -2.74,-6.33 -1.53,7.97 z m -5.72328,-4.31 0,-3.23 -0.84,0 0,7.54 0.84,0 0,-3.25 0.21,-0.21 3.09,3.46 1.16,0 -3.66,-4.03 3.54,-3.51 -1.13,0 -3.21,3.23 z m -7.87547,-3.23 -0.84,0 0,4.72 c 0,0.86 0.08,1.55 0.74,2.18 0.51,0.5 1.24,0.77 1.95,0.77 0.76,0 1.51,-0.3 2.03,-0.86 0.6,-0.62 0.66,-1.27 0.66,-2.09 l 0,-4.72 -0.84,0 0,4.49 c 0,0.59 0.03,1.25 -0.37,1.73 -0.35,0.42 -0.94,0.67 -1.48,0.67 -0.55,0 -1.19,-0.26 -1.52,-0.72 -0.35,-0.48 -0.33,-1.12 -0.33,-1.68 l 0,-4.49 z m -6.39016,0.78 0.25,0 c 1.01,0 1.92,0.12 1.92,1.36 0,1.17 -0.96,1.35 -1.91,1.35 l -0.26,0 0,-2.71 z m 0,3.45 0.21,0 2.28,3.31 1.03,0 -2.4,-3.38 c 1.16,-0.1 1.89,-0.92 1.89,-2.08 0,-1.7 -1.33,-2.08 -2.76,-2.08 l -1.09,0 0,7.54 0.84,0 0,-3.31 z m -14.19625,3.31 0.84,0 0,-5.81 5.88,6.15 0,-7.88 -0.84,0 0,5.84 -5.88,-6.16 0,7.86 z m -2.57281,-7.54 -0.84,0 0,7.54 0.84,0 0,-7.54 z m -6.7036,4.04 0.73,0 c 0.92,0 2.04,0.17 2.04,1.34 0,1.15 -0.99,1.38 -1.93,1.38 l -0.84,0 0,-2.72 z m -0.84,3.5 1.75,0 c 1.49,0 2.7,-0.6 2.7,-2.1 0,-0.9 -0.53,-1.71 -1.43,-1.93 0.51,-0.34 0.74,-0.86 0.74,-1.47 0,-1.54 -1.15,-2.04 -2.52,-2.04 l -1.24,0 0,7.54 z m 0.84,-6.76 0.33,0 c 1.03,0 1.75,0.12 1.75,1.26 0,1.17 -0.81,1.28 -1.76,1.28 l -0.32,0 0,-2.54 z"
           style="font-style:normal;font-variant:normal;font-weight:500;font-stretch:normal;font-size:10px;line-height:150%;font-family:'Futura Book';-inkscape-font-specification:'Futura Book, Medium';text-align:center;letter-spacing:1px;text-anchor:middle;fill:#1f5c79;fill-opacity:1"
           id="path6176"
           inkscape:connector-curvature="0" />
      </g>
      <path
         id="path6155"
         style="font-style:normal;font-variant:normal;font-weight:500;font-stretch:normal;font-size:10px;line-height:150%;font-family:'Futura Book';-inkscape-font-specification:'Futura Book, Medium';text-align:center;letter-spacing:1px;word-spacing:0px;text-anchor:middle;fill:#1f5c79;fill-opacity:1;stroke:none;stroke-width:1px;stroke-linecap:butt;stroke-linejoin:miter;stroke-opacity:1"
         d="m 361.97515,517.99609 1.4,0 c 1.18,0 2.08,-0.15 2.98,-0.95 0.83,-0.74 1.23,-1.71 1.23,-2.81 0,-1.12 -0.39,-2.13 -1.25,-2.87 -0.89,-0.76 -1.81,-0.91 -2.94,-0.91 l -1.42,0 0,7.54 z m 0.84,-0.78 0,-5.98 0.61,0 c 0.89,0 1.65,0.12 2.34,0.73 0.65,0.57 0.98,1.4 0.98,2.26 0,0.84 -0.32,1.63 -0.94,2.21 -0.69,0.65 -1.46,0.78 -2.38,0.78 l -0.61,0 z m -4.48219,-1.36 0.89,2.14 0.93,0 -3.39,-7.9 -3.48,7.9 0.92,0 0.91,-2.14 3.22,0 z m -0.33,-0.78 -2.55,0 1.29,-3.02 1.26,3.02 z m -9.35312,-0.87 0,0.78 2.24,0 c 0,1.4 -1.38,2.36 -2.69,2.36 -0.79,0 -1.59,-0.41 -2.14,-0.96 -0.56,-0.57 -0.88,-1.33 -0.88,-2.13 0,-1.7 1.36,-3.15 3.08,-3.15 1.11,0 1.96,0.53 2.59,1.42 l 0.61,-0.57 c -0.8,-1.04 -1.87,-1.63 -3.19,-1.63 -2.17,0 -3.93,1.76 -3.93,3.92 0,2.12 1.76,3.88 3.88,3.88 1.05,0 2.1,-0.46 2.79,-1.26 0.69,-0.8 0.8,-1.64 0.78,-2.66 l -3.14,0 z m -13.14032,3.79 0.84,0 0,-5.81 5.88,6.15 0,-7.88 -0.84,0 0,5.84 -5.88,-6.16 0,7.86 z m -2.54593,-6.5 c -0.4,-0.74 -1.11,-1.17 -1.95,-1.17 -1.12,0 -2.11,0.75 -2.11,1.92 0,1.08 0.76,1.53 1.64,1.93 l 0.46,0.2 c 0.7,0.32 1.39,0.62 1.39,1.5 0,0.85 -0.74,1.47 -1.55,1.47 -0.81,0 -1.4,-0.63 -1.51,-1.4 l -0.82,0.23 c 0.24,1.17 1.14,1.95 2.35,1.95 1.31,0 2.37,-1.01 2.37,-2.33 0,-1.2 -0.83,-1.69 -1.81,-2.12 l -0.5,-0.22 c -0.51,-0.23 -1.18,-0.53 -1.18,-1.18 0,-0.69 0.58,-1.17 1.25,-1.17 0.64,0 1,0.3 1.3,0.82 l 0.67,-0.43 z m -7.73219,4.36 0.89,2.14 0.93,0 -3.39,-7.9 -3.48,7.9 0.92,0 0.91,-2.14 3.22,0 z m -0.33,-0.78 -2.55,0 1.29,-3.02 1.26,3.02 z m -15.88328,2.92 1.4,0 c 1.18,0 2.08,-0.15 2.98,-0.95 0.83,-0.74 1.23,-1.71 1.23,-2.81 0,-1.12 -0.39,-2.13 -1.25,-2.87 -0.89,-0.76 -1.81,-0.91 -2.94,-0.91 l -1.42,0 0,7.54 z m 0.84,-0.78 0,-5.98 0.61,0 c 0.89,0 1.65,0.12 2.34,0.73 0.65,0.57 0.98,1.4 0.98,2.26 0,0.84 -0.32,1.63 -0.94,2.21 -0.69,0.65 -1.46,0.78 -2.38,0.78 l -0.61,0 z m -4.48219,-1.36 0.89,2.14 0.93,0 -3.39,-7.9 -3.48,7.9 0.92,0 0.91,-2.14 3.22,0 z m -0.33,-0.78 -2.55,0 1.29,-3.02 1.26,3.02 z m -14.53484,2.92 0.86,0 0.97,-5.1 0.02,0 2.42,5.41 2.43,-5.41 0.02,0 0.97,5.1 0.86,0 -1.53,-7.97 -2.75,6.33 -2.74,-6.33 -1.53,7.97 z m -9.96485,0 0.86,0 0.97,-5.1 0.02,0 2.42,5.41 2.43,-5.41 0.02,0 0.97,5.1 0.86,0 -1.53,-7.97 -2.75,6.33 -2.74,-6.33 -1.53,7.97 z m -3.09218,-2.14 0.89,2.14 0.93,0 -3.39,-7.9 -3.48,7.9 0.92,0 0.91,-2.14 3.22,0 z m -0.33,-0.78 -2.55,0 1.29,-3.02 1.26,3.02 z m -11.28844,-1.56 0,-3.06 -0.84,0 0,7.54 0.84,0 0,-3.7 3.86,0 0,3.7 0.84,0 0,-7.54 -0.84,0 0,3.06 -3.86,0 z m -3.29797,-2.45 c -0.67,-0.5 -1.41,-0.74 -2.25,-0.74 -2.16,0 -3.93,1.77 -3.93,3.93 0,2.14 1.8,3.87 3.93,3.87 0.8,0 1.6,-0.27 2.25,-0.74 l 0,-1.04 c -0.6,0.6 -1.43,1 -2.28,1 -1.69,0 -3.06,-1.46 -3.06,-3.12 0,-1.66 1.36,-3.12 3.04,-3.12 0.87,0 1.7,0.38 2.3,1 l 0,-1.04 z m -12.78547,-0.61 -0.84,0 0,4.72 c 0,0.86 0.08,1.55 0.74,2.18 0.51,0.5 1.24,0.77 1.95,0.77 0.76,0 1.51,-0.3 2.03,-0.86 0.6,-0.62 0.66,-1.27 0.66,-2.09 l 0,-4.72 -0.84,0 0,4.49 c 0,0.59 0.03,1.25 -0.37,1.73 -0.35,0.42 -0.94,0.67 -1.48,0.67 -0.55,0 -1.19,-0.26 -1.52,-0.72 -0.35,-0.48 -0.33,-1.12 -0.33,-1.68 l 0,-4.49 z m -11.33484,7.54 0.86,0 0.97,-5.1 0.02,0 2.42,5.41 2.43,-5.41 0.02,0 0.97,5.1 0.86,0 -1.53,-7.97 -2.75,6.33 -2.74,-6.33 -1.53,7.97 z m -6.05875,-7.54 -0.84,0 0,7.54 0.84,0 0,-7.54 z m -4.5475,0.78 1.84,0 0,-0.78 -4.5,0 0,0.78 1.82,0 0,6.76 0.84,0 0,-6.76 z m -11.27032,6.76 0.84,0 0,-5.81 5.88,6.15 0,-7.88 -0.84,0 0,5.84 -5.88,-6.16 0,7.86 z m -2.57281,-7.54 -0.84,0 0,7.54 0.84,0 0,-7.54 z m -6.70359,4.04 0.73,0 c 0.92,0 2.04,0.17 2.04,1.34 0,1.15 -0.99,1.38 -1.93,1.38 l -0.84,0 0,-2.72 z m -0.84,3.5 1.75,0 c 1.49,0 2.7,-0.6 2.7,-2.1 0,-0.9 -0.53,-1.71 -1.43,-1.93 0.51,-0.34 0.74,-0.86 0.74,-1.47 0,-1.54 -1.15,-2.04 -2.52,-2.04 l -1.24,0 0,7.54 z m 0.84,-6.76 0.33,0 c 1.03,0 1.75,0.12 1.75,1.26 0,1.17 -0.81,1.28 -1.76,1.28 l -0.32,0 0,-2.54 z"
         inkscape:connector-curvature="0" />
    </g>
    <path
       inkscape:connector-curvature="0"
       id="path4148"
       d="m 255.75726,925.98109 q -2.65222,4.36647 -7.89198,4.36647 -3.07268,0 -5.11037,-1.52018 -2.03766,-1.52019 -2.03766,-4.98098 0,-3.84894 2.74923,-6.3718 2.74927,-2.52284 8.24776,-4.56051 1.52018,-0.54986 5.01333,-1.77897 3.52554,-1.26142 6.72759,-2.45812 3.20206,-1.22909 5.40146,-2.29642 3.26675,-1.58487 5.0457,-3.29911 1.77892,-1.7466 1.77892,-4.07535 0,-1.58487 -0.87328,-2.87862 -0.84094,-1.32614 -2.36115,-2.07003 -1.48781,-0.74392 -3.2991,-0.74392 -1.74658,0 -2.13468,0.58218 0.67922,0.38813 1.03499,1.06736 0.35579,0.67922 0.35579,1.45546 0,1.0027 -0.61453,1.87598 -0.61456,0.8733 -1.61722,1.3908 -1.00267,0.51753 -2.13471,0.51753 -1.3261,0 -2.16707,-0.74394 -0.80858,-0.74392 -0.80858,-2.03767 0,-1.35847 0.90563,-2.42585 0.938,-1.09969 2.39344,-1.74655 2.1994,-0.93798 4.85164,-0.93798 3.81659,0 6.04836,1.87596 2.23175,1.87595 2.23173,5.69258 2e-5,3.36377 -1.94064,5.95129 -1.90828,2.58754 -6.14537,4.72226 -2.97568,1.4555 -10.57656,4.23708 4.81929,4.04299 4.81929,9.92965 0,4.3988 -2.6522,8.15071 -2.61989,3.75189 -7.6332,5.98368 -4.98108,2.23162 -11.77329,2.23171 -5.82195,0 -10.12372,-1.6819 -4.30176,-1.68189 -6.63052,-4.81925 -2.32878,-3.13739 -2.32878,-7.47149 0,-3.88131 1.84363,-7.27745 1.8436,-3.39611 5.07805,-5.8219 3.23438,-2.42585 7.30974,-3.55789 -2.23175,-1.1967 -3.42849,-3.16971 -1.19674,-2.00533 -1.1967,-4.23708 0,-2.87861 1.94059,-5.01335 1.97301,-2.13472 5.01335,-3.26676 3.04037,-1.13204 6.14539,-1.13204 2.45816,0 4.30177,0.74394 1.84365,0.71154 2.84628,2.00536 1.0027,1.29375 1.0027,3.00797 0,1.61721 -0.84099,2.74923 -0.80859,1.09971 -2.10234,1.68189 -1.29375,0.5499 -2.68455,0.54986 l 0.12927,-1.19672 q 1.84361,0 2.97571,-0.97031 1.132,-0.97033 1.132,-2.65224 0,-2.1994 -1.81126,-3.5255 -1.81127,-1.32612 -4.59287,-1.32612 -2.68456,2e-5 -4.81927,1.29377 -2.13472,1.2614 -3.33144,3.5255 -1.19674,2.23175 -1.19674,5.0457 0,3.0727 1.45548,5.49849 2.36111,-0.38817 4.17241,-0.38813 2.39343,0 2.39343,1.3908 0,0.71159 -0.61453,1.06734 -0.61451,0.32344 -1.45546,0.32349 -1.64954,0 -4.56055,-1.45549 -3.00799,0.87326 -5.3044,2.8139 -2.29645,1.94065 -3.5902,4.59287 -1.26144,2.65222 -1.26144,5.62789 0,3.88129 2.1347,6.63054 2.13473,2.7169 5.88664,4.10771 3.75196,1.3908 8.60353,1.3908 5.14271,0 9.28277,-1.52019 4.1724,-1.52018 6.56586,-4.33411 2.39348,-2.81391 2.39348,-6.46881 0,-2.42579 -1.13204,-4.75459 -1.09971,-2.3288 -3.33145,-3.94601 -6.7923,2.49051 -8.40949,3.13741 -2.97565,1.16439 -4.981,2.68453 -1.97297,1.48786 -1.97297,3.88132 0,2.03768 1.61719,3.2344 1.64957,1.19674 4.01068,1.19674 2.61989,0 4.26943,-1.29379 1.64952,-1.29375 2.49047,-2.61985 l 0.87332,0.61453 z"
       style="font-style:italic;font-variant:normal;font-weight:normal;font-stretch:normal;font-size:87.88827515px;line-height:125%;font-family:'Playfair Display';-inkscape-font-specification:'Playfair Display Italic';letter-spacing:1.75776589px;word-spacing:0px;fill:#1f5c79;fill-opacity:1;stroke:none;stroke-width:1px;stroke-linecap:butt;stroke-linejoin:miter;stroke-opacity:1" />
    <g
       style="display:inline;fill:#1f5c79;fill-opacity:1"
       transform="matrix(2.0093227,0,0,2.0093227,-606.16749,527.84821)"
       id="g4150">
      <path
         style="display:inline;fill:#1f5c79;fill-opacity:1"
         d="m 327.74922,211.71984 c -0.0767,0.003 -0.13633,0.0148 -0.17598,0.0369 -0.29266,0.16531 -1.31943,2.00474 -2.28231,4.08763 -1.68086,3.63581 -5.94894,11.49364 -6.99066,12.86987 -0.93702,1.23782 -1.57078,0.9093 -1.49,-0.77273 0.0847,-1.76191 -0.63601,-2.41611 -1.55497,-1.41092 -0.74859,0.81904 -0.52872,2.34193 0.49744,3.44676 0.44484,0.47895 0.73059,1.15664 0.63496,1.50589 -0.24311,0.88811 -4.38475,4.81275 -6.7464,6.39301 -2.58545,1.73003 -3.40029,1.30663 -3.85823,-2.00392 -0.59359,-4.29119 1.83432,-8.30132 5.31777,-8.78318 0.80684,-0.11162 1.21252,-0.41017 1.15198,-0.84776 -0.12454,-0.9003 -4.37883,-0.33699 -6.36765,0.84319 -2.73539,1.62311 -4.77443,6.00054 -4.06584,8.72921 1.04899,4.03958 6.41665,6.95299 10.37163,5.62958 2.08226,-0.69674 6.31069,-4.42673 8.78447,-7.74965 1.92892,-2.59094 2.17138,-2.76359 4.28674,-3.0562 l 2.24195,-0.31012 0.30532,2.13772 c 0.50478,3.52947 2.8438,6.50157 5.44321,6.91727 1.36041,0.21759 3.7074,-2.01206 3.89078,-3.69611 0.0696,-0.63946 0.27113,-1.75959 0.44807,-2.48934 l 0.32203,-1.32635 0.91572,2.00579 c 1.11948,2.45137 3.88091,4.44427 5.79144,4.17999 1.37769,-0.19059 1.47756,-0.41687 1.57126,-3.55812 0.0803,-2.69407 1.9986,-7.03238 3.18166,-7.19603 0.44449,-0.0616 0.49999,0.44434 0.26017,2.37345 -1.15967,9.32814 -0.59042,12.56828 2.57504,14.65615 0.96106,0.6339 2.02195,1.11506 2.35739,1.06866 1.16661,-0.16137 2.20716,-1.92701 2.65053,-4.49711 0.24536,-1.42223 0.70226,-3.5299 1.01583,-4.68331 l 0.57047,-2.09664 1.82469,1.61743 c 1.88258,1.66919 4.43495,2.4839 5.66225,1.80725 0.38506,-0.21229 0.8024,-1.196 0.92742,-2.18635 0.29433,-2.33172 0.86756,-2.76289 1.68309,-1.26544 1.54711,2.84075 5.27053,4.46828 7.46926,3.26487 0.62049,-0.33957 1.12015,-0.67632 1.11024,-0.74787 -0.0101,-0.0716 0.23396,-1.29458 0.54184,-2.71833 0.30792,-1.42376 0.48642,-3.1191 0.39683,-3.76675 -0.20501,-1.4822 0.32031,-4.25598 0.90542,-4.78188 0.74636,-0.67084 0.98702,-0.54026 1.44896,0.78738 0.58354,1.67701 3.44749,4.12134 5.44962,4.65035 1.68421,0.44501 3.04127,0.0458 4.1319,-1.21425 0.61212,-0.70745 0.69363,-0.53506 1.06273,2.25256 0.3066,2.3159 0.64383,3.26703 1.44893,4.08511 1.2476,1.26782 3.02371,1.72047 4.45787,1.13574 1.8522,-0.75517 4.59705,-4.81335 5.68701,-8.40759 0.936,-3.08628 1.14644,-3.40431 2.36432,-3.57279 1.06733,-0.14764 1.30917,-0.019 1.19874,0.63732 -1.40827,8.36814 -0.74021,11.23325 3.23021,13.85202 1.3898,0.91668 2.18469,1.1339 3.23167,0.88318 1.27807,-0.30607 1.53371,-0.74218 3.21109,-5.49253 1.00221,-2.83826 1.97147,-5.34735 2.15448,-5.57583 0.18297,-0.22847 0.40311,1.1444 0.48922,3.0508 0.19929,4.41278 1.2351,6.04044 4.76157,7.48482 2.06451,0.84558 3.12031,0.20056 3.97053,-2.42624 1.28001,-3.95409 3.24559,-7.59637 5.04214,-9.34382 1.39119,-1.35327 1.92946,-1.60422 3.30006,-1.53841 1.24702,0.06 1.61596,-0.0727 1.54898,-0.55667 -0.14918,-1.07852 -1.24459,-1.57666 -2.94813,-1.34101 -2.10131,0.29068 -4.26385,2.67319 -6.27165,6.90907 -2.1514,4.53872 -2.58648,5.33082 -2.95485,5.38177 -0.55452,0.0768 -0.68079,-3.85991 -0.26642,-8.29576 0.27323,-2.92468 0.22949,-4.3234 -0.14415,-4.60621 -0.29509,-0.22338 -1.58173,-0.36237 -2.8583,-0.30917 -2.92182,0.1218 -3.10019,0.32687 -6.54464,7.52768 -1.46632,3.06535 -2.89564,5.60575 -3.17663,5.64462 -0.78226,0.10821 -1.14879,-6.50384 -0.52583,-9.49061 l 0.52604,-2.52163 -1.44388,-0.86069 c -0.83123,-0.49531 -2.03829,-0.7725 -2.8439,-0.65266 -0.76984,0.11452 -2.01013,0.0556 -2.75662,-0.13141 -1.11477,-0.27922 -1.33576,-0.5398 -1.23553,-1.46047 0.17135,-1.5736 -0.36322,-2.33395 -1.92827,-2.74237 -2.97362,-0.77592 -4.00162,2.01941 -1.54116,4.19036 l 1.25283,1.10583 -1.08843,3.18654 c -1.1459,3.35586 -2.77678,6.31538 -3.53813,6.42068 -0.65008,0.0899 -0.58967,-4.06061 0.12031,-8.25424 0.69655,-4.11438 0.45089,-4.52686 -2.68449,-4.50938 -2.03263,0.0115 -2.21398,-0.0926 -3.06221,-1.751 -1.02376,-2.00175 -3.54684,-3.49193 -5.46335,-3.22683 -2.59151,0.35849 -3.80466,1.40692 -4.78133,4.13304 -1.29461,3.61327 -2.23051,3.65582 -2.97967,0.13519 -0.74469,-3.49967 -1.89734,-4.51206 -4.05169,-3.55834 -1.76733,0.78238 -2.10578,1.4096 -1.83795,3.41214 0.157,1.17461 0.66606,1.868 2.25319,3.06941 2.34105,1.77207 2.591,2.62104 1.79334,6.09554 -1.28722,5.60681 -2.40035,5.96363 -3.10041,0.99268 -0.43637,-3.09846 -1.04691,-3.65758 -3.60853,-3.30323 -2.24857,0.31104 -2.75024,0.85949 -3.67321,4.01828 -0.48824,1.67073 -1.09836,3.06693 -1.3564,3.10262 -0.92466,0.12791 -1.19807,-7.05328 -0.43733,-11.4883 0.12123,-0.70687 -0.28957,-1.01189 -2.03972,-1.51328 -1.20543,-0.34533 -2.37613,-0.4747 -2.60165,-0.28818 -0.82151,0.67943 -1.3236,3.00977 -1.40022,6.49872 -0.0432,1.96221 -0.24602,3.59082 -0.45044,3.61911 -0.20435,0.0283 -0.89648,1.68599 -1.5385,3.68445 -0.64207,1.99845 -1.2832,3.5462 -1.42458,3.43921 -0.14128,-0.10699 -0.0268,-2.55551 0.25487,-5.44124 0.43493,-4.45822 0.40046,-5.49189 -0.23121,-6.87454 -0.87177,-1.90798 -1.9133,-2.39754 -4.37291,-2.05731 -1.56819,0.21694 -1.98708,0.54147 -3.3434,2.59226 -0.85275,1.28937 -1.52806,2.50927 -1.50017,2.71108 0.0279,0.2018 -0.35263,1.18321 -0.8456,2.1813 l -0.89624,1.81542 -0.47378,-3.42491 c -0.3107,-2.2462 -0.29277,-3.99396 0.0514,-5.07787 0.6395,-2.01362 0.25805,-2.80442 -1.6869,-3.49197 -1.45253,-0.51346 -1.51697,-0.48949 -2.62055,0.96844 -0.62215,0.82186 -1.18898,2.09661 -1.26015,2.83295 -0.0712,0.73633 -0.34998,1.67944 -0.61986,2.09629 -0.26989,0.41684 -1.16069,2.77025 -1.97921,5.22889 -0.81847,2.45865 -1.70298,4.37497 -1.96554,4.25895 -0.727,-0.32126 -0.85183,-5.91232 -0.26599,-11.88938 0.65737,-6.70519 0.92589,-9.94721 0.86276,-10.40336 -0.0838,-0.60603 -5.11007,-2.64691 -6.2602,-2.60477 z m -0.39407,11.74402 c 0.21563,-0.0298 0.19081,2.71422 -0.0388,4.25054 -0.12864,0.86107 -1.20967,1.21162 -2.25874,0.73285 -0.45846,-0.20924 -0.26883,-0.88889 0.7314,-2.61817 0.7431,-1.28468 1.44766,-2.34885 1.56597,-2.36522 z m 48.03845,-5.03879 c 0.35581,-0.0492 0.90092,0.52616 1.21136,1.27918 l 0,0 c 0.31087,0.75294 0.46316,1.83427 0.33789,2.40303 -0.2056,0.93346 -0.29661,0.97172 -0.92878,0.39379 -0.9905,-0.90554 -1.45472,-3.96059 -0.61943,-4.07614 z m 12.79097,-0.52609 c 0.29167,-0.0104 0.61615,0.34124 1.00179,1.02761 1.4639,2.60548 1.73606,4.35266 0.92103,5.9132 -0.42746,0.81847 -1.31922,1.99906 -1.98113,2.62343 -1.05097,0.99141 -1.25001,1.05014 -1.57351,0.46327 -0.53338,-0.96736 -0.43249,-3.1962 0.31081,-6.83747 0.43912,-2.15135 0.83496,-3.17298 1.32101,-3.19004 z m 35.14882,-3.52828 c -0.41543,0.0388 -0.78601,0.16237 -1.05981,0.39309 -0.99855,0.8414 -0.77212,2.29799 0.41974,2.69737 1.55655,0.5216 3.82842,0.18586 4.34196,-0.64182 0.73981,-1.19256 -1.90176,-2.61673 -3.70189,-2.44863 z"
         id="path4152"
         inkscape:connector-curvature="0" />
      <path
         inkscape:connector-curvature="0"
         id="path4154"
         d="m 459.95414,212.02847 c -1.55827,0.0555 -4.71444,0.86213 -8.8243,2.2738 -1.18815,0.4081 -2.42271,0.68079 -3.0498,0.67373 -0.85846,-0.009 -1.0523,0.0595 -1.04663,0.37257 0.0199,1.09145 2.97767,1.71823 4.9029,1.03896 0.50953,-0.17973 0.96087,-0.29261 1.00296,-0.25049 0.042,0.0421 0.12485,1.96452 0.18403,4.2721 0.0592,2.30758 0.15519,4.54488 0.21348,4.97187 0.0582,0.42699 0.16605,1.57482 0.23948,2.55073 0.26726,3.55255 0.75714,6.53624 1.22304,7.44944 0.4984,0.97709 0.49804,1.02291 -0.01,1.09524 -0.80673,0.11483 -1.50105,-0.0346 -1.90474,-0.41105 -0.79838,-0.74383 -1.63695,-1.19686 -1.9751,-1.06712 -0.90013,0.34544 0.21358,2.36713 1.63546,2.96873 0.44139,0.18673 1.85068,0.40262 3.13159,0.47997 3.50418,0.20593 4.29068,-0.77532 7.60612,-3.28649 0.68872,-0.4188 1.02005,-0.48432 1.82987,-0.36281 0.93639,0.14034 0.98876,0.12013 0.98876,-0.38236 0,-0.79036 -0.80937,-1.12051 -2.47588,-1.01022 -1.07469,0.0712 -1.62872,0.24159 -2.35285,0.72471 -0.52094,0.34752 -0.98971,0.58958 -1.04178,0.53752 -0.56845,-0.56848 -1.07383,-15.57733 -0.53232,-16.22977 0.23991,-0.28912 0.40825,-1.0465 0.12199,-4.01187 -0.0223,-0.23084 0.10013,-0.46893 0.27204,-0.52923 0.2177,-0.0763 0.26967,0.006 0.17087,0.25995 -0.20967,0.54642 0.7484,0.9239 1.67462,0.65987 1.05839,-0.30169 1.11593,-1.1766 0.12718,-1.93076 -0.404,-0.30814 -0.9872,-0.65618 -1.29582,-0.77351 -0.18151,-0.069 -0.45586,-0.0963 -0.81546,-0.0835 z m 16.14868,0.52953 c -0.23677,0.006 -0.42188,0.0402 -0.52124,0.11473 -0.918,0.64847 -1.80321,-0.0464 -2.72888,1.7536 -2.19569,3.01384 -3.41185,5.51625 -3.83235,9.73476 l -0.14625,1.77442 -0.99153,0.0707 c -1.27792,0.091 -2.84617,-0.35059 -3.13019,-0.8813 -0.12223,-0.22842 -0.16572,-0.90916 -0.0967,-1.51276 0.11514,-1.00715 0.0772,-1.12899 -0.45989,-1.48091 -0.52535,-0.34421 -0.64507,-0.34998 -1.16967,-0.0557 -0.80211,0.44982 -1.01139,1.91814 -0.44153,3.09763 0.71561,1.48115 2.20889,2.34115 4.60207,2.65089 1.53345,0.19842 1.78973,0.40693 1.79488,1.45937 0.005,0.8742 0.73154,2.99581 1.44276,4.20944 0.62678,1.06958 2.21747,2.54713 3.29065,3.05639 1.42289,0.67516 3.37969,-0.12723 4.17857,-1.71346 0.78963,-1.56777 0.85338,-1.58878 1.49301,-0.49037 1.90853,3.27744 4.93033,4.57078 6.52067,2.79091 0.47416,-0.53066 0.60189,-0.85044 0.5008,-1.25325 -0.0748,-0.29786 0.004,-0.80982 0.17294,-1.14053 0.37763,-0.73414 0.75246,-1.79147 1.16238,-3.27853 0.34045,-1.23493 1.80657,-3.86484 2.15461,-3.86484 0.13454,0 0.15968,0.40525 0.0652,1.05349 -0.41968,2.8779 -0.41305,3.25391 0.0752,4.29259 0.2622,0.55787 0.98023,1.497 1.59594,2.08702 0.9885,0.94732 1.2538,1.08359 2.2662,1.16519 1.03298,0.0832 1.20467,0.0303 1.73318,-0.53756 0.32265,-0.34658 0.85379,-1.14783 1.18041,-1.78068 0.70608,-1.35542 1.70417,-2.885 2.66962,-4.25718 0.48152,-0.73234 0.91285,-1.29414 0.95826,-1.2487 0.0454,0.0455 -0.11513,0.6133 -0.35663,1.26224 -0.70329,1.88958 -1.56609,6.10488 -1.71689,8.38832 -0.11997,2.00537 0.54736,5.72708 3.63341,5.98869 0.93829,0 1.15557,-0.0946 1.77062,-0.77049 0.38557,-0.42368 0.7011,-0.97232 0.7011,-1.21916 0,-0.73508 1.24469,-3.14643 2.53203,-4.90532 0.66189,-0.90435 1.34968,-1.8441 1.52836,-2.0881 0.31461,-0.42955 0.36045,-0.40774 1.44138,0.69002 1.37441,1.39581 2.56888,1.78943 4.20213,1.38416 1.39949,-0.34723 1.85606,-0.66905 2.37641,-1.67531 0.78304,-1.49165 1.87241,-2.87842 2.63496,-4.1044 0.21476,-0.82118 0.38078,-0.31315 0.42212,1.29206 0.0321,1.24505 0.15372,1.71029 0.6609,2.52442 1.30872,2.11224 2.0227,3.63059 5.06925,3.99245 1.12087,0 1.86993,-0.73774 2.04059,-2.01014 0.1594,-1.09108 0.99026,-2.03641 1.52247,-3.03628 l 0.49038,-0.94335 0.40273,0.61064 c 0.69293,1.05827 1.32436,2.23943 2.49042,3.17005 0.90741,0.87916 2.27788,1.2858 3.29655,0.97837 0.77409,-0.23359 1.54212,-1.2299 1.42404,-1.84756 -0.16092,-0.84186 0.62331,-2.31984 1.88223,-3.54742 0.2036,-0.19851 0.4422,-0.66063 0.53024,-1.02656 0.59369,-1.93465 2.8532,-4.51738 4.6194,-5.7416 l 0.64046,-0.40787 -0.1577,0.63492 c -0.34235,1.32523 -1.22032,3.33889 -1.79036,4.96008 -0.83139,2.59642 -2.44587,6.89715 -3.34298,9.20479 -0.0229,0.12197 -0.0638,0.32162 -0.0909,0.4436 -0.61266,3.27437 0.72346,5.59147 3.32497,7.40963 l 0,3.8e-4 c 1.00177,0.597 1.11286,0.58881 2.73685,-0.19824 0.94535,-0.46306 4.92222,-2.54946 3.0945,-4.33836 -0.50842,-0.33314 -0.5568,-0.32002 -1.01994,0.27169 -0.60141,0.76448 -1.21807,1.43798 -1.78275,2.25684 -0.95196,0.89436 -1.5133,0.15105 -0.98044,-1.29825 0.0673,-0.18295 0.24528,-0.93156 0.39543,-1.66347 0.47432,-2.21112 0.6768,-2.4174 2.10368,-5.34585 1.08248,-2.67589 2.38194,-4.24707 2.95239,-7.18603 0.0628,-0.18304 0.12414,-0.38264 0.13656,-0.44365 0.0124,-0.061 0.0849,-0.21073 0.16115,-0.33266 0.0763,-0.12203 0.11559,-0.87055 0.0874,-1.66361 -0.0372,-1.04218 -0.21822,-1.78177 -0.65329,-2.6685 -0.73418,-1.4964 -1.10257,-1.69458 -4.3872,-2.35876 -2.68343,-0.33232 -6.73714,5.57996 -8.33391,7.65604 -0.27447,0.29768 -0.49906,0.62641 -0.49906,0.73059 0,0.10418 -0.12838,0.18952 -0.28522,0.18952 -0.15685,0 -0.28522,-0.1996 -0.28522,-0.4436 0.009,-1.01284 0.91954,-2.22874 1.44899,-3.14718 1.28336,-1.3775 -0.35172,-3.42399 -3.47642,-4.35148 -0.94885,-0.28163 -1.98438,-0.16377 -2.39063,0.2724 -0.62505,0.67104 -1.78575,3.64044 -1.93938,4.96146 -0.0325,0.27931 -0.15874,0.52147 -0.28073,0.53851 -0.28131,0.0393 -0.46786,0.24125 -1.54186,1.66845 -0.9818,1.29166 -1.17307,1.48815 -1.58208,1.96574 -0.32085,0.40053 -0.33051,0.39396 -0.2024,-0.13381 0.60184,-2.40651 1.89731,-3.85287 2.03296,-6.39139 0.0731,-0.60492 -0.0397,-0.85541 -0.63388,-1.41058 -0.94174,-0.87963 -1.37925,-1.03001 -3.51454,-1.20808 -1.66249,-0.13864 -1.81619,-0.11478 -2.32789,0.36593 -0.423,0.39741 -0.54793,0.43627 -0.54793,0.16988 0,-0.49203 -1.25288,-1.65117 -2.36809,-2.19101 -0.78855,-0.38179 -1.2251,-0.44024 -2.56287,-0.34311 -3.50538,0.25446 -3.63286,0.29673 -4.66549,1.54883 -0.51802,0.62802 -1.13022,1.49123 -1.36063,1.91822 -0.23041,0.427 -0.58759,0.97597 -0.79364,1.21992 -0.80026,0.94761 -1.55247,3.97816 -1.48643,5.98868 0.046,1.6071 -2.15186,3.55728 -3.15549,5.23008 l -0.21452,0.53685 -0.0139,-0.60237 c -0.007,-0.33137 0.12173,-0.93023 0.28801,-1.33081 0.77483,-1.89569 1.12154,-4.00443 1.81046,-6.0327 0.58469,-2.1299 0.1788,-3.5897 -1.22546,-4.40804 -0.30498,-0.17764 -1.33334,-0.49345 -2.28527,-0.70181 -2.08222,-0.45563 -2.10287,-0.44635 -4.50781,2.02506 -0.86932,0.89327 -1.64512,1.624 -1.72417,1.624 -0.0791,0 -0.12084,-0.57397 -0.0925,-1.27535 0.0609,-1.50794 -0.32973,-2.51694 -1.12843,-2.91397 -0.31654,-0.15734 -1.22442,-0.37237 -2.01738,-0.47759 -0.79292,-0.10517 -1.74866,-0.24903 -2.12376,-0.31987 -0.60181,-0.11366 -0.81963,0.009 -1.85378,1.04284 -0.94709,0.9469 -3.34196,4.49943 -3.34196,4.95762 0,0.062 -0.34933,0.6317 -0.7763,1.26568 -0.70212,1.04262 -0.77631,1.09625 -0.77631,0.55977 0,-0.85432 0.60466,-3.33699 0.99498,-4.08537 0.18326,-0.35145 0.33445,-0.99982 0.33445,-1.44073 0.002,-0.67757 -0.12818,-0.89128 -0.83593,-1.38174 -1.25173,-0.85011 -4.24701,-1.88334 -5.2706,-0.58916 -0.80717,1.43206 -1.18528,2.68114 -1.29443,4.27527 -0.0978,1.42747 -0.25622,1.98009 -0.92083,3.2106 -0.69918,1.29452 -1.91111,2.71707 -2.31472,2.71707 -0.74413,0 -1.14765,-5.76622 -0.58986,-8.42851 0.28873,-1.37811 0.46496,-1.75512 1.02826,-2.19797 2.04354,-1.6063 4.65441,-6.2066 4.65441,-8.20112 0,-1.15782 -0.29134,-1.54458 -1.81602,-2.41215 -0.71495,-0.40678 -1.88966,-0.68817 -2.59994,-0.67719 z m 1.91755,4.00499 c 0.0461,-0.0114 0.0586,0.0649 0.0586,0.22384 0,0.20717 -0.20878,0.7037 -0.46405,1.1031 l -0.46405,0.72608 0.14486,-0.64742 c 0.0798,-0.35603 0.28855,-0.85218 0.46406,-1.10272 0.13461,-0.19222 0.2145,-0.29152 0.26062,-0.30288 z m 40.16545,7.38945 0.37707,0.88069 c 0.20734,0.48431 0.5329,1.2077 0.72329,1.60734 0.33794,0.70938 0.33038,0.7435 -0.31434,1.44171 -1.31475,1.42393 -3.53284,3.77942 -4.14598,4.40284 -0.75455,0.76708 -1.1222,0.82251 -0.91599,0.13826 0.94363,-2.7333 2.98488,-4.87986 3.85972,-7.59015 l 0.41623,-0.88069 z"
         style="display:inline;fill:#1f5c79;fill-opacity:1" />
    </g>
    <g
       style="display:inline;fill:#1f5c79;fill-opacity:1"
       transform="matrix(2.0093227,0,0,2.0093227,-588.76691,479.79113)"
       id="g4156">
      <path
         style="display:inline;fill:#1f5c79;fill-opacity:1"
         d="m 377.2559,139.2137 c -0.23385,0.0108 -0.48995,0.0265 -0.7721,0.0469 -1.48064,0.1073 -2.68431,0.36844 -2.67531,0.58086 0.009,0.21238 -0.27165,0.39898 -0.62321,0.41389 -1.12228,0.0476 -4.61267,4.78576 -6.63205,9.0029 -1.07541,2.24572 -2.16246,4.03007 -2.41548,3.9647 -1.02744,-0.26544 -1.93799,-2.82368 -2.06353,-5.78514 -0.10996,-2.59514 -0.24708,-3.0609 -0.90701,-3.03292 -0.52787,0.0224 -0.91567,0.63893 -1.2006,1.90917 -0.65863,2.93587 0.23675,5.40369 2.92527,8.06458 l 1.13819,1.12663 -0.75521,3.86235 c -0.415,2.12452 -0.74244,4.22635 -0.72362,4.67063 0.0461,1.19498 -2.8203,7.72866 -3.40129,7.75328 -0.7911,0.0335 -0.3637,-5.58428 0.77685,-10.20864 1.17459,-4.76231 0.95034,-5.33521 -2.04347,-5.20831 -1.60206,0.0679 -2.10333,0.31131 -2.80387,1.36391 l -0.8522,1.28121 -0.38382,-1.65451 c -0.70127,-3.02501 -3.47427,-4.11862 -6.24271,-2.46285 -2.04035,1.22028 -3.32872,3.36586 -3.81933,6.3615 -0.53641,3.27524 0.47294,5.62887 2.91918,6.80822 2.56972,1.23885 3.40231,0.88454 5.14792,-2.18935 1.64687,-2.90018 1.93388,-2.8383 1.81183,0.39333 -0.0632,1.67328 0.14685,3.57216 0.50213,4.50847 0.72655,1.9236 3.01135,3.8209 4.52459,3.75676 1.37434,-0.0582 3.10506,-2.07509 3.95068,-4.60389 0.68767,-2.05642 1.3841,-2.45215 2.37864,-1.35211 1.3057,1.44416 2.56055,0.70916 4.25448,-2.49097 1.686,-3.18534 4.43572,-6.29522 5.60985,-6.34499 0.52832,-0.0224 0.70617,0.5791 0.79592,2.69638 0.0635,1.49887 -0.0602,2.73267 -0.27506,2.74175 -0.70701,0.0299 -4.46535,3.90719 -5.08932,5.25025 -2.08549,4.48925 2.06155,7.36817 6.57898,4.56727 1.46117,-0.90595 1.90226,-1.54377 2.50626,-3.62463 0.40321,-1.38906 0.79511,-3.72199 0.87075,-5.1843 0.11904,-2.30267 0.28698,-2.72342 1.25162,-3.13776 1.37846,-0.59206 1.66441,-0.36802 1.08003,0.84471 -1.10578,2.29474 0.026,6.65484 2.19766,8.4678 2.2173,1.85109 3.76688,1.4106 5.18182,-1.47361 l 1.16074,-2.36695 0.59537,2.17877 c 0.74862,2.74142 1.42546,3.87255 2.98994,4.99934 2.33154,1.67917 4.40134,0.77794 5.96343,-2.59627 1.01448,-2.19127 2.90395,-4.56929 3.65577,-4.60117 0.26636,-0.0113 1.08935,0.5681 1.82843,1.28756 1.93556,1.88408 4.14531,1.74175 5.16441,-0.33264 l 0.74207,-1.51026 0.40362,3.90386 c 0.46261,4.4801 1.33702,5.82658 5.06355,7.79266 0.53329,0.28136 1.09604,0.51344 1.25007,0.5158 0.77091,0.0117 2.61824,-2.14911 3.41829,-3.99744 0.49583,-1.14554 1.68509,-2.81264 2.64242,-3.70505 1.03531,-0.96508 1.53749,-1.73681 1.23989,-1.90375 -1.32554,-0.74358 -4.06439,1.81658 -5.48632,5.12845 -1.08015,2.51577 -2.1887,2.81669 -2.8476,0.77212 -0.58892,-1.82753 -0.22333,-5.67708 0.9109,-9.58334 0.75499,-2.60025 0.75469,-2.80182 -0.0103,-3.5784 -0.44581,-0.45253 -1.2903,-0.80202 -1.87616,-0.77719 -0.82429,0.0349 -1.07509,-0.20395 -1.11121,-1.05579 -0.0543,-1.28066 -2.05629,-3.63593 -3.40088,-4.0008 -0.50995,-0.13837 -1.94028,0.0369 -3.17756,0.38973 -2.56807,0.73238 -3.95911,2.52998 -4.94336,6.38516 -0.36904,1.44545 -1.07487,2.66478 -2.0478,3.53857 -0.8165,0.73324 -2.073,2.48658 -2.79164,3.89622 -1.52205,2.98572 -2.44958,3.31798 -2.81886,1.00906 -0.44334,-2.77222 0.14757,-8.57495 0.92804,-9.11394 3.08746,-2.13198 8.71022,-8.66067 9.94918,-11.55189 0.37789,-0.88189 0.74654,-2.45083 0.81909,-3.48737 0.11472,-1.65533 -0.0315,-2.00322 -1.21142,-2.8556 -1.09302,-0.78965 -1.70241,-0.90621 -3.27027,-0.6248 -2.90446,0.52129 -4.30077,1.53139 -6.50943,4.70611 -2.67374,3.84329 -4.61423,8.30548 -5.3226,12.24184 -0.79359,4.40967 -2.9652,8.98523 -4.29141,9.04143 -1.08337,0.0459 -0.92796,-3.86461 0.27371,-6.87776 0.59281,-1.48653 0.94899,-3.00064 0.79141,-3.36444 -0.15758,-0.36379 -1.02953,-0.76807 -1.93818,-0.89899 -1.29773,-0.18692 -1.85757,-0.0354 -2.61038,0.70697 -1.40174,1.38225 -3.75331,1.83836 -4.13139,0.80165 -0.55162,-1.51269 -2.52571,-2.77801 -4.54936,-2.91588 -1.73011,-0.11808 -2.21935,0.0762 -4.04761,1.60416 -1.14372,0.95586 -2.27766,2.14929 -2.51991,2.65206 -0.24227,0.50277 -0.6416,0.92301 -0.88743,0.93343 -0.48664,0.0206 -0.32499,-1.29096 0.572,-4.64198 0.49804,-1.86044 0.76529,-2.18385 2.0561,-2.48311 0.81625,-0.18922 2.50646,-1.17599 3.75606,-2.19345 5.58599,-4.54829 8.47932,-11.6926 5.80371,-14.33114 -0.71959,-0.70961 -1.26386,-0.89374 -2.9008,-0.81909 z m 0.44253,1.40406 c 0.81397,-0.0728 1.63621,0.77857 1.68574,1.9477 0.11271,2.6591 -4.37155,9.50349 -7.3379,11.20036 -1.78088,1.01876 -2.20735,0.92499 -1.76993,-0.39065 1.06509,-3.20385 5.76211,-11.78549 6.87005,-12.55183 0.17744,-0.12273 0.36421,-0.18878 0.55204,-0.20558 z m -30.60062,3.11083 c -1.27464,0.12212 -2.89384,1.29922 -3.98642,3.19503 -1.51098,2.62191 -3.46103,9.56886 -3.70311,13.19166 -0.3961,5.9277 -1.08661,13.27639 -1.31157,13.9334 -0.16264,0.4797 -0.38107,0.27921 -0.711,-0.65238 -1.15056,-3.24853 -3.75022,-13.64468 -4.83251,-19.32547 -0.64887,-3.40565 -1.40155,-6.56763 -1.67268,-7.02633 -0.71925,-1.21714 -2.39666,-2.16637 -3.71231,-2.10088 -1.07404,0.0535 -1.25808,0.46267 -2.86681,6.37804 -4.87251,17.91562 -9.10494,25.51772 -14.33081,25.73922 -2.26851,0.0961 -4.30305,-2.2897 -4.55442,-5.34009 -0.12779,-1.55143 0.0711,-2.0591 1.26081,-3.21635 1.59715,-1.55361 3.05648,-1.81422 3.94357,-0.70303 0.50871,0.63718 0.71014,0.65579 1.30608,0.11684 1.56612,-1.416 -0.0508,-3.22695 -2.76913,-3.10153 -2.22538,0.10263 -2.50698,0.27821 -4.21584,2.62618 -1.83616,2.52283 -1.72155,5.04972 0.36125,7.95465 0.83426,1.16368 2.0657,2.43956 2.73652,2.83453 0.93702,0.55175 1.87065,0.63727 4.02997,0.37037 3.29644,-0.40743 5.80268,-1.70497 8.0771,-4.18069 1.83414,-1.99654 5.5021,-9.61206 6.57623,-13.65559 0.38668,-1.45538 0.84629,-2.65221 1.02218,-2.65967 0.17586,-0.007 0.63329,1.35526 1.01619,3.02831 1.89081,8.26256 5.1839,15.49057 7.39206,16.22467 1.72336,0.57296 3.08812,-0.22365 3.59469,-2.09951 0.2268,-0.83968 0.62173,-4.29963 0.87835,-7.68902 1.0092,-13.33057 4.43265,-23.9101 6.98017,-21.56978 0.72892,0.66965 1.65069,-0.29514 1.22368,-1.28094 -0.32857,-0.75852 -0.96936,-1.06535 -1.73416,-0.99208 z m 58.13699,3.2983 c 0.14888,-0.0226 0.27035,0.0284 0.36036,0.15714 1.0711,1.53881 -0.44977,5.45011 -3.61654,9.30077 -2.24082,2.72472 -4.07359,4.36712 -4.10289,3.67629 -0.0116,-0.27418 0.6523,-1.99008 1.47543,-3.81288 2.44838,-5.42206 4.8415,-9.16331 5.88364,-9.32132 z m -16.12244,6.78433 c -0.21022,0.0179 -0.43281,0.0666 -0.66375,0.15077 -1.05262,0.38388 -1.0198,1.87764 0.0538,2.44345 1.05736,0.55728 1.21345,0.54546 1.83671,-0.13295 1.11011,-1.20842 0.2435,-2.58688 -1.22675,-2.46127 z m -37.93119,2.02984 c 0.40512,0.0111 0.84822,0.42198 1.10958,1.22738 0.9107,2.80695 0.65468,4.78509 -0.90916,7.02378 -0.83662,1.19763 -1.81832,2.19044 -2.18159,2.20583 -0.96312,0.0408 -0.93146,-2.23977 0.074,-5.36118 0.46797,-1.45257 0.9299,-3.21787 1.02642,-3.9227 0.10907,-0.79525 0.47563,-1.18421 0.88075,-1.17311 z m 61.01271,3.50521 c 0.25271,-0.0589 0.50739,0.19947 0.86542,0.66718 1.38783,1.81295 1.06318,3.14451 -1.42077,5.81461 -1.26412,1.3589 -2.43163,2.47682 -2.59375,2.48369 -0.39947,0.0168 0.10413,-1.91443 1.43854,-5.52121 0.87512,-2.36539 1.28935,-3.3461 1.71056,-3.44427 z m -36.91868,7.52981 c 0.0863,0.006 0.13709,0.0683 0.14249,0.19657 0.0641,1.51171 -1.14434,5.15375 -2.06298,6.21866 -1.95613,2.26732 -3.24987,1.01149 -1.91956,-1.86315 0.88031,-1.90228 3.23584,-4.59569 3.84005,-4.55208 z"
         id="path4158"
         inkscape:connector-curvature="0" />
      <path
         inkscape:connector-curvature="0"
         id="path4160"
         d="m 456.88918,143.82842 c -1.07436,0.0548 -1.95468,0.45354 -1.93092,0.92049 0.0107,0.21154 -0.0562,0.55442 -0.14897,0.76235 -0.0927,0.20781 -0.24908,0.62117 -0.34708,0.91863 -1.26076,3.83714 -2.33433,7.744 -3.84858,11.68161 -0.93505,2.71727 -1.98465,5.01806 -2.25409,4.94032 -0.13022,-0.0381 -0.2648,-0.4408 -0.29885,-0.89581 -0.11975,-1.59893 -0.18142,-1.7715 -0.75117,-2.10465 -0.54918,-0.32117 -0.58731,-0.31722 -0.86272,0.0924 -0.45812,0.68078 -0.13439,2.57023 0.62315,3.63761 0.41333,0.5824 0.58847,1.03385 0.51294,1.32192 -0.13974,0.53286 -2.55341,3.8691 -3.25186,4.49493 -0.27683,0.24802 -1.0147,0.6508 -1.63977,0.89467 -0.92734,0.36186 -1.24897,0.40313 -1.74794,0.22558 -0.76088,-0.27081 -1.53854,-1.41341 -1.58518,-2.32951 -0.038,-1.48483 0.90547,-3.9936 1.30309,-5.59077 0.48329,-0.93012 0.44602,-1.86294 -0.0736,-1.83654 -0.60466,0.0309 -1.90487,2.20373 -2.57621,4.30575 -0.3881,1.22337 -0.69884,2.31492 0.0161,3.65991 0.34287,0.63859 0.84005,1.43878 1.10481,1.77829 4.71978,5.90335 9.64392,3.44829 13.76761,-2.46803 1.00165,-1.50567 0.87972,-1.46279 3.59058,-1.26089 1.6242,0.12094 2.02255,0.0784 3.40889,-0.36425 0.86338,-0.27564 1.59701,-0.47858 1.63013,-0.45085 0.0333,0.0284 0.23178,0.79735 0.44166,1.71032 1.24881,5.4322 3.4108,9.09808 5.91129,10.02307 1.91822,0.70954 2.72044,0.37124 4.94222,-2.08412 1.45324,-1.60601 3.07874,-4.00436 3.05326,-4.50499 -0.005,-0.10321 0.28821,-0.78294 0.65196,-1.51048 0.36374,-0.72753 0.6816,-1.53492 0.7063,-1.79433 0.0598,-0.62729 0.55924,-0.81155 0.58946,-0.21746 0.0128,0.25076 0.14431,0.65663 0.2922,0.90205 0.35666,0.59199 1.44035,3.8855 1.46995,4.46731 0.0164,0.32269 -0.26576,0.64852 -0.9514,1.09863 -1.21672,0.79878 -2.83516,2.45845 -3.24797,3.33077 -0.17195,0.36343 -0.44212,1.15013 -0.60031,1.74818 -0.59648,2.27463 1.87428,4.26608 4.25084,5.28026 1.25694,0.38323 2.29506,0.27922 3.50726,-0.35169 1.34178,-0.69829 1.71604,-0.51393 2.31505,-2.17502 0.81408,-2.25712 0.81715,-3.50793 0.58288,-5.04901 -0.4304,-2.83131 -0.5751,-3.54979 -0.78715,-3.90876 -0.15651,-0.26495 -0.12787,-0.40349 0.10547,-0.50691 0.46073,-0.2042 0.36769,-0.73721 -0.12431,-0.71219 -0.34092,0.017 -0.55197,-0.35334 -1.17996,-2.07296 -0.92055,-2.52055 -1.00459,-3.92944 -0.42068,-7.03846 l 0.39641,-2.11067 -0.60004,-0.7085 c -1.06246,-1.22983 -3.06564,-1.08847 -4.52529,-0.31605 -0.74996,0.58118 -1.21906,1.86778 -1.37005,3.75899 -0.1073,1.34416 -0.31192,2.1226 -0.8643,3.28696 -2.42425,5.10999 -4.92099,8.91607 -6.02646,9.18625 -0.63961,0.15633 -0.79204,-0.0318 -1.03301,-1.27517 -0.10114,-0.52181 -0.32015,-1.51619 -0.48665,-2.2096 -0.83986,-3.5114 -1.77042,-7.64286 -1.8542,-12.45485 -0.0823,-0.81468 -0.36363,-3.38462 -0.62499,-5.71104 -0.50131,-4.46225 -0.54293,-5.12686 -0.45331,-7.26183 0.0485,-1.15281 -0.0111,-1.41359 -0.4409,-1.93707 -0.38648,-0.47066 -0.71406,-0.62035 -1.47634,-0.67428 -0.53883,-0.0381 -1.94814,-0.16562 -3.13179,-0.28367 -1.18366,-0.1179 -2.61793,-0.23453 -3.18738,-0.25888 -0.15931,-0.006 -0.31666,-0.006 -0.47014,0 z m 2.44469,8.80928 c 0.0463,0.042 0.24777,1.44484 0.44747,3.1175 0.19968,1.67268 0.54584,4.03108 0.76952,5.24071 0.22368,1.20973 0.36814,2.31824 0.32079,2.46338 -0.0474,0.14505 -0.54016,0.4869 -1.09527,0.75996 -0.77734,0.38229 -1.45145,0.51878 -2.93259,0.59418 -1.05766,0.0538 -1.92687,0.0206 -1.93171,-0.0745 -0.005,-0.0948 0.19375,-0.65525 0.44111,-1.24548 0.80343,-1.91662 1.18599,-2.96324 2.55185,-6.9787 0.73951,-2.17418 1.3825,-3.91884 1.42883,-3.87702 z m 29.40002,0.36121 c -0.19694,0.005 -0.37583,0.0337 -0.51623,0.0958 -0.31669,0.14033 -0.31481,0.17868 0.0248,0.5175 0.20163,0.20123 0.37325,0.49683 0.38139,0.65693 0.007,0.16 0.2074,0.83638 0.44272,1.50289 0.23534,0.66646 0.45924,1.20993 0.49751,1.20798 0.0383,0 0.32397,-0.15174 0.63477,-0.33312 1.16262,-0.67814 1.27827,-2.06836 0.25477,-3.05882 -0.37427,-0.36222 -1.12872,-0.59865 -1.7196,-0.58921 z m 38.2178,1.4403 c -1.71761,0.0874 -2.27389,0.4468 -2.4242,1.56544 -0.0589,0.43828 -0.38966,1.72039 -0.73502,2.84934 -0.34537,1.12891 -0.66661,2.26984 -0.71381,2.53551 -0.10723,0.60353 -0.36824,0.62989 -0.70491,0.0712 -0.74541,-1.23727 -4.14742,-1.32822 -7.70853,-0.2063 -1.1027,0.34748 -2.07257,1.56083 -2.79078,3.49169 -0.56314,1.51399 -0.60749,1.84744 -0.5095,3.82627 l 0.10738,2.16773 -0.83251,0.95331 c -1.19899,1.4225 -2.01169,3.3561 -3.01899,4.78682 -0.11669,0.006 -0.22641,-0.26934 -0.24384,-0.61174 -0.0339,-0.66568 0.35156,-3.40559 0.60478,-4.29866 0.0841,-0.29676 0.25619,-0.92772 0.38197,-1.402 0.12576,-0.47443 0.41733,-1.35061 0.648,-1.94729 1.64936,-4.26652 1.72018,-4.62382 1.06762,-5.3718 -0.65318,-0.74871 -1.50485,-1.02113 -3.44629,-1.10177 -1.94088,-0.0806 -2.27351,0.0789 -2.97245,1.42378 -0.2824,0.54351 -0.5345,0.98899 -0.56045,0.99032 -0.0259,0 -0.0721,-0.4096 -0.10228,-0.91341 -0.0748,-1.2447 -0.4975,-2.05066 -1.34298,-2.55977 -1.94565,-1.07569 -6.87195,-0.88533 -8.22478,1.156 -0.4548,0.68607 -1.01479,1.69385 -1.24463,2.23952 -0.48212,1.1447 -0.75401,4.17703 -0.46405,5.17659 0.62936,2.16939 2.3747,4.40877 3.95594,5.07586 3.35122,1.27757 4.23525,-0.61031 5.94601,-2.85858 0.0581,-0.007 0.14813,0.82068 0.20007,1.84167 0.0801,1.57467 0.18908,2.02891 0.71738,2.99442 0.65748,1.20163 2.26432,2.74726 3.54336,3.4079 0.42052,0.21726 0.95335,0.34308 1.18409,0.27975 2.32569,-0.6287 2.97997,-4.77435 4.45717,-6.69753 l 0.84108,-1.18308 0.47658,0.59428 c 1.36066,1.69643 2.71461,2.27741 4.63268,1.98827 0.71963,-0.10846 1.33831,-0.24337 1.37457,-0.29996 0.0363,-0.0565 0.17441,-0.35006 0.30713,-0.65241 0.13271,-0.3022 0.67569,-0.8563 1.20654,-1.23116 0.65351,-0.45932 1.22526,-0.8602 1.55127,0.38959 0.0383,0.75565 1.19985,2.37413 2.56909,3.5805 1.45782,1.2844 2.31981,1.67966 3.30516,1.51547 1.79598,-0.4563 4.36208,-3.87074 2.70375,-5.39128 -0.69547,-0.4067 -1.25686,-0.10797 -1.22831,0.65341 0.0674,1.78983 -1.53338,3.36969 -1.7335,1.71105 -0.33619,-2.78592 -0.24008,-4.80369 0.36484,-7.62247 0.59585,-2.76305 1.50787,-5.77871 1.70166,-8.87344 0.39779,-2.24329 0.40131,-2.44001 0.0571,-3.07639 -0.45859,-0.84778 -1.09196,-1.05878 -2.90334,-0.96661 z m -26.93857,7.45812 c 0.13381,-0.0118 0.30518,-0.006 0.4811,0.0107 0.55965,0.0532 0.70441,0.21422 1.15856,1.28704 0.2855,0.67424 0.57817,1.22441 0.65014,1.22241 0.0719,-0.005 0.268,0.0741 0.43563,0.1686 0.2499,0.14103 0.22188,0.30451 -0.15483,0.90856 -0.74538,1.19511 -4.18675,5.48995 -4.5971,5.73719 -0.73926,0.44547 -0.87145,0.30508 -0.81647,-0.86675 0.0798,-1.59272 0.67138,-3.37816 1.84536,-5.00491 0.6541,-0.92733 0.74581,-1.21395 0.69664,-2.18011 -0.0311,-0.61178 -0.012,-1.1622 0.0428,-1.22284 0.0274,-0.0303 0.12418,-0.0513 0.25815,-0.0601 z m 19.97676,0.34059 c 0.55768,-0.0283 1.32475,0.40284 1.68462,0.9469 0.32652,0.49359 0.33973,0.69404 0.12654,1.8916 -0.24948,1.40113 -0.68762,2.45302 -1.55639,3.73488 -0.5212,0.76909 -0.68848,0.9623 -1.76292,2.04064 -2.09721,2.10486 -2.24051,-0.12015 -0.30231,-4.69328 0.5321,-1.2554 1.0929,-2.64793 1.24633,-3.09437 0.15343,-0.44647 0.40729,-0.8184 0.56414,-0.82637 z m -40.24197,12.62211 c 0.315,-0.021 0.36849,0.59002 0.32331,1.90582 -0.0857,2.49746 -0.48075,3.6272 -1.55588,4.4498 -1.41029,1.07907 -2.06285,0.12557 -1.40458,-2.05247 0.39543,-1.32774 0.26678,-1.64432 1.35022,-3.14927 0.63847,-0.74161 1.0419,-1.13833 1.28693,-1.15388 z"
         style="display:inline;fill:#1f5c79;fill-opacity:1" />
    </g>
    <g
       id="g4162"
       style="font-style:normal;font-variant:normal;font-weight:500;font-stretch:normal;font-size:10px;line-height:150%;font-family:'Futura Book';-inkscape-font-specification:'Futura Book, Medium';letter-spacing:1px;word-spacing:0px;display:inline;fill:#1f5c79;fill-opacity:1;stroke:none;stroke-width:1px;stroke-linecap:butt;stroke-linejoin:miter;stroke-opacity:1"
       transform="matrix(2.0618516,0,0,2.0618516,-341.76121,-191.62738)">
      <path
         d="m 315.07407,602.99609 0.84,0 0,-5.81 5.88,6.15 0,-7.88 -0.84,0 0,5.84 -5.88,-6.16 0,7.86 z m -3.69219,-2.14 0.89,2.14 0.93,0 -3.39,-7.9 -3.48,7.9 0.92,0 0.91,-2.14 3.22,0 z m -0.33,-0.78 -2.55,0 1.29,-3.02 1.26,3.02 z m -14.53484,2.92 0.86,0 0.97,-5.1 0.02,0 2.42,5.41 2.43,-5.41 0.02,0 0.97,5.1 0.86,0 -1.53,-7.97 -2.75,6.33 -2.74,-6.33 -1.53,7.97 z m -5.72328,-4.31 0,-3.23 -0.84,0 0,7.54 0.84,0 0,-3.25 0.21,-0.21 3.09,3.46 1.16,0 -3.66,-4.03 3.54,-3.51 -1.13,0 -3.21,3.23 z m -7.87547,-3.23 -0.84,0 0,4.72 c 0,0.86 0.08,1.55 0.74,2.18 0.51,0.5 1.24,0.77 1.95,0.77 0.76,0 1.51,-0.3 2.03,-0.86 0.6,-0.62 0.66,-1.27 0.66,-2.09 l 0,-4.72 -0.84,0 0,4.49 c 0,0.59 0.03,1.25 -0.37,1.73 -0.35,0.42 -0.94,0.67 -1.48,0.67 -0.55,0 -1.19,-0.26 -1.52,-0.72 -0.35,-0.48 -0.33,-1.12 -0.33,-1.68 l 0,-4.49 z m -6.39016,0.78 0.25,0 c 1.01,0 1.92,0.12 1.92,1.36 0,1.17 -0.96,1.35 -1.91,1.35 l -0.26,0 0,-2.71 z m 0,3.45 0.21,0 2.28,3.31 1.03,0 -2.4,-3.38 c 1.16,-0.1 1.89,-0.92 1.89,-2.08 0,-1.7 -1.33,-2.08 -2.76,-2.08 l -1.09,0 0,7.54 0.84,0 0,-3.31 z m -14.19625,3.31 0.84,0 0,-5.81 5.88,6.15 0,-7.88 -0.84,0 0,5.84 -5.88,-6.16 0,7.86 z m -2.57281,-7.54 -0.84,0 0,7.54 0.84,0 0,-7.54 z m -6.7036,4.04 0.73,0 c 0.92,0 2.04,0.17 2.04,1.34 0,1.15 -0.99,1.38 -1.93,1.38 l -0.84,0 0,-2.72 z m -0.84,3.5 1.75,0 c 1.49,0 2.7,-0.6 2.7,-2.1 0,-0.9 -0.53,-1.71 -1.43,-1.93 0.51,-0.34 0.74,-0.86 0.74,-1.47 0,-1.54 -1.15,-2.04 -2.52,-2.04 l -1.24,0 0,7.54 z m 0.84,-6.76 0.33,0 c 1.03,0 1.75,0.12 1.75,1.26 0,1.17 -0.81,1.28 -1.76,1.28 l -0.32,0 0,-2.54 z"
         style="font-style:normal;font-variant:normal;font-weight:500;font-stretch:normal;font-size:10px;line-height:150%;font-family:'Futura Book';-inkscape-font-specification:'Futura Book, Medium';text-align:center;letter-spacing:1px;text-anchor:middle;fill:#1f5c79;fill-opacity:1"
         id="path4164"
         inkscape:connector-curvature="0" />
    </g>
    <path
       id="path4166"
       style="font-style:normal;font-variant:normal;font-weight:500;font-stretch:normal;font-size:10px;line-height:150%;font-family:'Futura Book';-inkscape-font-specification:'Futura Book, Medium';text-align:center;letter-spacing:1px;word-spacing:0px;text-anchor:middle;fill:#1f5c79;fill-opacity:1;stroke:none;stroke-width:1px;stroke-linecap:butt;stroke-linejoin:miter;stroke-opacity:1"
       d="m 404.57783,876.40369 2.88659,0 c 2.43299,0 4.28866,-0.30928 6.14432,-1.95876 1.71134,-1.52577 2.53608,-3.52577 2.53608,-5.79381 0,-2.30927 -0.80412,-4.39174 -2.57731,-5.91751 -1.83505,-1.56701 -3.73196,-1.87628 -6.06185,-1.87628 l -2.92783,0 0,15.54636 z m 1.73196,-1.60825 0,-12.32987 1.25773,0 c 1.83504,0 3.40205,0.24742 4.82473,1.50515 1.3402,1.17526 2.02061,2.88659 2.02061,4.65979 0,1.73195 -0.65979,3.36081 -1.93814,4.55669 -1.42267,1.3402 -3.0103,1.60824 -4.9072,1.60824 l -1.25773,0 z m -9.24161,-2.80412 1.83504,4.41237 1.91753,0 -6.98968,-16.28863 -7.17524,16.28863 1.8969,0 1.87628,-4.41237 6.63917,0 z m -0.68041,-1.60824 -5.25773,0 2.65979,-6.22679 2.59794,6.22679 z m -19.28475,-1.79381 0,1.60824 4.61855,0 c 0,2.8866 -2.84536,4.86597 -5.54638,4.86597 -1.62887,0 -3.27835,-0.84536 -4.41237,-1.97937 -1.15463,-1.17526 -1.81442,-2.74227 -1.81442,-4.39175 0,-3.50515 2.80411,-6.49483 6.3505,-6.49483 2.28865,0 4.04123,1.09278 5.34019,2.92783 l 1.25773,-1.17526 c -1.64948,-2.14432 -3.85566,-3.36081 -6.5773,-3.36081 -4.47422,0 -8.10308,3.62885 -8.10308,8.08245 0,4.37113 3.62886,7.99999 7.99998,7.99999 2.16495,0 4.32989,-0.94845 5.75257,-2.59794 1.42268,-1.64948 1.64948,-3.38143 1.60824,-5.48452 l -6.47421,0 z m -27.09339,7.81442 1.73196,0 0,-11.97936 12.12368,12.68039 0,-16.24739 -1.73195,0 0,12.04121 -12.12369,-12.70101 0,16.20616 z m -5.24933,-13.40204 c -0.82474,-1.52577 -2.28865,-2.41236 -4.02061,-2.41236 -2.30927,0 -4.35051,1.54638 -4.35051,3.95875 0,2.2268 1.56701,3.15463 3.38144,3.97937 l 0.94845,0.41237 c 1.4433,0.6598 2.86598,1.27835 2.86598,3.09278 0,1.75258 -1.52577,3.03092 -3.19587,3.03092 -1.6701,0 -2.8866,-1.29896 -3.1134,-2.88659 l -1.69072,0.47423 c 0.49485,2.41236 2.35051,4.02061 4.84535,4.02061 2.70103,0 4.88659,-2.08247 4.88659,-4.80412 0,-2.47422 -1.71134,-3.48453 -3.73195,-4.37112 l -1.03093,-0.45361 c -1.05154,-0.47423 -2.43298,-1.09278 -2.43298,-2.43298 0,-1.42268 1.19587,-2.41237 2.57731,-2.41237 1.31959,0 2.06185,0.61855 2.68041,1.69072 l 1.38144,-0.8866 z m -15.94263,8.98967 1.83505,4.41237 1.91752,0 -6.98967,-16.28863 -7.17525,16.28863 1.89691,0 1.87628,-4.41237 6.63916,0 z m -0.68041,-1.60824 -5.25772,0 2.65979,-6.22679 2.59793,6.22679 z m -32.74896,6.02061 2.88659,0 c 2.43298,0 4.28865,-0.30928 6.14432,-1.95876 1.71133,-1.52577 2.53607,-3.52577 2.53607,-5.79381 0,-2.30927 -0.80412,-4.39174 -2.57731,-5.91751 -1.83505,-1.56701 -3.73195,-1.87628 -6.06185,-1.87628 l -2.92782,0 0,15.54636 z m 1.73195,-1.60825 0,-12.32987 1.25773,0 c 1.83505,0 3.40206,0.24742 4.82473,1.50515 1.34021,1.17526 2.02062,2.88659 2.02062,4.65979 0,1.73195 -0.6598,3.36081 -1.93814,4.55669 -1.42268,1.3402 -3.01031,1.60824 -4.90721,1.60824 l -1.25773,0 z m -9.24161,-2.80412 1.83505,4.41237 1.91752,0 -6.98968,-16.28863 -7.17524,16.28863 1.8969,0 1.87629,-4.41237 6.63916,0 z m -0.68041,-1.60824 -5.25772,0 2.65979,-6.22679 2.59793,6.22679 z m -29.96868,6.02061 1.77319,0 1.99999,-10.51545 0.0412,0 4.98968,11.15462 5.0103,-11.15462 0.0412,0 1.99999,10.51545 1.7732,0 -3.15464,-16.43296 -5.67009,13.05152 -5.64947,-13.05152 -3.15463,16.43296 z m -20.54605,0 1.7732,0 1.99999,-10.51545 0.0412,0 4.98968,11.15462 5.0103,-11.15462 0.0412,0 1.99999,10.51545 1.77319,0 -3.15463,-16.43296 -5.67009,13.05152 -5.64947,-13.05152 -3.15464,16.43296 z m -6.37561,-4.41237 1.83505,4.41237 1.91752,0 -6.98968,-16.28863 -7.17524,16.28863 1.8969,0 1.87629,-4.41237 6.63916,0 z m -0.68041,-1.60824 -5.25773,0 2.65979,-6.22679 2.59794,6.22679 z m -23.27509,-3.21649 0,-6.30926 -1.73196,0 0,15.54636 1.73196,0 0,-7.62885 7.95875,0 0,7.62885 1.73195,0 0,-15.54636 -1.73195,0 0,6.30926 -7.95875,0 z m -6.79993,-5.05153 c -1.38144,-1.03093 -2.90721,-1.52577 -4.63916,-1.52577 -4.4536,0 -8.10308,3.64947 -8.10308,8.10307 0,4.41236 3.71133,7.97937 8.10308,7.97937 1.64948,0 3.29896,-0.5567 4.63916,-1.52577 l 0,-2.14433 c -1.23711,1.23711 -2.94844,2.06185 -4.70102,2.06185 -3.48453,0 -6.30926,-3.0103 -6.30926,-6.43297 0,-3.42268 2.80411,-6.43298 6.26803,-6.43298 1.79381,0 3.50514,0.7835 4.74225,2.06185 l 0,-2.14432 z m -26.36174,-1.25773 -1.73195,0 0,9.73194 c 0,1.77319 0.16494,3.19587 1.52577,4.49483 1.05154,1.03093 2.55669,1.58763 4.02061,1.58763 1.567,0 3.11339,-0.61856 4.18556,-1.77319 1.23711,-1.27835 1.36082,-2.61856 1.36082,-4.30927 l 0,-9.73194 -1.73196,0 0,9.25771 c 0,1.21649 0.0619,2.57731 -0.76288,3.567 -0.72165,0.86598 -1.93814,1.38144 -3.05154,1.38144 -1.13402,0 -2.45361,-0.53608 -3.13402,-1.48453 -0.72165,-0.98969 -0.68041,-2.30927 -0.68041,-3.46391 l 0,-9.25771 z m -23.37076,15.54636 1.7732,0 1.99999,-10.51545 0.0412,0 4.98968,11.15462 5.0103,-11.15462 0.0412,0 1.99999,10.51545 1.7732,0 -3.15464,-16.43296 -5.67009,13.05152 -5.64947,-13.05152 -3.15464,16.43296 z m -12.49224,-15.54636 -1.73195,0 0,15.54636 1.73195,0 0,-15.54636 z m -9.37627,1.60824 3.79381,0 0,-1.60824 -9.27833,0 0,1.60824 3.75257,0 0,13.93812 1.73195,0 0,-13.93812 z m -23.23773,13.93812 1.73196,0 0,-11.97936 12.12369,12.68039 0,-16.24739 -1.73196,0 0,12.04121 -12.12369,-12.70101 0,16.20616 z m -5.304749,-15.54636 -1.731956,0 0,15.54636 1.731956,0 0,-15.54636 z m -13.821808,8.32988 1.505152,0 c 1.896903,0 4.206177,0.35051 4.206177,2.76288 0,2.37113 -2.041233,2.84535 -3.979374,2.84535 l -1.731955,0 0,-5.60823 z m -1.731955,7.21648 3.60824,0 c 3.072159,0 5.566999,-1.23711 5.566999,-4.32989 0,-1.85567 -1.092781,-3.52577 -2.948448,-3.97937 1.051545,-0.70103 1.525771,-1.7732 1.525771,-3.03093 0,-3.17525 -2.37113,-4.20617 -5.195866,-4.20617 l -2.556696,0 0,15.54636 z m 1.731955,-13.93812 0.680411,0 c 2.123707,0 3.60824,0.24742 3.60824,2.59793 0,2.41237 -1.6701,2.63917 -3.628859,2.63917 l -0.659792,0 0,-5.2371 z"
       inkscape:connector-curvature="0" />
  </g>
</svg>
