<?xml version="1.0" encoding="UTF-8" standalone="no"?>
<!-- Created with Inkscape (http://www.inkscape.org/) -->

<svg
   xmlns:dc="http://purl.org/dc/elements/1.1/"
   xmlns:cc="http://creativecommons.org/ns#"
   xmlns:rdf="http://www.w3.org/1999/02/22-rdf-syntax-ns#"
   xmlns:svg="http://www.w3.org/2000/svg"
   xmlns="http://www.w3.org/2000/svg"
   xmlns:sodipodi="http://sodipodi.sourceforge.net/DTD/sodipodi-0.dtd"
   xmlns:inkscape="http://www.inkscape.org/namespaces/inkscape"
   width="600"
   height="120.317"
   viewBox="0 0 600.00001 120.317"
   id="svg4215"
   version="1.1"
   inkscape:version="0.91 r13725"
   sodipodi:docname="nabilaasad.svg">
  <defs
     id="defs4217" />
  <sodipodi:namedview
     id="base"
     pagecolor="#ffffff"
     bordercolor="#666666"
     borderopacity="1.0"
     inkscape:pageopacity="0.0"
     inkscape:pageshadow="2"
     inkscape:zoom="1.3032567"
     inkscape:cx="254.98473"
     inkscape:cy="146.58617"
     inkscape:document-units="px"
     inkscape:current-layer="layer1"
     showgrid="false"
     showguides="false"
     units="px"
     inkscape:window-width="1366"
     inkscape:window-height="720"
     inkscape:window-x="0"
     inkscape:window-y="0"
     inkscape:window-maximized="1" />
  <metadata
     id="metadata4220">
    <rdf:RDF>
      <cc:Work
         rdf:about="">
        <dc:format>image/svg+xml</dc:format>
        <dc:type
           rdf:resource="http://purl.org/dc/dcmitype/StillImage" />
        <dc:title />
      </cc:Work>
    </rdf:RDF>
  </metadata>
  <g
     inkscape:label="Layer 1"
     inkscape:groupmode="layer"
     id="layer1"
     transform="translate(0,-932.04516)">
    <g
       id="g9722"
       transform="matrix(2.6364268,0,0,2.6364268,-800.54377,565.05941)"
       style="display:inline;fill:#ffffff">
      <path
         inkscape:connector-curvature="0"
         id="path9724"
         d="m 377.2559,139.2137 c -0.23385,0.0108 -0.48995,0.0265 -0.7721,0.0469 -1.48064,0.1073 -2.68431,0.36844 -2.67531,0.58086 0.009,0.21238 -0.27165,0.39898 -0.62321,0.41389 -1.12228,0.0476 -4.61267,4.78576 -6.63205,9.0029 -1.07541,2.24572 -2.16246,4.03007 -2.41548,3.9647 -1.02744,-0.26544 -1.93799,-2.82368 -2.06353,-5.78514 -0.10996,-2.59514 -0.24708,-3.0609 -0.90701,-3.03292 -0.52787,0.0224 -0.91567,0.63893 -1.2006,1.90917 -0.65863,2.93587 0.23675,5.40369 2.92527,8.06458 l 1.13819,1.12663 -0.75521,3.86235 c -0.415,2.12452 -0.74244,4.22635 -0.72362,4.67063 0.0461,1.19498 -2.8203,7.72866 -3.40129,7.75328 -0.7911,0.0335 -0.3637,-5.58428 0.77685,-10.20864 1.17459,-4.76231 0.95034,-5.33521 -2.04347,-5.20831 -1.60206,0.0679 -2.10333,0.31131 -2.80387,1.36391 l -0.8522,1.28121 -0.38382,-1.65451 c -0.70127,-3.02501 -3.47427,-4.11862 -6.24271,-2.46285 -2.04035,1.22028 -3.32872,3.36586 -3.81933,6.3615 -0.53641,3.27524 0.47294,5.62887 2.91918,6.80822 2.56972,1.23885 3.40231,0.88454 5.14792,-2.18935 1.64687,-2.90018 1.93388,-2.8383 1.81183,0.39333 -0.0632,1.67328 0.14685,3.57216 0.50213,4.50847 0.72655,1.9236 3.01135,3.8209 4.52459,3.75676 1.37434,-0.0582 3.10506,-2.07509 3.95068,-4.60389 0.68767,-2.05642 1.3841,-2.45215 2.37864,-1.35211 1.3057,1.44416 2.56055,0.70916 4.25448,-2.49097 1.686,-3.18534 4.43572,-6.29522 5.60985,-6.34499 0.52832,-0.0224 0.70617,0.5791 0.79592,2.69638 0.0635,1.49887 -0.0602,2.73267 -0.27506,2.74175 -0.70701,0.0299 -4.46535,3.90719 -5.08932,5.25025 -2.08549,4.48925 2.06155,7.36817 6.57898,4.56727 1.46117,-0.90595 1.90226,-1.54377 2.50626,-3.62463 0.40321,-1.38906 0.79511,-3.72199 0.87075,-5.1843 0.11904,-2.30267 0.28698,-2.72342 1.25162,-3.13776 1.37846,-0.59206 1.66441,-0.36802 1.08003,0.84471 -1.10578,2.29474 0.026,6.65484 2.19766,8.4678 2.2173,1.85109 3.76688,1.4106 5.18182,-1.47361 l 1.16074,-2.36695 0.59537,2.17877 c 0.74862,2.74142 1.42546,3.87255 2.98994,4.99934 2.33154,1.67917 4.40134,0.77794 5.96343,-2.59627 1.01448,-2.19127 2.90395,-4.56929 3.65577,-4.60117 0.26636,-0.0113 1.08935,0.5681 1.82843,1.28756 1.93556,1.88408 4.14531,1.74175 5.16441,-0.33264 l 0.74207,-1.51026 0.40362,3.90386 c 0.46261,4.4801 1.33702,5.82658 5.06355,7.79266 0.53329,0.28136 1.09604,0.51344 1.25007,0.5158 0.77091,0.0117 2.61824,-2.14911 3.41829,-3.99744 0.49583,-1.14554 1.68509,-2.81264 2.64242,-3.70505 1.03531,-0.96508 1.53749,-1.73681 1.23989,-1.90375 -1.32554,-0.74358 -4.06439,1.81658 -5.48632,5.12845 -1.08015,2.51577 -2.1887,2.81669 -2.8476,0.77212 -0.58892,-1.82753 -0.22333,-5.67708 0.9109,-9.58334 0.75499,-2.60025 0.75469,-2.80182 -0.0103,-3.5784 -0.44581,-0.45253 -1.2903,-0.80202 -1.87616,-0.77719 -0.82429,0.0349 -1.07509,-0.20395 -1.11121,-1.05579 -0.0543,-1.28066 -2.05629,-3.63593 -3.40088,-4.0008 -0.50995,-0.13837 -1.94028,0.0369 -3.17756,0.38973 -2.56807,0.73238 -3.95911,2.52998 -4.94336,6.38516 -0.36904,1.44545 -1.07487,2.66478 -2.0478,3.53857 -0.8165,0.73324 -2.073,2.48658 -2.79164,3.89622 -1.52205,2.98572 -2.44958,3.31798 -2.81886,1.00906 -0.44334,-2.77222 0.14757,-8.57495 0.92804,-9.11394 3.08746,-2.13198 8.71022,-8.66067 9.94918,-11.55189 0.37789,-0.88189 0.74654,-2.45083 0.81909,-3.48737 0.11472,-1.65533 -0.0315,-2.00322 -1.21142,-2.8556 -1.09302,-0.78965 -1.70241,-0.90621 -3.27027,-0.6248 -2.90446,0.52129 -4.30077,1.53139 -6.50943,4.70611 -2.67374,3.84329 -4.61423,8.30548 -5.3226,12.24184 -0.79359,4.40967 -2.9652,8.98523 -4.29141,9.04143 -1.08337,0.0459 -0.92796,-3.86461 0.27371,-6.87776 0.59281,-1.48653 0.94899,-3.00064 0.79141,-3.36444 -0.15758,-0.36379 -1.02953,-0.76807 -1.93818,-0.89899 -1.29773,-0.18692 -1.85757,-0.0354 -2.61038,0.70697 -1.40174,1.38225 -3.75331,1.83836 -4.13139,0.80165 -0.55162,-1.51269 -2.52571,-2.77801 -4.54936,-2.91588 -1.73011,-0.11808 -2.21935,0.0762 -4.04761,1.60416 -1.14372,0.95586 -2.27766,2.14929 -2.51991,2.65206 -0.24227,0.50277 -0.6416,0.92301 -0.88743,0.93343 -0.48664,0.0206 -0.32499,-1.29096 0.572,-4.64198 0.49804,-1.86044 0.76529,-2.18385 2.0561,-2.48311 0.81625,-0.18922 2.50646,-1.17599 3.75606,-2.19345 5.58599,-4.54829 8.47932,-11.6926 5.80371,-14.33114 -0.71959,-0.70961 -1.26386,-0.89374 -2.9008,-0.81909 z m 0.44253,1.40406 c 0.81397,-0.0728 1.63621,0.77857 1.68574,1.9477 0.11271,2.6591 -4.37155,9.50349 -7.3379,11.20036 -1.78088,1.01876 -2.20735,0.92499 -1.76993,-0.39065 1.06509,-3.20385 5.76211,-11.78549 6.87005,-12.55183 0.17744,-0.12273 0.36421,-0.18878 0.55204,-0.20558 z m -30.60062,3.11083 c -1.27464,0.12212 -2.89384,1.29922 -3.98642,3.19503 -1.51098,2.62191 -3.46103,9.56886 -3.70311,13.19166 -0.3961,5.9277 -1.08661,13.27639 -1.31157,13.9334 -0.16264,0.4797 -0.38107,0.27921 -0.711,-0.65238 -1.15056,-3.24853 -3.75022,-13.64468 -4.83251,-19.32547 -0.64887,-3.40565 -1.40155,-6.56763 -1.67268,-7.02633 -0.71925,-1.21714 -2.39666,-2.16637 -3.71231,-2.10088 -1.07404,0.0535 -1.25808,0.46267 -2.86681,6.37804 -4.87251,17.91562 -9.10494,25.51772 -14.33081,25.73922 -2.26851,0.0961 -4.30305,-2.2897 -4.55442,-5.34009 -0.12779,-1.55143 0.0711,-2.0591 1.26081,-3.21635 1.59715,-1.55361 3.05648,-1.81422 3.94357,-0.70303 0.50871,0.63718 0.71014,0.65579 1.30608,0.11684 1.56612,-1.416 -0.0508,-3.22695 -2.76913,-3.10153 -2.22538,0.10263 -2.50698,0.27821 -4.21584,2.62618 -1.83616,2.52283 -1.72155,5.04972 0.36125,7.95465 0.83426,1.16368 2.0657,2.43956 2.73652,2.83453 0.93702,0.55175 1.87065,0.63727 4.02997,0.37037 3.29644,-0.40743 5.80268,-1.70497 8.0771,-4.18069 1.83414,-1.99654 5.5021,-9.61206 6.57623,-13.65559 0.38668,-1.45538 0.84629,-2.65221 1.02218,-2.65967 0.17586,-0.007 0.63329,1.35526 1.01619,3.02831 1.89081,8.26256 5.1839,15.49057 7.39206,16.22467 1.72336,0.57296 3.08812,-0.22365 3.59469,-2.09951 0.2268,-0.83968 0.62173,-4.29963 0.87835,-7.68902 1.0092,-13.33057 4.43265,-23.9101 6.98017,-21.56978 0.72892,0.66965 1.65069,-0.29514 1.22368,-1.28094 -0.32857,-0.75852 -0.96936,-1.06535 -1.73416,-0.99208 z m 58.13699,3.2983 c 0.14888,-0.0226 0.27035,0.0284 0.36036,0.15714 1.0711,1.53881 -0.44977,5.45011 -3.61654,9.30077 -2.24082,2.72472 -4.07359,4.36712 -4.10289,3.67629 -0.0116,-0.27418 0.6523,-1.99008 1.47543,-3.81288 2.44838,-5.42206 4.8415,-9.16331 5.88364,-9.32132 z m -16.12244,6.78433 c -0.21022,0.0179 -0.43281,0.0666 -0.66375,0.15077 -1.05262,0.38388 -1.0198,1.87764 0.0538,2.44345 1.05736,0.55728 1.21345,0.54546 1.83671,-0.13295 1.11011,-1.20842 0.2435,-2.58688 -1.22675,-2.46127 z m -37.93119,2.02984 c 0.40512,0.0111 0.84822,0.42198 1.10958,1.22738 0.9107,2.80695 0.65468,4.78509 -0.90916,7.02378 -0.83662,1.19763 -1.81832,2.19044 -2.18159,2.20583 -0.96312,0.0408 -0.93146,-2.23977 0.074,-5.36118 0.46797,-1.45257 0.9299,-3.21787 1.02642,-3.9227 0.10907,-0.79525 0.47563,-1.18421 0.88075,-1.17311 z m 61.01271,3.50521 c 0.25271,-0.0589 0.50739,0.19947 0.86542,0.66718 1.38783,1.81295 1.06318,3.14451 -1.42077,5.81461 -1.26412,1.3589 -2.43163,2.47682 -2.59375,2.48369 -0.39947,0.0168 0.10413,-1.91443 1.43854,-5.52121 0.87512,-2.36539 1.28935,-3.3461 1.71056,-3.44427 z m -36.91868,7.52981 c 0.0863,0.006 0.13709,0.0683 0.14249,0.19657 0.0641,1.51171 -1.14434,5.15375 -2.06298,6.21866 -1.95613,2.26732 -3.24987,1.01149 -1.91956,-1.86315 0.88031,-1.90228 3.23584,-4.59569 3.84005,-4.55208 z"
         style="display:inline;fill:#ffffff" />
      <path
         style="display:inline;fill:#ffffff"
         d="m 456.88918,143.82842 c -1.07436,0.0548 -1.95468,0.45354 -1.93092,0.92049 0.0107,0.21154 -0.0562,0.55442 -0.14897,0.76235 -0.0927,0.20781 -0.24908,0.62117 -0.34708,0.91863 -1.26076,3.83714 -2.33433,7.744 -3.84858,11.68161 -0.93505,2.71727 -1.98465,5.01806 -2.25409,4.94032 -0.13022,-0.0381 -0.2648,-0.4408 -0.29885,-0.89581 -0.11975,-1.59893 -0.18142,-1.7715 -0.75117,-2.10465 -0.54918,-0.32117 -0.58731,-0.31722 -0.86272,0.0924 -0.45812,0.68078 -0.13439,2.57023 0.62315,3.63761 0.41333,0.5824 0.58847,1.03385 0.51294,1.32192 -0.13974,0.53286 -2.55341,3.8691 -3.25186,4.49493 -0.27683,0.24802 -1.0147,0.6508 -1.63977,0.89467 -0.92734,0.36186 -1.24897,0.40313 -1.74794,0.22558 -0.76088,-0.27081 -1.53854,-1.41341 -1.58518,-2.32951 -0.038,-1.48483 0.90547,-3.9936 1.30309,-5.59077 0.48329,-0.93012 0.44602,-1.86294 -0.0736,-1.83654 -0.60466,0.0309 -1.90487,2.20373 -2.57621,4.30575 -0.3881,1.22337 -0.69884,2.31492 0.0161,3.65991 0.34287,0.63859 0.84005,1.43878 1.10481,1.77829 4.71978,5.90335 9.64392,3.44829 13.76761,-2.46803 1.00165,-1.50567 0.87972,-1.46279 3.59058,-1.26089 1.6242,0.12094 2.02255,0.0784 3.40889,-0.36425 0.86338,-0.27564 1.59701,-0.47858 1.63013,-0.45085 0.0333,0.0284 0.23178,0.79735 0.44166,1.71032 1.24881,5.4322 3.4108,9.09808 5.91129,10.02307 1.91822,0.70954 2.72044,0.37124 4.94222,-2.08412 1.45324,-1.60601 3.07874,-4.00436 3.05326,-4.50499 -0.005,-0.10321 0.28821,-0.78294 0.65196,-1.51048 0.36374,-0.72753 0.6816,-1.53492 0.7063,-1.79433 0.0598,-0.62729 0.55924,-0.81155 0.58946,-0.21746 0.0128,0.25076 0.14431,0.65663 0.2922,0.90205 0.35666,0.59199 1.44035,3.8855 1.46995,4.46731 0.0164,0.32269 -0.26576,0.64852 -0.9514,1.09863 -1.21672,0.79878 -2.83516,2.45845 -3.24797,3.33077 -0.17195,0.36343 -0.44212,1.15013 -0.60031,1.74818 -0.59648,2.27463 1.87428,4.26608 4.25084,5.28026 1.25694,0.38323 2.29506,0.27922 3.50726,-0.35169 1.34178,-0.69829 1.71604,-0.51393 2.31505,-2.17502 0.81408,-2.25712 0.81715,-3.50793 0.58288,-5.04901 -0.4304,-2.83131 -0.5751,-3.54979 -0.78715,-3.90876 -0.15651,-0.26495 -0.12787,-0.40349 0.10547,-0.50691 0.46073,-0.2042 0.36769,-0.73721 -0.12431,-0.71219 -0.34092,0.017 -0.55197,-0.35334 -1.17996,-2.07296 -0.92055,-2.52055 -1.00459,-3.92944 -0.42068,-7.03846 l 0.39641,-2.11067 -0.60004,-0.7085 c -1.06246,-1.22983 -3.06564,-1.08847 -4.52529,-0.31605 -0.74996,0.58118 -1.21906,1.86778 -1.37005,3.75899 -0.1073,1.34416 -0.31192,2.1226 -0.8643,3.28696 -2.42425,5.10999 -4.92099,8.91607 -6.02646,9.18625 -0.63961,0.15633 -0.79204,-0.0318 -1.03301,-1.27517 -0.10114,-0.52181 -0.32015,-1.51619 -0.48665,-2.2096 -0.83986,-3.5114 -1.77042,-7.64286 -1.8542,-12.45485 -0.0823,-0.81468 -0.36363,-3.38462 -0.62499,-5.71104 -0.50131,-4.46225 -0.54293,-5.12686 -0.45331,-7.26183 0.0485,-1.15281 -0.0111,-1.41359 -0.4409,-1.93707 -0.38648,-0.47066 -0.71406,-0.62035 -1.47634,-0.67428 -0.53883,-0.0381 -1.94814,-0.16562 -3.13179,-0.28367 -1.18366,-0.1179 -2.61793,-0.23453 -3.18738,-0.25888 -0.15931,-0.006 -0.31666,-0.006 -0.47014,0 z m 2.44469,8.80928 c 0.0463,0.042 0.24777,1.44484 0.44747,3.1175 0.19968,1.67268 0.54584,4.03108 0.76952,5.24071 0.22368,1.20973 0.36814,2.31824 0.32079,2.46338 -0.0474,0.14505 -0.54016,0.4869 -1.09527,0.75996 -0.77734,0.38229 -1.45145,0.51878 -2.93259,0.59418 -1.05766,0.0538 -1.92687,0.0206 -1.93171,-0.0745 -0.005,-0.0948 0.19375,-0.65525 0.44111,-1.24548 0.80343,-1.91662 1.18599,-2.96324 2.55185,-6.9787 0.73951,-2.17418 1.3825,-3.91884 1.42883,-3.87702 z m 29.40002,0.36121 c -0.19694,0.005 -0.37583,0.0337 -0.51623,0.0958 -0.31669,0.14033 -0.31481,0.17868 0.0248,0.5175 0.20163,0.20123 0.37325,0.49683 0.38139,0.65693 0.007,0.16 0.2074,0.83638 0.44272,1.50289 0.23534,0.66646 0.45924,1.20993 0.49751,1.20798 0.0383,0 0.32397,-0.15174 0.63477,-0.33312 1.16262,-0.67814 1.27827,-2.06836 0.25477,-3.05882 -0.37427,-0.36222 -1.12872,-0.59865 -1.7196,-0.58921 z m 38.2178,1.4403 c -1.71761,0.0874 -2.27389,0.4468 -2.4242,1.56544 -0.0589,0.43828 -0.38966,1.72039 -0.73502,2.84934 -0.34537,1.12891 -0.66661,2.26984 -0.71381,2.53551 -0.10723,0.60353 -0.36824,0.62989 -0.70491,0.0712 -0.74541,-1.23727 -4.14742,-1.32822 -7.70853,-0.2063 -1.1027,0.34748 -2.07257,1.56083 -2.79078,3.49169 -0.56314,1.51399 -0.60749,1.84744 -0.5095,3.82627 l 0.10738,2.16773 -0.83251,0.95331 c -1.19899,1.4225 -2.01169,3.3561 -3.01899,4.78682 -0.11669,0.006 -0.22641,-0.26934 -0.24384,-0.61174 -0.0339,-0.66568 0.35156,-3.40559 0.60478,-4.29866 0.0841,-0.29676 0.25619,-0.92772 0.38197,-1.402 0.12576,-0.47443 0.41733,-1.35061 0.648,-1.94729 1.64936,-4.26652 1.72018,-4.62382 1.06762,-5.3718 -0.65318,-0.74871 -1.50485,-1.02113 -3.44629,-1.10177 -1.94088,-0.0806 -2.27351,0.0789 -2.97245,1.42378 -0.2824,0.54351 -0.5345,0.98899 -0.56045,0.99032 -0.0259,0 -0.0721,-0.4096 -0.10228,-0.91341 -0.0748,-1.2447 -0.4975,-2.05066 -1.34298,-2.55977 -1.94565,-1.07569 -6.87195,-0.88533 -8.22478,1.156 -0.4548,0.68607 -1.01479,1.69385 -1.24463,2.23952 -0.48212,1.1447 -0.75401,4.17703 -0.46405,5.17659 0.62936,2.16939 2.3747,4.40877 3.95594,5.07586 3.35122,1.27757 4.23525,-0.61031 5.94601,-2.85858 0.0581,-0.007 0.14813,0.82068 0.20007,1.84167 0.0801,1.57467 0.18908,2.02891 0.71738,2.99442 0.65748,1.20163 2.26432,2.74726 3.54336,3.4079 0.42052,0.21726 0.95335,0.34308 1.18409,0.27975 2.32569,-0.6287 2.97997,-4.77435 4.45717,-6.69753 l 0.84108,-1.18308 0.47658,0.59428 c 1.36066,1.69643 2.71461,2.27741 4.63268,1.98827 0.71963,-0.10846 1.33831,-0.24337 1.37457,-0.29996 0.0363,-0.0565 0.17441,-0.35006 0.30713,-0.65241 0.13271,-0.3022 0.67569,-0.8563 1.20654,-1.23116 0.65351,-0.45932 1.22526,-0.8602 1.55127,0.38959 0.0383,0.75565 1.19985,2.37413 2.56909,3.5805 1.45782,1.2844 2.31981,1.67966 3.30516,1.51547 1.79598,-0.4563 4.36208,-3.87074 2.70375,-5.39128 -0.69547,-0.4067 -1.25686,-0.10797 -1.22831,0.65341 0.0674,1.78983 -1.53338,3.36969 -1.7335,1.71105 -0.33619,-2.78592 -0.24008,-4.80369 0.36484,-7.62247 0.59585,-2.76305 1.50787,-5.77871 1.70166,-8.87344 0.39779,-2.24329 0.40131,-2.44001 0.0571,-3.07639 -0.45859,-0.84778 -1.09196,-1.05878 -2.90334,-0.96661 z m -26.93857,7.45812 c 0.13381,-0.0118 0.30518,-0.006 0.4811,0.0107 0.55965,0.0532 0.70441,0.21422 1.15856,1.28704 0.2855,0.67424 0.57817,1.22441 0.65014,1.22241 0.0719,-0.005 0.268,0.0741 0.43563,0.1686 0.2499,0.14103 0.22188,0.30451 -0.15483,0.90856 -0.74538,1.19511 -4.18675,5.48995 -4.5971,5.73719 -0.73926,0.44547 -0.87145,0.30508 -0.81647,-0.86675 0.0798,-1.59272 0.67138,-3.37816 1.84536,-5.00491 0.6541,-0.92733 0.74581,-1.21395 0.69664,-2.18011 -0.0311,-0.61178 -0.012,-1.1622 0.0428,-1.22284 0.0274,-0.0303 0.12418,-0.0513 0.25815,-0.0601 z m 19.97676,0.34059 c 0.55768,-0.0283 1.32475,0.40284 1.68462,0.9469 0.32652,0.49359 0.33973,0.69404 0.12654,1.8916 -0.24948,1.40113 -0.68762,2.45302 -1.55639,3.73488 -0.5212,0.76909 -0.68848,0.9623 -1.76292,2.04064 -2.09721,2.10486 -2.24051,-0.12015 -0.30231,-4.69328 0.5321,-1.2554 1.0929,-2.64793 1.24633,-3.09437 0.15343,-0.44647 0.40729,-0.8184 0.56414,-0.82637 z m -40.24197,12.62211 c 0.315,-0.021 0.36849,0.59002 0.32331,1.90582 -0.0857,2.49746 -0.48075,3.6272 -1.55588,4.4498 -1.41029,1.07907 -2.06285,0.12557 -1.40458,-2.05247 0.39543,-1.32774 0.26678,-1.64432 1.35022,-3.14927 0.63847,-0.74161 1.0419,-1.13833 1.28693,-1.15388 z"
         id="path9726"
         inkscape:connector-curvature="0" />
    </g>
  </g>
</svg>
